<?xml version="1.0" encoding="UTF-8"?>
<svg version="1.1" xmlns="http://www.w3.org/2000/svg" width="720" height="720">
<path d="M0 0 C2.26992462 0.00536971 4.53965151 0.00000382 6.80957031 -0.00634766 C16.99528515 -0.01045878 27.1101382 0.42461124 37.27050781 1.13037109 C37.27050781 1.79037109 37.27050781 2.45037109 37.27050781 3.13037109 C38.30884766 3.09556641 38.30884766 3.09556641 39.36816406 3.06005859 C52.33461431 2.82088823 64.73165012 4.9586533 77.27050781 8.13037109 C77.27050781 8.79037109 77.27050781 9.45037109 77.27050781 10.13037109 C78.23988281 10.08912109 79.20925781 10.04787109 80.20800781 10.00537109 C87.8962146 10.02084032 95.08879749 12.63483968 102.27050781 15.13037109 C104.45721424 15.86191418 106.64473852 16.59101639 108.83300781 17.31787109 C110.64550781 17.92203776 112.45800781 18.52620443 114.27050781 19.13037109 C114.27050781 19.79037109 114.27050781 20.45037109 114.27050781 21.13037109 C115.60082031 21.22318359 115.60082031 21.22318359 116.95800781 21.31787109 C125.38550757 22.50218369 133.53121172 26.71068212 141.27050781 30.13037109 C141.27050781 30.79037109 141.27050781 31.45037109 141.27050781 32.13037109 C141.94984375 32.22060547 142.62917969 32.31083984 143.32910156 32.40380859 C146.98785342 33.30756403 150.05947305 34.94774281 153.33300781 36.75537109 C154.30959351 37.28735107 154.30959351 37.28735107 155.3059082 37.83007812 C157.29904892 38.92148477 159.28534323 40.02453452 161.27050781 41.13037109 C161.88635742 41.47003906 162.50220703 41.80970703 163.13671875 42.15966797 C170.59760628 46.28870709 170.59760628 46.28870709 173.27050781 48.13037109 C173.27050781 48.79037109 173.27050781 49.45037109 173.27050781 50.13037109 C173.86863281 50.27474609 174.46675781 50.41912109 175.08300781 50.56787109 C176.83201186 51.01761499 178.55727804 51.5592945 180.27050781 52.13037109 C180.27050781 52.79037109 180.27050781 53.45037109 180.27050781 54.13037109 C180.99238281 54.39849609 181.71425781 54.66662109 182.45800781 54.94287109 C185.26817164 56.12938471 187.75467338 57.40522748 190.27050781 59.13037109 C190.27050781 59.79037109 190.27050781 60.45037109 190.27050781 61.13037109 C192.74550781 62.12037109 192.74550781 62.12037109 195.27050781 63.13037109 C195.27050781 63.79037109 195.27050781 64.45037109 195.27050781 65.13037109 C195.99625 65.38818359 196.72199219 65.64599609 197.46972656 65.91162109 C200.39098448 67.18279609 202.5792343 68.67053511 205.08300781 70.63037109 C205.87320313 71.23880859 206.66339844 71.84724609 207.47753906 72.47412109 C208.06921875 73.02068359 208.66089844 73.56724609 209.27050781 74.13037109 C209.27050781 74.79037109 209.27050781 75.45037109 209.27050781 76.13037109 C209.84800781 76.21287109 210.42550781 76.29537109 211.02050781 76.38037109 C213.92444141 77.34834896 215.30791386 78.81731393 217.27050781 81.13037109 C217.27050781 81.79037109 217.27050781 82.45037109 217.27050781 83.13037109 C217.80160156 83.34693359 218.33269531 83.56349609 218.87988281 83.78662109 C222.15720067 85.62877361 224.77853333 88.09174878 227.52050781 90.63037109 C228.35195312 91.37867188 228.35195312 91.37867188 229.20019531 92.14208984 C230.59900861 93.4272065 231.93995035 94.77470878 233.27050781 96.13037109 C233.27050781 96.79037109 233.27050781 97.45037109 233.27050781 98.13037109 C233.93050781 98.13037109 234.59050781 98.13037109 235.27050781 98.13037109 C239.27050781 102.60095933 239.27050781 102.60095933 239.27050781 105.13037109 C240.59050781 105.79037109 241.91050781 106.45037109 243.27050781 107.13037109 C243.27050781 107.79037109 243.27050781 108.45037109 243.27050781 109.13037109 C244.26050781 109.46037109 245.25050781 109.79037109 246.27050781 110.13037109 C248.31347656 112.34521484 248.31347656 112.34521484 250.45800781 115.06787109 C251.53115234 116.41171875 251.53115234 116.41171875 252.62597656 117.78271484 C254.27050781 120.13037109 254.27050781 120.13037109 254.27050781 122.13037109 C254.93050781 122.13037109 255.59050781 122.13037109 256.27050781 122.13037109 C258.27050781 125.13037109 258.27050781 125.13037109 258.27050781 128.13037109 C259.26050781 128.46037109 260.25050781 128.79037109 261.27050781 129.13037109 C261.27050781 129.79037109 261.27050781 130.45037109 261.27050781 131.13037109 C262.26050781 131.46037109 263.25050781 131.79037109 264.27050781 132.13037109 C265.28200406 133.80099809 266.28424126 135.47901688 267.20800781 137.19970703 C268.51405147 139.5729132 270.03076481 141.78297667 271.56811523 144.01123047 C296.48733625 180.15801522 296.48733625 180.15801522 298.27050781 197.13037109 C298.93050781 197.13037109 299.59050781 197.13037109 300.27050781 197.13037109 C309.27050781 220.86823517 309.27050781 220.86823517 309.27050781 226.13037109 C309.93050781 226.13037109 310.59050781 226.13037109 311.27050781 226.13037109 C311.38007812 226.74783203 311.48964844 227.36529297 311.60253906 228.00146484 C312.39868044 232.25402489 313.26581299 236.35918261 314.70800781 240.44287109 C317.92858344 249.74675625 319.57775512 259.25528539 320.62426758 269.01342773 C320.73113431 272.36139225 320.73113431 272.36139225 322.27050781 275.13037109 C327.54551239 306.48899843 326.2032256 338.73487135 322.27050781 370.13037109 C321.61050781 370.13037109 320.95050781 370.13037109 320.27050781 370.13037109 C320.31175781 371.32662109 320.35300781 372.52287109 320.39550781 373.75537109 C320.39550781 382.73933874 318.85080716 391.54870137 316.27050781 400.13037109 C315.9753125 401.16935547 315.68011719 402.20833984 315.37597656 403.27880859 C314.34641407 406.89761121 313.31008882 410.51443717 312.27050781 414.13037109 C312.06490234 414.84708984 311.85929688 415.56380859 311.64746094 416.30224609 C311.00457839 418.53767964 310.35686063 420.7716639 309.70800781 423.00537109 C309.51037842 423.69421387 309.31274902 424.38305664 309.10913086 425.09277344 C307.71524375 429.86771263 306.06149649 434.48937436 304.27050781 439.13037109 C303.61050781 439.13037109 302.95050781 439.13037109 302.27050781 439.13037109 C302.18800781 439.91412109 302.10550781 440.69787109 302.02050781 441.50537109 C301.18531645 445.54212934 299.79268568 449.0680998 298.20800781 452.86083984 C297.49349683 454.59055184 296.86232109 456.35493127 296.27050781 458.13037109 C295.61050781 458.13037109 294.95050781 458.13037109 294.27050781 458.13037109 C294.18800781 458.95537109 294.10550781 459.78037109 294.02050781 460.63037109 C293.10603513 464.8979103 291.34827603 468.32274003 289.27050781 472.13037109 C288.61050781 472.13037109 287.95050781 472.13037109 287.27050781 472.13037109 C287.12613281 472.89349609 286.98175781 473.65662109 286.83300781 474.44287109 C286.27050781 477.13037109 286.27050781 477.13037109 285.27050781 480.13037109 C284.61050781 480.13037109 283.95050781 480.13037109 283.27050781 480.13037109 C282.94050781 481.45037109 282.61050781 482.77037109 282.27050781 484.13037109 C281.61050781 484.13037109 280.95050781 484.13037109 280.27050781 484.13037109 C280.20863281 484.95537109 280.14675781 485.78037109 280.08300781 486.63037109 C279.05909326 491.04107996 277.13472969 494.61478411 274.27050781 498.13037109 C273.61050781 498.13037109 272.95050781 498.13037109 272.27050781 498.13037109 C271.94050781 499.45037109 271.61050781 500.77037109 271.27050781 502.13037109 C270.61050781 502.13037109 269.95050781 502.13037109 269.27050781 502.13037109 C269.18671875 502.67177734 269.10292969 503.21318359 269.01660156 503.77099609 C268.01200062 506.94784932 266.29627849 509.19640612 264.33300781 511.88037109 C263.62273438 512.86521484 262.91246094 513.85005859 262.18066406 514.86474609 C261.23513672 515.98623047 261.23513672 515.98623047 260.27050781 517.13037109 C259.61050781 517.13037109 258.95050781 517.13037109 258.27050781 517.13037109 C257.94050781 518.78037109 257.61050781 520.43037109 257.27050781 522.13037109 C256.28050781 522.46037109 255.29050781 522.79037109 254.27050781 523.13037109 C254.12613281 523.72849609 253.98175781 524.32662109 253.83300781 524.94287109 C253.07127486 527.90516593 251.56965534 529.17957925 249.27050781 531.13037109 C248.61050781 531.13037109 247.95050781 531.13037109 247.27050781 531.13037109 C247.20863281 531.66662109 247.14675781 532.20287109 247.08300781 532.75537109 C245.46727622 537.47827882 241.80252529 540.79096404 238.02050781 543.88037109 C235.24690843 545.83668993 235.24690843 545.83668993 234.27050781 548.13037109 C233.61050781 548.13037109 232.95050781 548.13037109 232.27050781 548.13037109 C232.06425781 548.68724609 231.85800781 549.24412109 231.64550781 549.81787109 C230.0993063 552.41830091 228.19958893 553.92000682 225.84472656 555.77880859 C223.99806676 557.28869114 223.99806676 557.28869114 221.77050781 560.13037109 C219.1030699 563.33129659 216.61415672 565.65897842 213.27050781 568.13037109 C212.28050781 568.13037109 211.29050781 568.13037109 210.27050781 568.13037109 C210.04363281 568.72849609 209.81675781 569.32662109 209.58300781 569.94287109 C207.9153334 572.72232845 206.06363665 573.53429747 203.27050781 575.13037109 C202.71234375 575.70271484 202.15417969 576.27505859 201.57910156 576.86474609 C198.51741865 579.86944337 195.16015745 582.34369026 191.70800781 584.88037109 C191.03576172 585.38697266 190.36351562 585.89357422 189.67089844 586.41552734 C188.69733398 587.13289062 188.69733398 587.13289062 187.70410156 587.86474609 C187.11685303 588.30012695 186.52960449 588.73550781 185.92456055 589.18408203 C184.27050781 590.13037109 184.27050781 590.13037109 181.27050781 590.13037109 C181.27050781 590.79037109 181.27050781 591.45037109 181.27050781 592.13037109 C179.62597656 593.41943359 179.62597656 593.41943359 177.45800781 594.75537109 C176.39646484 595.42439453 176.39646484 595.42439453 175.31347656 596.10693359 C173.27050781 597.13037109 173.27050781 597.13037109 170.27050781 597.13037109 C170.27050781 597.79037109 170.27050781 598.45037109 170.27050781 599.13037109 C167.67062229 600.63824486 165.06610584 602.1368257 162.45800781 603.63037109 C161.72001953 604.05962891 160.98203125 604.48888672 160.22167969 604.93115234 C159.50947266 605.33720703 158.79726563 605.74326172 158.06347656 606.16162109 C157.08157349 606.72719727 157.08157349 606.72719727 156.07983398 607.30419922 C154.27050781 608.13037109 154.27050781 608.13037109 151.27050781 608.13037109 C151.27050781 608.79037109 151.27050781 609.45037109 151.27050781 610.13037109 C148.3645052 611.38702087 146.47446197 612.13037109 143.27050781 612.13037109 C143.27050781 612.79037109 143.27050781 613.45037109 143.27050781 614.13037109 C140.96050781 614.46037109 138.65050781 614.79037109 136.27050781 615.13037109 C136.27050781 615.79037109 136.27050781 616.45037109 136.27050781 617.13037109 C133.27527184 618.47463822 130.27434543 619.80544609 127.27050781 621.13037109 C125.87832031 621.74912109 125.87832031 621.74912109 124.45800781 622.38037109 C122.27050781 623.13037109 122.27050781 623.13037109 118.27050781 623.13037109 C118.27050781 623.79037109 118.27050781 624.45037109 118.27050781 625.13037109 C112.02941389 627.30577777 105.88452118 629.31248954 99.40722656 630.63818359 C96.40584849 631.32954308 93.54394591 632.3450055 90.63378906 633.34521484 C81.69164516 636.31607588 72.48962239 638.24102169 63.27050781 640.13037109 C62.408125 640.32244141 61.54574219 640.51451172 60.65722656 640.71240234 C58.20387412 641.14204017 55.94564635 641.23000003 53.45800781 641.19287109 C52.6678125 641.18384766 51.87761719 641.17482422 51.06347656 641.16552734 C50.17595703 641.148125 50.17595703 641.148125 49.27050781 641.13037109 C49.27050781 641.79037109 49.27050781 642.45037109 49.27050781 643.13037109 C47.84001099 643.21339478 47.84001099 643.21339478 46.38061523 643.2980957 C42.84130183 643.50459261 39.3023263 643.7164526 35.76342773 643.92993164 C34.23193909 644.02156471 32.70036278 644.11174453 31.16870117 644.20043945 C28.96671256 644.32820476 26.76509249 644.4611988 24.56347656 644.59521484 C23.53676094 644.65309425 23.53676094 644.65309425 22.48930359 644.71214294 C19.53641038 644.89641581 17.09454666 645.18902481 14.27050781 646.13037109 C12.47162886 646.22421949 10.66948818 646.26107661 8.86816406 646.26318359 C7.81306641 646.26447266 6.75796875 646.26576172 5.67089844 646.26708984 C4.56939453 646.26322266 3.46789062 646.25935547 2.33300781 646.25537109 C1.23537109 646.25923828 0.13773437 646.26310547 -0.99316406 646.26708984 C-2.04955078 646.26580078 -3.1059375 646.26451172 -4.19433594 646.26318359 C-5.64247681 646.2614917 -5.64247681 646.2614917 -7.11987305 646.25976562 C-9.72949219 646.13037109 -9.72949219 646.13037109 -11.62939453 645.65332031 C-14.69082562 644.89098767 -17.7189222 644.80906514 -20.86621094 644.63037109 C-22.26139484 644.54706481 -23.65657709 644.46373066 -25.05175781 644.38037109 C-27.2441483 644.25403413 -29.43662035 644.12926199 -31.62915039 644.00537109 C-33.75008257 643.88421553 -35.87063142 643.75752734 -37.99121094 643.63037109 C-39.25924561 643.55818359 -40.52728027 643.48599609 -41.83374023 643.41162109 C-44.72949219 643.13037109 -44.72949219 643.13037109 -45.72949219 642.13037109 C-47.21219114 641.83457405 -48.70580604 641.59291689 -50.20214844 641.37646484 C-51.10126953 641.24433594 -52.00039063 641.11220703 -52.92675781 640.97607422 C-53.87228516 640.84136719 -54.8178125 640.70666016 -55.79199219 640.56787109 C-57.21608398 640.36000977 -57.21608398 640.36000977 -58.66894531 640.14794922 C-61.02194868 639.80504923 -63.37544701 639.46603173 -65.72949219 639.13037109 C-65.72949219 638.47037109 -65.72949219 637.81037109 -65.72949219 637.13037109 C-66.91091797 637.09169922 -66.91091797 637.09169922 -68.11621094 637.05224609 C-76.52116425 636.61459172 -83.80345833 634.89042231 -91.72949219 632.13037109 C-95.16790049 630.95828474 -98.57300333 629.85779944 -102.10449219 629.00537109 C-103.30074219 628.71662109 -104.49699219 628.42787109 -105.72949219 628.13037109 C-105.72949219 627.47037109 -105.72949219 626.81037109 -105.72949219 626.13037109 C-108.36949219 625.80037109 -111.00949219 625.47037109 -113.72949219 625.13037109 C-113.72949219 624.47037109 -113.72949219 623.81037109 -113.72949219 623.13037109 C-117.02949219 622.47037109 -120.32949219 621.81037109 -123.72949219 621.13037109 C-123.72949219 620.47037109 -123.72949219 619.81037109 -123.72949219 619.13037109 C-124.67824219 618.98599609 -125.62699219 618.84162109 -126.60449219 618.69287109 C-129.72949219 618.13037109 -129.72949219 618.13037109 -131.72949219 617.13037109 C-131.72949219 616.47037109 -131.72949219 615.81037109 -131.72949219 615.13037109 C-134.03949219 614.80037109 -136.34949219 614.47037109 -138.72949219 614.13037109 C-138.72949219 613.47037109 -138.72949219 612.81037109 -138.72949219 612.13037109 C-139.53386719 612.06849609 -140.33824219 612.00662109 -141.16699219 611.94287109 C-145.89303729 610.86500116 -149.60462645 608.6144569 -153.72949219 606.13037109 C-153.72949219 605.47037109 -153.72949219 604.81037109 -153.72949219 604.13037109 C-155.70949219 603.80037109 -157.68949219 603.47037109 -159.72949219 603.13037109 C-159.72949219 602.47037109 -159.72949219 601.81037109 -159.72949219 601.13037109 C-160.24640625 601.05560547 -160.76332031 600.98083984 -161.29589844 600.90380859 C-164.79045563 599.79317886 -167.64009513 597.77117609 -170.66699219 595.75537109 C-171.88399787 594.9552189 -173.10143821 594.15572736 -174.31933594 593.35693359 C-174.8966748 592.9744043 -175.47401367 592.591875 -176.06884766 592.19775391 C-177.56947068 591.23322526 -179.118275 590.3446852 -180.67089844 589.46630859 C-181.35023438 589.02544922 -182.02957031 588.58458984 -182.72949219 588.13037109 C-182.72949219 587.47037109 -182.72949219 586.81037109 -182.72949219 586.13037109 C-183.34824219 585.98599609 -183.96699219 585.84162109 -184.60449219 585.69287109 C-186.72949219 585.13037109 -186.72949219 585.13037109 -188.72949219 584.13037109 C-188.72949219 583.47037109 -188.72949219 582.81037109 -188.72949219 582.13037109 C-189.32761719 582.02724609 -189.92574219 581.92412109 -190.54199219 581.81787109 C-193.03818236 581.03335418 -193.98681084 580.03147802 -195.72949219 578.13037109 C-196.38949219 577.80037109 -197.04949219 577.47037109 -197.72949219 577.13037109 C-197.72949219 576.47037109 -197.72949219 575.81037109 -197.72949219 575.13037109 C-198.38949219 574.94474609 -199.04949219 574.75912109 -199.72949219 574.56787109 C-203.99854487 572.52228335 -207.47112925 569.55852466 -210.72949219 566.13037109 C-210.72949219 565.47037109 -210.72949219 564.81037109 -210.72949219 564.13037109 C-212.37949219 563.47037109 -214.02949219 562.81037109 -215.72949219 562.13037109 C-215.72949219 561.47037109 -215.72949219 560.81037109 -215.72949219 560.13037109 C-216.71949219 559.80037109 -217.70949219 559.47037109 -218.72949219 559.13037109 C-218.72949219 558.47037109 -218.72949219 557.81037109 -218.72949219 557.13037109 C-220.04949219 556.47037109 -221.36949219 555.81037109 -222.72949219 555.13037109 C-222.72949219 554.47037109 -222.72949219 553.81037109 -222.72949219 553.13037109 C-224.04949219 552.47037109 -225.36949219 551.81037109 -226.72949219 551.13037109 C-226.72949219 550.47037109 -226.72949219 549.81037109 -226.72949219 549.13037109 C-227.71949219 548.80037109 -228.70949219 548.47037109 -229.72949219 548.13037109 C-229.72949219 547.47037109 -229.72949219 546.81037109 -229.72949219 546.13037109 C-231.04949219 545.47037109 -232.36949219 544.81037109 -233.72949219 544.13037109 C-233.72949219 543.47037109 -233.72949219 542.81037109 -233.72949219 542.13037109 C-234.71949219 541.80037109 -235.70949219 541.47037109 -236.72949219 541.13037109 C-237.32761719 540.22287109 -237.92574219 539.31537109 -238.54199219 538.38037109 C-240.37442947 535.65789284 -241.36842153 534.49341188 -243.85449219 532.63037109 C-247.04963886 529.85198268 -247.55963479 528.08988845 -248.72949219 524.13037109 C-249.71949219 523.80037109 -250.70949219 523.47037109 -251.72949219 523.13037109 C-251.72949219 522.14037109 -251.72949219 521.15037109 -251.72949219 520.13037109 C-252.71949219 519.80037109 -253.70949219 519.47037109 -254.72949219 519.13037109 C-257.89624444 516.72363938 -258.64928453 513.86955146 -259.72949219 510.13037109 C-260.38949219 510.13037109 -261.04949219 510.13037109 -261.72949219 510.13037109 C-263.41982491 507.63825223 -264.99803383 505.14871459 -266.54199219 502.56787109 C-269.0772677 498.37565304 -271.60292964 494.23899444 -274.50292969 490.28662109 C-276.57851135 487.34439306 -277.40878639 485.65813484 -277.72949219 482.13037109 C-278.38949219 482.13037109 -279.04949219 482.13037109 -279.72949219 482.13037109 C-286.45424287 468.83448078 -292.89388613 455.51817058 -298.33496094 441.63818359 C-299.27762287 439.26700597 -300.26343694 436.91260235 -301.28808594 434.57568359 C-302.63310908 431.36075024 -303.67091699 428.23463243 -304.60449219 424.88037109 C-304.93964844 423.67767578 -305.27480469 422.47498047 -305.62011719 421.23583984 C-307.10819245 415.76378125 -308.55171502 410.27970306 -309.97900391 404.79150391 C-310.85868741 401.41117915 -311.753561 398.04940397 -312.74902344 394.70068359 C-313.99799728 390.15262746 -314.91257523 385.57471724 -315.79199219 380.94287109 C-315.96899658 380.01829102 -316.14600098 379.09371094 -316.32836914 378.14111328 C-317.44715505 372.12296205 -318.25126856 366.2327233 -318.55371094 360.11474609 C-318.5155133 358.13036478 -318.5155133 358.13036478 -319.72949219 357.13037109 C-322.16857702 336.92511282 -321.39823553 315.36252447 -320.29199219 295.06787109 C-320.25283691 294.34929932 -320.21368164 293.63072754 -320.17333984 292.89038086 C-319.86651203 288.26739094 -319.86651203 288.26739094 -318.72949219 287.13037109 C-318.44348975 285.36643984 -318.21452287 283.59318073 -318.01074219 281.81787109 C-317.883125 280.74279297 -317.75550781 279.66771484 -317.62402344 278.56005859 C-317.49382812 277.42826172 -317.36363281 276.29646484 -317.22949219 275.13037109 C-316.97300939 272.90074838 -316.71279764 270.67155036 -316.44824219 268.44287109 C-316.33416016 267.44900391 -316.22007812 266.45513672 -316.10253906 265.43115234 C-315.72949219 263.13037109 -315.72949219 263.13037109 -314.72949219 262.13037109 C-314.33199919 259.78313143 -313.98580496 257.42708561 -313.66699219 255.06787109 C-313.49039063 253.77751953 -313.31378906 252.48716797 -313.13183594 251.15771484 C-312.9990625 250.15869141 -312.86628906 249.15966797 -312.72949219 248.13037109 C-312.06949219 248.13037109 -311.40949219 248.13037109 -310.72949219 248.13037109 C-310.69210937 247.52451172 -310.65472656 246.91865234 -310.61621094 246.29443359 C-310.19948047 240.98316287 -309.32833777 236.19887008 -307.69433594 231.13427734 C-306.40260756 227.11266146 -305.22633266 223.05968513 -304.04199219 219.00537109 C-303.60078057 217.50270977 -303.15938941 216.00010114 -302.71777344 214.49755859 C-302.39164062 213.38638672 -302.06550781 212.27521484 -301.72949219 211.13037109 C-301.06949219 211.13037109 -300.40949219 211.13037109 -299.72949219 211.13037109 C-299.58511719 210.03724609 -299.44074219 208.94412109 -299.29199219 207.81787109 C-298.72949219 204.13037109 -298.72949219 204.13037109 -297.72949219 201.13037109 C-297.06949219 201.13037109 -296.40949219 201.13037109 -295.72949219 201.13037109 C-295.62636719 200.07849609 -295.52324219 199.02662109 -295.41699219 197.94287109 C-294.74123976 194.19551673 -293.7632823 192.26579752 -291.72949219 189.13037109 C-291.03369765 186.93906575 -291.03369765 186.93906575 -290.72949219 185.13037109 C-290.06949219 185.13037109 -289.40949219 185.13037109 -288.72949219 185.13037109 C-288.64828125 184.30279297 -288.56707031 183.47521484 -288.48339844 182.62255859 C-287.55876679 178.33954984 -285.7959255 175.04994652 -283.66699219 171.25537109 C-283.28994141 170.56701172 -282.91289062 169.87865234 -282.52441406 169.16943359 C-281.60056184 167.4854498 -280.66609552 165.80729642 -279.72949219 164.13037109 C-279.06949219 164.13037109 -278.40949219 164.13037109 -277.72949219 164.13037109 C-277.58511719 163.34662109 -277.44074219 162.56287109 -277.29199219 161.75537109 C-276.72949219 159.13037109 -276.72949219 159.13037109 -275.72949219 157.13037109 C-275.06949219 157.13037109 -274.40949219 157.13037109 -273.72949219 157.13037109 C-273.39949219 155.48037109 -273.06949219 153.83037109 -272.72949219 152.13037109 C-272.06949219 152.13037109 -271.40949219 152.13037109 -270.72949219 152.13037109 C-269.73949219 149.16037109 -269.73949219 149.16037109 -268.72949219 146.13037109 C-268.06949219 146.13037109 -267.40949219 146.13037109 -266.72949219 146.13037109 C-266.64699219 145.61474609 -266.56449219 145.09912109 -266.47949219 144.56787109 C-265.40808993 141.08581377 -263.59425614 138.25836224 -261.72949219 135.13037109 C-261.06949219 135.13037109 -260.40949219 135.13037109 -259.72949219 135.13037109 C-259.47167969 134.40462891 -259.21386719 133.67888672 -258.94824219 132.93115234 C-257.67706719 130.00989443 -256.18932817 127.82164461 -254.22949219 125.31787109 C-253.62105469 124.52767578 -253.01261719 123.73748047 -252.38574219 122.92333984 C-251.83917969 122.33166016 -251.29261719 121.73998047 -250.72949219 121.13037109 C-250.06949219 121.13037109 -249.40949219 121.13037109 -248.72949219 121.13037109 C-248.06949219 119.48037109 -247.40949219 117.83037109 -246.72949219 116.13037109 C-246.06949219 116.13037109 -245.40949219 116.13037109 -244.72949219 116.13037109 C-244.46652344 115.56189453 -244.20355469 114.99341797 -243.93261719 114.40771484 C-240.46270586 107.8396684 -235.51565673 102.67664323 -229.72949219 98.13037109 C-229.39949219 97.47037109 -229.06949219 96.81037109 -228.72949219 96.13037109 C-228.06949219 96.13037109 -227.40949219 96.13037109 -226.72949219 96.13037109 C-226.72949219 95.47037109 -226.72949219 94.81037109 -226.72949219 94.13037109 C-226.06949219 94.13037109 -225.40949219 94.13037109 -224.72949219 94.13037109 C-224.72949219 93.47037109 -224.72949219 92.81037109 -224.72949219 92.13037109 C-223.29314999 90.89444874 -221.85044713 89.66481406 -220.37011719 88.48193359 C-218.5365703 87.01557765 -218.5365703 87.01557765 -216.29199219 84.69287109 C-214.25455797 82.65543687 -212.20278204 80.71972332 -210.04199219 78.81787109 C-209.460625 78.30611328 -208.87925781 77.79435547 -208.28027344 77.26708984 C-206.72949219 76.13037109 -206.72949219 76.13037109 -204.72949219 76.13037109 C-204.23449219 74.64537109 -204.23449219 74.64537109 -203.72949219 73.13037109 C-201.84876315 71.5597774 -199.90028565 70.06927808 -197.91699219 68.63037109 C-196.32951172 67.47021484 -196.32951172 67.47021484 -194.70996094 66.28662109 C-193.23462891 65.21927734 -193.23462891 65.21927734 -191.72949219 64.13037109 C-190.60994141 63.24865234 -190.60994141 63.24865234 -189.46777344 62.34912109 C-187.72949219 61.13037109 -187.72949219 61.13037109 -185.72949219 61.13037109 C-185.72949219 60.47037109 -185.72949219 59.81037109 -185.72949219 59.13037109 C-184.089709 58.0868727 -182.41484242 57.09855102 -180.72949219 56.13037109 C-179.55740151 55.2626502 -178.39095373 54.38726859 -177.22949219 53.50537109 C-174.4405496 51.47316566 -172.23412102 50.44897371 -168.72949219 50.13037109 C-168.72949219 49.47037109 -168.72949219 48.81037109 -168.72949219 48.13037109 C-167.29654721 47.28922939 -165.85794814 46.45771422 -164.41699219 45.63037109 C-163.61648437 45.16630859 -162.81597656 44.70224609 -161.99121094 44.22412109 C-159.72949219 43.13037109 -159.72949219 43.13037109 -156.72949219 43.13037109 C-156.72949219 42.47037109 -156.72949219 41.81037109 -156.72949219 41.13037109 C-154.3378505 39.80970355 -151.94169003 38.49875318 -149.54199219 37.19287109 C-148.86845703 36.8196875 -148.19492188 36.44650391 -147.50097656 36.06201172 C-143.92328461 34.12482242 -140.83085768 32.63209153 -136.72949219 32.13037109 C-136.72949219 31.47037109 -136.72949219 30.81037109 -136.72949219 30.13037109 C-134.64949208 29.28875255 -132.56535073 28.45736347 -130.47949219 27.63037109 C-129.31933594 27.16630859 -128.15917969 26.70224609 -126.96386719 26.22412109 C-123.72949219 25.13037109 -123.72949219 25.13037109 -119.72949219 25.13037109 C-119.72949219 24.47037109 -119.72949219 23.81037109 -119.72949219 23.13037109 C-116.10975817 21.81410418 -113.63382088 21.13037109 -109.72949219 21.13037109 C-109.72949219 20.47037109 -109.72949219 19.81037109 -109.72949219 19.13037109 C-101.94595361 16.40165929 -94.1606432 13.85760441 -86.16699219 11.81787109 C-85.5134375 11.64674805 -84.85988281 11.475625 -84.18652344 11.29931641 C-80.28927857 10.33502897 -76.73852173 9.96358558 -72.72949219 10.13037109 C-72.72949219 9.47037109 -72.72949219 8.81037109 -72.72949219 8.13037109 C-69.75143941 7.47901672 -66.7722096 6.8341837 -63.79199219 6.19287109 C-62.54579102 5.91926758 -62.54579102 5.91926758 -61.27441406 5.64013672 C-53.56822054 3.99095134 -46.06261715 2.97711678 -38.16699219 3.06787109 C-37.13445312 3.07689453 -36.10191406 3.08591797 -35.03808594 3.09521484 C-33.89533203 3.11261719 -33.89533203 3.11261719 -32.72949219 3.13037109 C-32.72949219 2.47037109 -32.72949219 1.81037109 -32.72949219 1.13037109 C-21.80967435 0.37185843 -10.94623959 -0.03062874 0 0 Z " fill="#A2AAB8" transform="translate(358.7294921875,37.86962890625)"/>
<path d="M0 0 C8.79466545 -0.04773454 17.47726315 0.24298562 26.25 0.875 C28.07144531 0.99294922 28.07144531 0.99294922 29.9296875 1.11328125 C36.21187615 1.55809853 41.93449792 2.34334304 48 4 C50.16075374 4.26266043 52.32838216 4.47693515 54.5 4.625 C55.5415625 4.69976562 56.583125 4.77453125 57.65625 4.8515625 C58.4296875 4.90054688 59.203125 4.94953125 60 5 C59.3409813 11.1652123 58.58516916 17.30260081 57.6875 23.4375 C57.58244141 24.19998047 57.47738281 24.96246094 57.36914062 25.74804688 C56.65333043 30.62572621 55.69133925 35.39673845 54.56095886 40.19192505 C52.15939482 50.43890045 50.85631269 60.5940957 49.875 71.0625 C49.5668885 74.26243967 49.25200015 77.4616158 48.9296875 80.66015625 C48.8161644 81.79006233 48.8161644 81.79006233 48.7003479 82.9427948 C48.23311708 87.38167424 47.53625874 91.6383198 46.45068359 95.9621582 C45.53454892 100.10461545 45.25266702 104.34315449 44.875 108.5625 C44.78863281 109.47580078 44.70226562 110.38910156 44.61328125 111.33007812 C44.40379445 113.55296584 44.19945316 115.77619349 44 118 C43.34 118 42.68 118 42 118 C41.95029053 118.72123047 41.90058105 119.44246094 41.84936523 120.18554688 C41.28377732 127.70090975 40.30409066 135.06891835 39.0625 142.5 C38.80823242 144.05654297 38.80823242 144.05654297 38.54882812 145.64453125 C38.03798799 148.76395807 37.52016015 151.88211308 37 155 C36.34 158.96 35.68 162.92 35 167 C23.12 167 11.24 167 -1 167 C-1.02797562 155.10414593 -1.05128243 143.20837078 -1.0625 131.3125 C-1.06335602 130.41132698 -1.06421204 129.51015396 -1.06509399 128.58167267 C-1.09051699 98.17636149 -0.88440745 67.77781968 -0.5 37.375 C-0.48804218 36.42877903 -0.47608437 35.48255806 -0.46376419 34.50766373 C-0.31763703 23.00499038 -0.16323526 11.50244321 0 0 Z " fill="#A81213" transform="translate(370,168)"/>
<path d="M0 0 C1.25159912 0.00523682 2.50319824 0.01047363 3.79272461 0.01586914 C4.78942421 0.01799156 4.78942421 0.01799156 5.80625916 0.02015686 C7.93590735 0.02577021 10.06545175 0.03832485 12.19506836 0.05102539 C13.63582205 0.05603868 15.07657739 0.06060188 16.51733398 0.06469727 C20.05577938 0.07574394 23.59416375 0.09301747 27.13256836 0.11352539 C27.13256836 1.43352539 27.13256836 2.75352539 27.13256836 4.11352539 C26.47256836 4.11352539 25.81256836 4.11352539 25.13256836 4.11352539 C24.76131836 5.78415039 24.76131836 5.78415039 24.38256836 7.48852539 C23.11226528 12.56973771 21.13683913 17.28571988 19.13256836 22.11352539 C18.46491585 23.82147368 17.79823641 25.52980269 17.13256836 27.23852539 C14.99914967 32.56792149 12.51790921 37.65614965 9.69897461 42.65649414 C8.98547852 43.96553711 8.98547852 43.96553711 8.25756836 45.30102539 C7.80639648 46.09895508 7.35522461 46.89688477 6.89038086 47.71899414 C5.88790066 50.12575999 5.88790066 50.12575999 6.83959961 52.62915039 C8.48125294 55.78350543 10.21836068 58.85982263 12.01147461 61.92993164 C13.13256836 64.11352539 13.13256836 64.11352539 13.65991211 66.32836914 C13.81588867 66.9174707 13.97186523 67.50657227 14.13256836 68.11352539 C14.79256836 68.44352539 15.45256836 68.77352539 16.13256836 69.11352539 C16.75756836 72.17602539 16.75756836 72.17602539 17.13256836 75.11352539 C17.79256836 75.11352539 18.45256836 75.11352539 19.13256836 75.11352539 C21.5027287 79.14279797 23.3811534 82.73498799 25.13256836 87.11352539 C27.11256836 90.74352539 29.09256836 94.37352539 31.13256836 98.11352539 C19.58256836 98.11352539 8.03256836 98.11352539 -3.86743164 98.11352539 C-5.84743164 91.67852539 -5.84743164 91.67852539 -7.86743164 85.11352539 C-9.65017556 82.08907906 -9.65017556 82.08907906 -11.57055664 79.15258789 C-13.68522306 75.82772081 -15.17447458 72.23101705 -16.75415039 68.62915039 C-17.72826461 66.42799406 -18.79095705 64.26647457 -19.86743164 62.11352539 C-23.82743164 61.78352539 -27.78743164 61.45352539 -31.86743164 61.11352539 C-31.86743164 73.32352539 -31.86743164 85.53352539 -31.86743164 98.11352539 C-41.43743164 98.11352539 -51.00743164 98.11352539 -60.86743164 98.11352539 C-60.86743164 66.10352539 -60.86743164 34.09352539 -60.86743164 1.11352539 C-51.62743164 1.11352539 -42.38743164 1.11352539 -32.86743164 1.11352539 C-32.86743164 12.33352539 -32.86743164 23.55352539 -32.86743164 35.11352539 C-20.50026829 35.38918034 -20.50026829 35.38918034 -14.86743164 30.11352539 C-13.43631933 27.34562543 -13.43631933 27.34562543 -12.55493164 24.36352539 C-12.22879883 23.37868164 -11.90266602 22.39383789 -11.56665039 21.37915039 C-11.22053711 20.25766602 -11.22053711 20.25766602 -10.86743164 19.11352539 C-10.20743164 19.11352539 -9.54743164 19.11352539 -8.86743164 19.11352539 C-8.86743164 17.79352539 -8.86743164 16.47352539 -8.86743164 15.11352539 C-8.20743164 15.11352539 -7.54743164 15.11352539 -6.86743164 15.11352539 C-6.81844727 14.5218457 -6.76946289 13.93016602 -6.71899414 13.32055664 C-5.4791728 0.21692766 -5.4791728 0.21692766 0 0 Z " fill="#FCFCFC" transform="translate(326.867431640625,420.886474609375)"/>
<path d="M0 0 C12.931875 -0.061875 12.931875 -0.061875 26.125 -0.125 C28.83734863 -0.14320801 31.54969727 -0.16141602 34.34423828 -0.18017578 C36.50292768 -0.18601904 38.66161928 -0.19111499 40.8203125 -0.1953125 C41.93398193 -0.20554443 43.04765137 -0.21577637 44.19506836 -0.22631836 C56.17417632 -0.2290109 64.09965638 4.11683851 73 12 C80.44691134 19.67257532 81.61768408 28.63108568 81.54467773 38.87597656 C81.23151259 47.31723866 78.99087618 54.17832488 73.75 60.875 C58.46426723 72.68670259 47.13575931 73.4424453 28 73 C28 80.92 28 88.84 28 97 C18.76 97 9.52 97 0 97 C0 64.99 0 32.98 0 0 Z " fill="#FCFDFD" transform="translate(270,293)"/>
<path d="M0 0 C3.97267875 1.04080521 7.52097113 2.93872047 11.0390625 5.01953125 C16.72643926 8.22009968 22.36870236 10.74936349 28.515625 12.98046875 C32.98078695 14.70588262 37.26931635 16.75027793 41.56445312 18.85961914 C45.58530615 20.80108206 49.56579629 22.05439048 53.8515625 23.26953125 C56.1171875 24.41796875 56.1171875 24.41796875 58.1015625 25.64453125 C62.33991396 28.10480718 66.64590679 29.78513199 71.2734375 31.375 C73.83462402 32.26365411 76.34206115 33.24496865 78.8515625 34.26953125 C78.8515625 34.92953125 78.8515625 35.58953125 78.8515625 36.26953125 C79.5115625 36.37265625 80.1715625 36.47578125 80.8515625 36.58203125 C84.68997259 37.46166689 88.18252941 38.83923021 91.8515625 40.26953125 C91.28984881 43.82448639 90.1945604 45.1678951 87.4140625 47.39453125 C84.84696211 49.48573424 82.63547594 51.51653751 80.44921875 54.015625 C74.18047918 61.15584811 74.18047918 61.15584811 70.203125 61.49609375 C67.62653063 60.96220483 65.3196473 60.17316875 62.8515625 59.26953125 C59.99296248 58.32823029 59.99296248 58.32823029 56.8515625 58.26953125 C54.23098328 59.95811923 54.23098328 59.95811923 51.9609375 62.546875 C51.08695312 63.45244141 50.21296875 64.35800781 49.3125 65.29101562 C48.41789062 66.25330078 47.52328125 67.21558594 46.6015625 68.20703125 C44.81212704 70.09844054 43.01225746 71.97921389 41.2109375 73.859375 C40.42170898 74.70363037 39.63248047 75.54788574 38.81933594 76.41772461 C36.8515625 78.26953125 36.8515625 78.26953125 34.8515625 78.26953125 C34.8515625 79.58953125 34.8515625 80.90953125 34.8515625 82.26953125 C35.5115625 82.26953125 36.1715625 82.26953125 36.8515625 82.26953125 C37.35914112 83.68350027 37.85731175 85.10084854 38.3515625 86.51953125 C38.63 87.3084375 38.9084375 88.09734375 39.1953125 88.91015625 C39.8515625 91.26953125 39.8515625 91.26953125 39.8515625 95.26953125 C38.453125 96.83984375 38.453125 96.83984375 36.4765625 98.39453125 C31.98871872 102.06640344 28.0402897 106.12567576 24.05078125 110.328125 C21.8515625 112.26953125 21.8515625 112.26953125 18.8515625 112.26953125 C18.5215625 110.61953125 18.1915625 108.96953125 17.8515625 107.26953125 C17.1915625 107.26953125 16.5315625 107.26953125 15.8515625 107.26953125 C13.39033128 102.81587476 11.92434374 98.41857413 10.59765625 93.5390625 C9.88475824 91.02996016 9.88475824 91.02996016 7.8515625 88.26953125 C7.8515625 87.27953125 7.8515625 86.28953125 7.8515625 85.26953125 C7.1915625 85.26953125 6.5315625 85.26953125 5.8515625 85.26953125 C3.66688925 80.67839051 1.75378105 76.18183258 0.4140625 71.26953125 C-0.81758584 66.93868084 -2.61357955 63.36266776 -4.88671875 59.4921875 C-6.93597424 55.88219872 -8.52857979 52.08676116 -10.1484375 48.26953125 C-10.6434375 47.11453125 -11.1384375 45.95953125 -11.6484375 44.76953125 C-12.1434375 43.61453125 -12.6384375 42.45953125 -13.1484375 41.26953125 C-15.3609986 36.16860586 -17.64748657 31.16967658 -20.31640625 26.2890625 C-21.44749164 23.54365807 -21.93615966 21.24188051 -22.1484375 18.26953125 C-19.94735451 14.60689567 -16.75619753 11.81114133 -13.7109375 8.83203125 C-12.91494141 7.99220703 -12.11894531 7.15238281 -11.29882812 6.28710938 C-4.59923533 -0.39064286 -4.59923533 -0.39064286 0 0 Z " fill="#FCFCFC" transform="translate(375.1484375,452.73046875)"/>
<path d="M0 0 C0 0.66 0 1.32 0 2 C1.216875 2.103125 2.43375 2.20625 3.6875 2.3125 C10.85648938 3.25578808 15.44149519 7.60822011 20 13 C20.495 14.485 20.495 14.485 21 16 C21.66 16.33 22.32 16.66 23 17 C24.71843312 22.53717339 25 25.94748969 25 32 C16.42 32 7.84 32 -1 32 C-1.66 29.69 -2.32 27.38 -3 25 C-6.67920392 21.4357712 -10.73460208 21.6465214 -15.59765625 21.6015625 C-18.51894443 22.08606883 -19.89961808 22.92825966 -22 25 C-22.62379237 29.68646259 -22.62379237 29.68646259 -20.6875 33.8125 C-16.6989074 36.61928738 -13.18803954 37.83925868 -8.5 38.9375 C-7.78239502 39.11514893 -7.06479004 39.29279785 -6.32543945 39.47583008 C-3.18677604 40.25267826 -0.06060102 40.98813832 3.11328125 41.609375 C10.89555102 43.27619978 16.54653071 47.22411276 22 53 C23.91893504 56.28783051 25 58.18409044 25 62 C25.66 62 26.32 62 27 62 C27.05413245 64.89608593 27.09373641 67.79115195 27.125 70.6875 C27.14175781 71.50412109 27.15851563 72.32074219 27.17578125 73.16210938 C27.24438677 81.63489126 24.69804277 85.95526572 19 92.1875 C15.55106835 95.31309431 13.71894367 96 9 96 C9 96.66 9 97.32 9 98 C8.01 98 7.02 98 6 98 C6 98.66 6 99.32 6 100 C-8.76533497 103.26541062 -24.39457584 102.40100843 -37.4140625 94.54296875 C-41.66668527 91.61252506 -44.56964851 88.55690904 -47 84 C-47 83.01 -47 82.02 -47 81 C-47.66 81 -48.32 81 -49 81 C-49.34019152 79.60582227 -49.67181779 78.20955342 -50 76.8125 C-50.185625 76.03519531 -50.37125 75.25789063 -50.5625 74.45703125 C-51 72 -51 72 -51 67 C-41.76 67 -32.52 67 -23 67 C-22.01 69.97 -21.02 72.94 -20 76 C-16.63000798 78.24666134 -15.43894538 78.2457371 -11.5 78.1875 C-10.5409375 78.18105469 -9.581875 78.17460937 -8.59375 78.16796875 C-5.88502233 78.10292931 -5.88502233 78.10292931 -3 77 C-2.67 76.34 -2.34 75.68 -2 75 C-1.34 75 -0.68 75 0 75 C-0.16185863 70.87260498 -0.57425952 68.55095827 -3.125 65.25 C-7.0080573 62.3705348 -11.5886507 61.9037951 -16.25512695 61.08618164 C-27.11686223 59.1668977 -38.53485622 54.39434944 -46 46 C-50.75977995 38.2873936 -50.84051801 29.80542682 -50 21 C-48.97975132 16.80870814 -46.9276105 13.18218532 -44 10 C-43.34 10 -42.68 10 -42 10 C-41.67 9.01 -41.34 8.02 -41 7 C-39.34795544 6.29788106 -37.68076231 5.63028587 -36 5 C-35.67 4.34 -35.34 3.68 -35 3 C-23.71130207 -0.96925185 -11.77311648 -0.32862263 0 0 Z " fill="#FCFCFC" transform="translate(320,162)"/>
<path d="M0 0 C4.29 0 8.58 0 13 0 C13.21685146 8.8909099 12.45297749 17.23024303 11 26 C10.34 26 9.68 26 9 26 C9.02320313 26.65742188 9.04640625 27.31484375 9.0703125 27.9921875 C9.34069066 42.24497883 7.33553195 56.16866086 4 70 C3.34 70 2.68 70 2 70 C1.95101562 70.91136719 1.90203125 71.82273437 1.8515625 72.76171875 C1.5967618 77.17679979 1.30600934 81.58821968 1 86 C0.91927246 87.21187988 0.91927246 87.21187988 0.83691406 88.44824219 C0.04234106 99.85507832 -1.64896997 110.72549541 -4.24414062 121.86279297 C-5.74437016 128.41447105 -6.62703783 134.62598848 -6.859375 141.35546875 C-7 144 -7 144 -8 148 C-18.89 148 -29.78 148 -41 148 C-41 146.35 -41 144.7 -41 143 C-34.73 143 -28.46 143 -22 143 C-22 140.03 -22 137.06 -22 134 C-21.65494418 131.63427637 -21.23729423 129.27806748 -20.75 126.9375 C-20.47526603 125.57213488 -20.20332806 124.20620536 -19.93359375 122.83984375 C-19.78519043 122.08815918 -19.63678711 121.33647461 -19.48388672 120.56201172 C-18.50700809 115.38977946 -17.66879519 110.19330014 -16.8125 105 C-16.63364258 103.918396 -16.45478516 102.83679199 -16.27050781 101.72241211 C-15.84562877 99.14849816 -15.42207623 96.5743748 -15 94 C-14.34 94 -13.68 94 -13 94 C-13.02320313 93.46375 -13.04640625 92.9275 -13.0703125 92.375 C-13.30194515 82.3155249 -11.77362959 72.40008698 -10.04296875 62.515625 C-9.2373964 57.74582809 -8.62079024 52.97267855 -8.10546875 48.1640625 C-8.03177063 47.4779187 -7.95807251 46.7917749 -7.88214111 46.08483887 C-7.72961636 44.66184902 -7.57713084 43.23885498 -7.42468262 41.81585693 C-5.88641157 27.6068401 -3.6479241 13.84417095 0 0 Z " fill="#7D8598" transform="translate(427,192)"/>
<path d="M0 0 C4.83092224 2.47739602 4.83092224 2.47739602 5.6875 5.125 C5.790625 5.74375 5.89375 6.3625 6 7 C6.99 7.495 6.99 7.495 8 8 C10.75253855 12.52836987 11.49961709 16.30712767 11.8125 21.5625 C11.90144531 22.84253906 11.99039063 24.12257813 12.08203125 25.44140625 C12.00199442 28.91348007 11.48616988 30.91333948 10 34 C9.71125 34.94875 9.4225 35.8975 9.125 36.875 C6.25345259 44.85152059 1.63365922 52.0014166 -6 56 C-7.051875 56.680625 -8.10375 57.36125 -9.1875 58.0625 C-14.68547938 61.15879246 -20.6841783 61.72658815 -26.87109375 62.45703125 C-27.87849609 62.57763916 -27.87849609 62.57763916 -28.90625 62.70068359 C-30.86160007 62.92865109 -32.8194681 63.13469503 -34.77734375 63.33984375 C-37.90495261 63.78384622 -37.90495261 63.78384622 -39.9140625 65.203125 C-41.45587574 67.75432676 -41.37415623 69.85024744 -41.4375 72.8125 C-41.82178586 79.43342515 -43.32761523 82.32761523 -48 87 C-50.15478516 87.22705078 -50.15478516 87.22705078 -52.7890625 87.1953125 C-53.73007812 87.18886719 -54.67109375 87.18242187 -55.640625 87.17578125 C-56.62546875 87.15902344 -57.6103125 87.14226562 -58.625 87.125 C-60.11386719 87.11146484 -60.11386719 87.11146484 -61.6328125 87.09765625 C-64.08878134 87.07404116 -66.54427168 87.04110799 -69 87 C-69 86.01 -69 85.02 -69 84 C-70.32 83.67 -71.64 83.34 -73 83 C-73 81.68 -73 80.36 -73 79 C-65.41 79 -57.82 79 -50 79 C-50 71.08 -50 63.16 -50 55 C-47.339375 54.938125 -44.67875 54.87625 -41.9375 54.8125 C-28.94593487 54.22428757 -16.93610582 50.82744559 -7 42 C-6.34 41.01 -5.68 40.02 -5 39 C-4.34 39 -3.68 39 -3 39 C-2.79503906 38.38511719 -2.59007812 37.77023437 -2.37890625 37.13671875 C-1.25260417 33.7578125 -0.12630208 30.37890625 1 27 C1.09167116 25.61299803 1.1306629 24.22205767 1.1328125 22.83203125 C1.13410156 22.02056641 1.13539063 21.20910156 1.13671875 20.37304688 C1.13285156 19.52806641 1.12898438 18.68308594 1.125 17.8125 C1.12886719 16.98685547 1.13273437 16.16121094 1.13671875 15.31054688 C1.12853631 10.11878727 0.74670764 5.13805969 0 0 Z " fill="#71767E" transform="translate(349,312)"/>
<path d="M0 0 C11.22 0 22.44 0 34 0 C34.28811525 19.30372149 34.28811525 19.30372149 32 28 C24.23513846 28.12925479 16.60676695 27.76493501 8.875 27.0625 C7.83601563 26.97548828 6.79703125 26.88847656 5.7265625 26.79882812 C-1.87256035 26.12743965 -1.87256035 26.12743965 -3 25 C-3.07244053 22.98035801 -3.08377188 20.95832876 -3.0625 18.9375 C-3.05347656 17.83277344 -3.04445313 16.72804688 -3.03515625 15.58984375 C-3.02355469 14.73519531 -3.01195312 13.88054687 -3 13 C-2.34 13 -1.68 13 -1 13 C-0.67 8.71 -0.34 4.42 0 0 Z " fill="#A81414" transform="translate(369,361)"/>
<path d="M0 0 C4.92083131 0.60564078 9.4783476 1.59535774 14.25 3 C15.45140625 3.350625 16.6528125 3.70125 17.890625 4.0625 C19.93608748 4.67922236 21.97322006 5.32440669 24 6 C24 6.66 24 7.32 24 8 C26.31 8.33 28.62 8.66 31 9 C31 9.66 31 10.32 31 11 C32.11375 11.226875 33.2275 11.45375 34.375 11.6875 C38.73176393 12.76902062 42.4281781 14.61788978 46.390625 16.69140625 C50.48093645 18.74268519 54.72688939 20.37258128 59 22 C59 22.66 59 23.32 59 24 C61.31 24.66 63.62 25.32 66 26 C66 26.66 66 27.32 66 28 C66.9075 28.04125 67.815 28.0825 68.75 28.125 C73.63361581 28.80712448 77.66118042 31.17814203 81.984375 33.4375 C85.35358679 35.18320559 88.77859292 36.72807055 92.2578125 38.23828125 C93.52105956 38.79059779 94.76684253 39.38342126 96 40 C95.20383026 46.17399527 91.64276726 49.02026988 87.375 53.25 C86.67503906 53.9821875 85.97507812 54.714375 85.25390625 55.46875 C80.92696684 59.80371713 78.21521138 61.96737422 72 62 C71.01 59.525 71.01 59.525 70 57 C70.433125 56.608125 70.86625 56.21625 71.3125 55.8125 C73.10227699 54.04243467 73.10227699 54.04243467 74.25 51.6875 C76.27163145 48.5828517 78.57756963 46.69261442 81.4765625 44.4296875 C83.27420352 42.96967049 83.27420352 42.96967049 84 40 C82.96875 39.896875 81.9375 39.79375 80.875 39.6875 C77.04916055 39.00872203 74.36629975 37.88841205 71 36 C71 35.34 71 34.68 71 34 C70.28070313 33.86980469 69.56140625 33.73960937 68.8203125 33.60546875 C60.77579377 31.87845988 53.7289586 28.40433207 46.6171875 24.375 C43.57811757 22.77835431 40.5712523 21.76229458 37.296875 20.76953125 C33.71863884 19.57070043 30.36772887 17.91402119 26.953125 16.31640625 C23.84215145 14.92963629 20.69563201 13.74003739 17.5 12.5625 C11.33512583 10.24421199 5.68294588 7.31410271 0 4 C0 2.68 0 1.36 0 0 Z " fill="#828790" transform="translate(383,453)"/>
<path d="M0 0 C5 4 5 4 5.8125 6.75 C5.874375 7.4925 5.93625 8.235 6 9 C6.99 9 7.98 9 9 9 C9.66 9.33 10.32 9.66 11 10 C11.08121924 11.60332791 11.13929134 13.20784026 11.1875 14.8125 C11.23970703 16.15248047 11.23970703 16.15248047 11.29296875 17.51953125 C11 20 11 20 9.83837891 21.61425781 C5.87170617 24.60427567 -0.02792924 23.78770269 -4.8125 23.9375 C-6.64796387 24.00094604 -6.64796387 24.00094604 -8.52050781 24.06567383 C-17.52034211 24.24942942 -24.60320886 23.31884343 -33 20 C-34.21429688 19.65582031 -35.42859375 19.31164062 -36.6796875 18.95703125 C-39.91233515 18.0252681 -42.26138889 16.93313725 -45 15 C-46.56430248 11.87139505 -46.35627284 9.44397075 -46 6 C-43.825981 3.17377529 -42.17567777 2.18975165 -38.65234375 1.62109375 C-34.32665906 1.418837 -31.43848483 1.80768209 -27.4375 3.5625 C-25 6 -25 6 -24 13 C-15.42 13 -6.84 13 2 13 C1.01 6.565 1.01 6.565 0 0 Z " fill="#A9AFB9" transform="translate(343,181)"/>
<path d="M0 0 C3.0664762 1.167552 4.62467023 2.53836883 6.71875 5.03515625 C3.09366922 9.6399886 -0.48822144 12.98827716 -5.21875 16.47265625 C-9.00412807 19.25686219 -9.00412807 19.25686219 -10.80078125 23.3515625 C-10.49161072 25.85629184 -10.13360209 28.18280416 -8.28125 30.03515625 C-7.42089837 34.16335972 -7.40415062 37.65556768 -9.70458984 41.27392578 C-11.69370429 43.51340398 -13.77407641 45.55960862 -15.96875 47.59765625 C-16.68998047 48.32017578 -17.41121094 49.04269531 -18.15429688 49.78710938 C-23.53506998 54.98115246 -23.53506998 54.98115246 -27.03051758 55.23413086 C-27.77325928 55.16846924 -28.51600098 55.10280762 -29.28125 55.03515625 C-30.46875 52.34765625 -30.46875 52.34765625 -31.28125 49.03515625 C-29.45949846 44.48077741 -25.84635783 41.29685064 -22.28125 38.03515625 C-21.62125 38.03515625 -20.96125 38.03515625 -20.28125 38.03515625 C-21.27125 33.74515625 -22.26125 29.45515625 -23.28125 25.03515625 C-23.94125 25.03515625 -24.60125 25.03515625 -25.28125 25.03515625 C-25.28125 21.03515625 -25.28125 21.03515625 -24.0234375 19.60546875 C-23.40726562 19.12851562 -22.79109375 18.6515625 -22.15625 18.16015625 C-19.17578336 15.74384937 -16.4661675 13.22710099 -13.84375 10.43359375 C-13.2367627 9.79405762 -12.62977539 9.15452148 -12.00439453 8.49560547 C-10.78322041 7.20022526 -9.57547618 5.89203677 -8.38232422 4.57080078 C-4.06187983 0.04352014 -4.06187983 0.04352014 0 0 Z " fill="#70757E" transform="translate(435.28125,509.96484375)"/>
<path d="M0 0 C19.38531024 -0.34310284 19.38531024 -0.34310284 23.91796875 3.71875 C25.36147023 6.76208887 25.36256563 9.14175133 25.3125 12.5 C25.30863281 13.6240625 25.30476563 14.748125 25.30078125 15.90625 C24.83525105 20.69456067 24.83525105 20.69456067 23 23 C17.75296202 25.94442863 13.48842017 26.39726161 7.5625 26.1875 C5.066875 26.125625 2.57125 26.06375 0 26 C0 17.42 0 8.84 0 0 Z " fill="#6F6E77" transform="translate(297,317)"/>
<path d="M0 0 C2.44755579 4.89511158 3.18259994 8.30973469 3.1875 13.8125 C3.19974609 14.52470703 3.21199219 15.23691406 3.22460938 15.97070312 C3.24937074 24.89304826 -0.28541226 29.10099465 -6.1953125 35.46484375 C-10.09896883 38.99335762 -13.96089299 40.67391921 -19 42 C-19.59321045 42.17362061 -20.1864209 42.34724121 -20.79760742 42.52612305 C-25.41664965 43.51997749 -30.23243094 43.18471429 -34.9375 43.1875 C-36.56461914 43.20586914 -36.56461914 43.20586914 -38.22460938 43.22460938 C-39.27326172 43.22654297 -40.32191406 43.22847656 -41.40234375 43.23046875 C-42.35616943 43.23457764 -43.30999512 43.23868652 -44.29272461 43.24291992 C-48.91833474 42.82787059 -51.89709799 41.38498401 -55 38 C-55.99 37.34 -56.98 36.68 -58 36 C-46.78 36 -35.56 36 -24 36 C-24 35.34 -24 34.68 -24 34 C-23.01 34 -22.02 34 -21 34 C-21 33.34 -21 32.68 -21 32 C-20.32453125 31.78085937 -19.6490625 31.56171875 -18.953125 31.3359375 C-12.91924717 29.19094625 -9.97384743 27.69987424 -7 22 C-6.34 21.34 -5.68 20.68 -5 20 C-2.54763369 13.79281447 -1.62859896 7.60028912 -1 1 C-0.67 0.67 -0.34 0.34 0 0 Z " fill="#6D727B" transform="translate(350,226)"/>
<path d="M0 0 C4.83092224 2.47739602 4.83092224 2.47739602 5.6875 5.125 C5.790625 5.74375 5.89375 6.3625 6 7 C6.99 7.495 6.99 7.495 8 8 C10.75253855 12.52836987 11.49961709 16.30712767 11.8125 21.5625 C11.90144531 22.84253906 11.99039063 24.12257813 12.08203125 25.44140625 C12.00199442 28.91348007 11.48616988 30.91333948 10 34 C9.71125 34.94875 9.4225 35.8975 9.125 36.875 C6.25345259 44.85152059 1.63365922 52.0014166 -6 56 C-7.051875 56.680625 -8.10375 57.36125 -9.1875 58.0625 C-14.68547938 61.15879246 -20.6841783 61.72658815 -26.87109375 62.45703125 C-27.87849609 62.57763916 -27.87849609 62.57763916 -28.90625 62.70068359 C-30.86160007 62.92865109 -32.8194681 63.13469503 -34.77734375 63.33984375 C-37.90495261 63.78384622 -37.90495261 63.78384622 -39.9140625 65.203125 C-41.45587574 67.75432676 -41.37415623 69.85024744 -41.4375 72.8125 C-41.82178586 79.43342515 -43.32761523 82.32761523 -48 87 C-50.15478516 87.22705078 -50.15478516 87.22705078 -52.7890625 87.1953125 C-53.73007812 87.18886719 -54.67109375 87.18242187 -55.640625 87.17578125 C-56.62546875 87.15902344 -57.6103125 87.14226562 -58.625 87.125 C-60.11386719 87.11146484 -60.11386719 87.11146484 -61.6328125 87.09765625 C-64.08878134 87.07404116 -66.54427168 87.04110799 -69 87 C-69 86.01 -69 85.02 -69 84 C-70.32 83.67 -71.64 83.34 -73 83 C-73 81.68 -73 80.36 -73 79 C-72.34 79 -71.68 79 -71 79 C-71 79.99 -71 80.98 -71 82 C-67.56265937 82.08703823 -64.12560163 82.14040272 -60.6875 82.1875 C-59.71103516 82.21263672 -58.73457031 82.23777344 -57.72851562 82.26367188 C-56.32182617 82.27817383 -56.32182617 82.27817383 -54.88671875 82.29296875 C-54.02264404 82.3086792 -53.15856934 82.32438965 -52.26831055 82.34057617 C-49.9504488 82.16812086 -49.9504488 82.16812086 -48.2199707 80.72802734 C-45.76908798 77.25647483 -46.52053951 72.2141674 -46.47265625 68.07226562 C-46.41312433 66.04292755 -46.2153343 64.01875908 -46 62 C-41.20819017 58.80546012 -36.66112885 58.87687226 -31 58.625 C-17.70852811 57.76234018 -7.47029365 55.73014129 1.74414062 45.6328125 C7.96252507 37.54794563 7.85878231 25.70424007 7 16 C6.52567184 13.49570812 5.90945375 11.38731609 5 9 C4.34 9 3.68 9 3 9 C3 13.62 3 18.24 3 23 C2.67 23 2.34 23 2 23 C1.93941406 22.01 1.87882812 21.02 1.81640625 20 C1.39539534 13.30533362 0.94925871 6.64481097 0 0 Z " fill="#878E99" transform="translate(349,312)"/>
<path d="M0 0 C11.55 0 23.1 0 35 0 C35.495 2.475 35.495 2.475 36 5 C40.29 5 44.58 5 49 5 C48.34 13.58 47.68 22.16 47 31 C25.57142857 31.28571429 25.57142857 31.28571429 17 29 C21 28 21 28 32 29 C32.66 19.76 33.32 10.52 34 1 C22.78 1 11.56 1 0 1 C0 0.67 0 0.34 0 0 Z " fill="#847F8F" transform="translate(369,360)"/>
<path d="M0 0 C3.96 0 7.92 0 12 0 C12.495 3.465 12.495 3.465 13 7 C11.02 7.66 9.04 8.32 7 9 C6.98541748 9.98919434 6.97083496 10.97838867 6.95581055 11.99755859 C6.8979103 15.66182919 6.82067848 19.32547985 6.73754883 22.98925781 C6.7042602 24.57606965 6.67624053 26.16300103 6.65356445 27.75 C6.62008922 30.02916484 6.5677814 32.30723041 6.51171875 34.5859375 C6.50213387 35.65320572 6.50213387 35.65320572 6.49235535 36.74203491 C6.43237305 38.74365234 6.43237305 38.74365234 6 42 C2.68429699 44.21046868 1.60885231 44.25630672 -2.25390625 44.265625 C-3.78241211 44.26949219 -3.78241211 44.26949219 -5.34179688 44.2734375 C-6.40462891 44.26570312 -7.46746094 44.25796875 -8.5625 44.25 C-9.62919922 44.25773438 -10.69589844 44.26546875 -11.79492188 44.2734375 C-13.32149414 44.26957031 -13.32149414 44.26957031 -14.87890625 44.265625 C-15.8129126 44.26336914 -16.74691895 44.26111328 -17.70922852 44.25878906 C-20 44 -20 44 -22 42 C-22 40.68 -22 39.36 -22 38 C-11.605 37.505 -11.605 37.505 -1 37 C-0.67 24.79 -0.34 12.58 0 0 Z " fill="#6C727B" transform="translate(295,482)"/>
<path d="M0 0 C-0.38052849 5.70792735 -2.22609065 10.02729413 -4.671875 15.171875 C-7.04833669 20.23234048 -9.01895713 25.45820712 -11.03125 30.671875 C-13.71046547 37.53229038 -13.71046547 37.53229038 -15.625 40.625 C-17.55467588 43.95807653 -18.17243086 47.24410929 -19 51 C-19.33 50.34 -19.66 49.68 -20 49 C-20.66 49 -21.32 49 -22 49 C-24.25 46.375 -24.25 46.375 -26 43 C-25.23717463 38.20509766 -22.47994659 33.86989489 -20.2890625 29.55859375 C-16.62035721 22.27676962 -13.92565881 14.94037359 -11.5390625 7.13671875 C-8.97143208 1.90370548 -5.76593867 0 0 0 Z " fill="#757A83" transform="translate(358,430)"/>
<path d="M0 0 C4.875 0.875 4.875 0.875 6 2 C7.51566447 2.29840567 9.03794783 2.56345102 10.5625 2.8125 C15.62808367 3.76730786 19.50733286 5.50407381 24 8 C23.20383026 14.17399527 19.64276726 17.02026988 15.375 21.25 C14.67503906 21.9821875 13.97507812 22.714375 13.25390625 23.46875 C8.92696684 27.80371713 6.21521138 29.96737422 0 30 C-0.66 28.35 -1.32 26.7 -2 25 C-1.566875 24.608125 -1.13375 24.21625 -0.6875 23.8125 C1.10227699 22.04243467 1.10227699 22.04243467 2.25 19.6875 C4.27163145 16.5828517 6.57756963 14.69261442 9.4765625 12.4296875 C11.27420352 10.96967049 11.27420352 10.96967049 12 8 C10.948125 7.938125 9.89625 7.87625 8.8125 7.8125 C4.34851748 6.86115946 2.82391625 5.50850201 0 2 C0 1.34 0 0.68 0 0 Z " fill="#787D87" transform="translate(455,485)"/>
<path d="M0 0 C0.99 0.66 1.98 1.32 3 2 C3 2.66 3 3.32 3 4 C3.99 4.33 4.98 4.66 6 5 C6.7734375 6.8203125 6.7734375 6.8203125 7.375 9.125 C8.60261428 13.22354292 10.28483322 16.01847583 12.86328125 19.38671875 C15.98195869 23.81288296 16.24637833 28.72464833 17 34 C6.77 34 -3.46 34 -14 34 C-14.66 32.02 -15.32 30.04 -16 28 C-12.88856433 26.96285478 -10.50531904 26.79968139 -7.23828125 26.68359375 C-6.12001953 26.64169922 -5.00175781 26.59980469 -3.84960938 26.55664062 C-2.68236328 26.51732422 -1.51511719 26.47800781 -0.3125 26.4375 C0.86634766 26.39431641 2.04519531 26.35113281 3.25976562 26.30664062 C6.17305883 26.20048824 9.08643757 26.09843758 12 26 C11.40904541 25.02812744 11.40904541 25.02812744 10.80615234 24.03662109 C7.94057774 19.29750276 5.12962376 14.56798764 2.625 9.625 C2.12226563 8.64789063 1.61953125 7.67078125 1.1015625 6.6640625 C0 4 0 4 0 0 Z " fill="#7F858F" transform="translate(345,492)"/>
<path d="M0 0 C1.32 0.33 2.64 0.66 4 1 C4 1.66 4 2.32 4 3 C4.6909375 3.10441406 5.381875 3.20882813 6.09375 3.31640625 C9.49585608 4.11663281 12.34773589 5.43133642 15.5 6.9375 C19.29807342 8.74335967 23.07610931 10.48461684 27 12 C26.34 13.32 25.68 14.64 25 16 C24.34 16 23.68 16 23 16 C22.731875 16.598125 22.46375 17.19625 22.1875 17.8125 C21.00082594 19.99847854 19.90400887 21.41332594 18 23 C17.34 23 16.68 23 16 23 C15.67 23.99 15.34 24.98 15 26 C13.12719727 25.72753906 13.12719727 25.72753906 11 25 C9.85913086 23.40527344 9.85913086 23.40527344 8.96484375 21.359375 C8.63033203 20.61816406 8.29582031 19.87695312 7.95117188 19.11328125 C7.61666016 18.33339844 7.28214844 17.55351562 6.9375 16.75 C6.26150605 15.22289748 5.58317329 13.69682781 4.90234375 12.171875 C4.4225708 11.08616211 4.4225708 11.08616211 3.93310547 9.97851562 C2.95182201 7.80611409 2.95182201 7.80611409 1.25390625 5.140625 C0 3 0 3 0 0 Z " fill="#737881" transform="translate(387,486)"/>
<path d="M0 0 C0.495 0.99 0.495 0.99 1 2 C1.66 2 2.32 2 3 2 C6.61456431 9.22912863 6.67163192 15.21384208 4.73046875 22.9453125 C1.61005203 31.72252745 -4.91527533 39.3936373 -13.375 43.5 C-24.94340732 47.81019746 -38.20039379 48.63064807 -50 45 C-50 44.34 -50 43.68 -50 43 C-51.65 43 -53.3 43 -55 43 C-55 42.34 -55 41.68 -55 41 C-55.66 40.67 -56.32 40.34 -57 40 C-53.87709365 40.48578543 -51.00419641 40.9986012 -48 42 C-44.15041223 42.26008066 -40.29493194 42.23148803 -36.4375 42.25 C-35.39013672 42.270625 -34.34277344 42.29125 -33.26367188 42.3125 C-23.98238474 42.35864686 -15.34316748 41.06609487 -8 35 C-1.71208614 28.67708847 1.11964201 25.28750172 1.13671875 16.25390625 C1.13091797 15.20009766 1.13091797 15.20009766 1.125 14.125 C1.12886719 13.43019531 1.13273437 12.73539063 1.13671875 12.01953125 C1.12897598 7.90812094 0.79640249 4.0325777 0 0 Z " fill="#8B929E" transform="translate(351,226)"/>
<path d="M0 0 C7.26 0 14.52 0 22 0 C21.67 0.99 21.34 1.98 21 3 C16.05 3.33 11.1 3.66 6 4 C4.51525664 8.45423007 4.71727597 13.08519835 4.65820312 17.75195312 C4.5269041 21.26038528 4.3203619 23.4668913 2.48828125 26.515625 C-1.09719746 28.6545291 -4.45797269 28.46690682 -8.5 28.3125 C-9.25925781 28.30283203 -10.01851563 28.29316406 -10.80078125 28.28320312 C-14.34759426 28.21176994 -17.58680413 27.94509757 -21 27 C-21 26.01 -21 25.02 -21 24 C-14.07 24 -7.14 24 0 24 C0 16.08 0 8.16 0 0 Z " fill="#717680" transform="translate(299,367)"/>
<path d="M0 0 C3.37462715 0.54723683 5.08235 1.0549 8 3 C14.56312466 5.82332615 21.54219576 6.91276659 28.546875 8.05859375 C32.31185992 9.08502063 34.27788911 10.22719803 37 13 C37.8125 16.75 37.8125 16.75 38 20 C36.02 19.34 34.04 18.68 32 18 C32 17.34 32 16.68 32 16 C30.68 16.33 29.36 16.66 28 17 C28 16.34 28 15.68 28 15 C27.45859375 15.19464844 26.9171875 15.38929688 26.359375 15.58984375 C23.29169854 16.12313188 21.22136826 15.44683579 18.25 14.5625 C17.26515625 14.27503906 16.2803125 13.98757812 15.265625 13.69140625 C14.51796875 13.46324219 13.7703125 13.23507813 13 13 C13 12.01 13 11.02 13 10 C12.01 9.67 11.02 9.34 10 9 C10 8.34 10 7.68 10 7 C9.0925 6.896875 8.185 6.79375 7.25 6.6875 C3.95723628 5.99095383 2.3594032 5.3594032 0 3 C0 2.01 0 1.02 0 0 Z " fill="#7C828D" transform="translate(281,215)"/>
<path d="M0 0 C0.33 0 0.66 0 1 0 C1 8.25 1 16.5 1 25 C3.64 25 6.28 25 9 25 C9.28875 24.195625 9.5775 23.39125 9.875 22.5625 C11 20 11 20 13 19 C14.54023996 18.93049459 16.08334988 18.91547643 17.625 18.9375 C18.85089844 18.95103516 18.85089844 18.95103516 20.1015625 18.96484375 C20.72804688 18.97644531 21.35453125 18.98804688 22 19 C21.505 16.525 21.505 16.525 21 14 C18.03 14 15.06 14 12 14 C12 11.69 12 9.38 12 7 C16.455 6.505 16.455 6.505 21 6 C20.34 4.35 19.68 2.7 19 1 C22.16115776 2.36983503 22.9927092 2.9890638 25 6 C25.265625 8.99609375 25.265625 8.99609375 25.25 12.4375 C25.25515625 13.57058594 25.2603125 14.70367187 25.265625 15.87109375 C24.8575419 20.67807263 24.8575419 20.67807263 23 23 C17.75296202 25.94442863 13.48842017 26.39726161 7.5625 26.1875 C5.066875 26.125625 2.57125 26.06375 0 26 C0 17.42 0 8.84 0 0 Z " fill="#A09DA9" transform="translate(297,317)"/>
<path d="M0 0 C1.010625 0.0825 2.02125 0.165 3.0625 0.25 C5.18759741 3.43764611 5.3139 4.44316099 4.6796875 8.09375 C3.62421013 11.78124057 1.90688054 15.15966162 0.2578125 18.61328125 C-1.16288583 21.74717462 -2.0016094 24.94318655 -2.9375 28.25 C-3.85709657 30.2223474 -4.85427231 32.14231771 -5.86328125 34.0703125 C-7.4521499 37.29427144 -8.6928925 40.64048292 -9.984375 43.9921875 C-10.9375 46.25 -10.9375 46.25 -12.75 49.0625 C-14.19462665 51.24133281 -14.19462665 51.24133281 -13.6875 54 C-13.1424729 56.1940983 -13.1424729 56.1940983 -11.9375 57.25 C-11.89657063 59.58297433 -11.89508277 61.91705225 -11.9375 64.25 C-13.75 63.6875 -13.75 63.6875 -15.9375 62.25 C-17.5498585 58.96556602 -18.78180427 55.71708718 -19.9375 52.25 C-19.2775 52.25 -18.6175 52.25 -17.9375 52.25 C-16.09950217 48.13549724 -14.26591735 44.02106682 -12.5 39.875 C-11.21325671 36.88975557 -9.86937146 33.94748857 -8.5 31 C-6.36332456 26.32882966 -4.55399581 21.60440715 -2.84765625 16.76171875 C-2.05335594 14.5697226 -1.19097776 12.44447377 -0.25 10.3125 C0.77443927 7.9221417 1.55522007 5.78639964 2.0625 3.25 C1.299375 3.559375 0.53625 3.86875 -0.25 4.1875 C-2.12539677 4.92893593 -4.02434652 5.61228217 -5.9375 6.25 C-3.65323604 0.31091371 -3.65323604 0.31091371 0 0 Z " fill="#9097A2" transform="translate(355.9375,426.75)"/>
<path d="M0 0 C3 2 3 2 3.51171875 3.9453125 C3.67447917 5.96354167 3.83723958 7.98177083 4 10 C4.66 10 5.32 10 6 10 C6.09765625 16.15234375 6.09765625 16.15234375 6 18 C3.65472696 20.34527304 -2.1633274 19.18541859 -5.3125 19.1875 C-6.27607422 19.19974609 -7.23964844 19.21199219 -8.23242188 19.22460938 C-9.16248047 19.22654297 -10.09253906 19.22847656 -11.05078125 19.23046875 C-11.90325439 19.23457764 -12.75572754 19.23868652 -13.6340332 19.24291992 C-16.17720347 18.98180606 -17.80620312 18.27889646 -20 17 C-19.67 15.35 -19.34 13.7 -19 12 C-12.4 12 -5.8 12 1 12 C0.67 8.04 0.34 4.08 0 0 Z " fill="#7A7F88" transform="translate(345,183)"/>
<path d="M0 0 C3.96 0 7.92 0 12 0 C12.495 3.465 12.495 3.465 13 7 C11.02 7.66 9.04 8.32 7 9 C6.98541748 9.98919434 6.97083496 10.97838867 6.95581055 11.99755859 C6.8979103 15.66182919 6.82067848 19.32547985 6.73754883 22.98925781 C6.7042602 24.57606965 6.67624053 26.16300103 6.65356445 27.75 C6.62008922 30.02916484 6.5677814 32.30723041 6.51171875 34.5859375 C6.50213387 35.65320572 6.50213387 35.65320572 6.49235535 36.74203491 C6.43237305 38.74365234 6.43237305 38.74365234 6 42 C2.68429699 44.21046868 1.60885231 44.25630672 -2.25390625 44.265625 C-3.78241211 44.26949219 -3.78241211 44.26949219 -5.34179688 44.2734375 C-6.40462891 44.26570312 -7.46746094 44.25796875 -8.5625 44.25 C-9.62919922 44.25773438 -10.69589844 44.26546875 -11.79492188 44.2734375 C-13.32149414 44.26957031 -13.32149414 44.26957031 -14.87890625 44.265625 C-15.8129126 44.26336914 -16.74691895 44.26111328 -17.70922852 44.25878906 C-20 44 -20 44 -22 42 C-22 40.68 -22 39.36 -22 38 C-21.34 38 -20.68 38 -20 38 C-20 39.32 -20 40.64 -20 42 C-12.74 41.67 -5.48 41.34 2 41 C2.03738281 38.82019531 2.07476562 36.64039063 2.11328125 34.39453125 C2.15955248 32.27293115 2.21076546 30.15150358 2.26245117 28.0300293 C2.29561259 26.56073578 2.32367178 25.09131756 2.34643555 23.62182617 C2.38014519 21.50385632 2.43246433 19.38702005 2.48828125 17.26953125 C2.51446533 15.99698486 2.54064941 14.72443848 2.56762695 13.41333008 C3.02380275 9.81209135 3.80259008 7.86162624 6 5 C8.125 4.375 8.125 4.375 10 4 C10.33 3.01 10.66 2.02 11 1 C7.37 1 3.74 1 0 1 C0 0.67 0 0.34 0 0 Z " fill="#818792" transform="translate(295,482)"/>
<path d="M0 0 C4.92083131 0.60564078 9.4783476 1.59535774 14.25 3 C15.45140625 3.350625 16.6528125 3.70125 17.890625 4.0625 C19.93608748 4.67922236 21.97322006 5.32440669 24 6 C24 6.66 24 7.32 24 8 C26.31 8.33 28.62 8.66 31 9 C31 9.66 31 10.32 31 11 C32.11375 11.226875 33.2275 11.45375 34.375 11.6875 C38.79101177 12.78173301 42.57167695 14.65867745 46.58984375 16.7578125 C49.66626041 18.34338867 52.80240426 19.67925393 56 21 C52.59068103 22.13643966 51.99664544 21.86747764 48.8125 20.5625 C47.73935547 20.13130859 47.73935547 20.13130859 46.64453125 19.69140625 C46.10183594 19.46324219 45.55914062 19.23507812 45 19 C45 18.34 45 17.68 45 17 C44.175 16.896875 43.35 16.79375 42.5 16.6875 C39.15988306 16.0314056 36.30589047 15.06076443 33.15234375 13.83203125 C30.86507622 12.94784253 28.56709575 12.11530329 26.25 11.3125 C25.17492187 10.93544922 25.17492187 10.93544922 24.078125 10.55078125 C21.7138953 9.8292052 21.7138953 9.8292052 18 10 C18.33 10.66 18.66 11.32 19 12 C12.2813095 10.00386732 6.19265192 7.2708579 0 4 C0 2.68 0 1.36 0 0 Z " fill="#9097A2" transform="translate(383,453)"/>
<path d="M0 0 C2.44755579 4.89511158 3.18259994 8.30973469 3.1875 13.8125 C3.19974609 14.52470703 3.21199219 15.23691406 3.22460938 15.97070312 C3.24937074 24.89304826 -0.28541226 29.10099465 -6.1953125 35.46484375 C-10.09896883 38.99335762 -13.96089299 40.67391921 -19 42 C-19.59321045 42.17362061 -20.1864209 42.34724121 -20.79760742 42.52612305 C-25.41664965 43.51997749 -30.23243094 43.18471429 -34.9375 43.1875 C-36.56461914 43.20586914 -36.56461914 43.20586914 -38.22460938 43.22460938 C-39.27326172 43.22654297 -40.32191406 43.22847656 -41.40234375 43.23046875 C-42.35616943 43.23457764 -43.30999512 43.23868652 -44.29272461 43.24291992 C-47.19427237 42.98256822 -49.36348465 42.20854008 -52 41 C-52 40.67 -52 40.34 -52 40 C-51.351521 40.01571045 -50.70304199 40.0314209 -50.03491211 40.04760742 C-28.94802424 41.54615415 -28.94802424 41.54615415 -9.94140625 34.609375 C-7.48183191 32.16724445 -5.2445873 29.6367994 -3 27 C-2.34 26.67 -1.68 26.34 -1 26 C1.01263995 21.36952066 1.25021965 17.09525704 1.125 12.125 C1.11597656 11.43664062 1.10695313 10.74828125 1.09765625 10.0390625 C1.07432513 8.35922162 1.03846326 6.67956254 1 5 C0.34 5 -0.32 5 -1 5 C-0.67 3.35 -0.34 1.7 0 0 Z " fill="#767C87" transform="translate(350,226)"/>
<path d="M0 0 C3.125 0.375 3.125 0.375 6 1 C6 1.33 6 1.66 6 2 C4.35 2.33 2.7 2.66 1 3 C0.9906543 3.94842773 0.98130859 4.89685547 0.97167969 5.87402344 C0.92760769 9.40064758 0.86597217 12.92606203 0.79248047 16.45214844 C0.76429465 17.97677431 0.74306811 19.50154566 0.72900391 21.02636719 C0.70753951 23.22145936 0.66087831 25.41480711 0.609375 27.609375 C0.58842773 28.92905273 0.56748047 30.24873047 0.54589844 31.60839844 C0 35 0 35 -1.70800781 37.43530273 C-4.47702991 39.32565878 -5.95118327 39.47872767 -9.28125 39.42578125 C-10.28800781 39.41740234 -11.29476563 39.40902344 -12.33203125 39.40039062 C-13.37746094 39.37138672 -14.42289062 39.34238281 -15.5 39.3125 C-16.54542969 39.30283203 -17.59085937 39.29316406 -18.66796875 39.28320312 C-27.00533751 39.16043777 -27.00533751 39.16043777 -31 38 C-31.33 35.36 -31.66 32.72 -32 30 C-24.41 30 -16.82 30 -9 30 C-9 30.33 -9 30.66 -9 31 C-15.93 31 -22.86 31 -30 31 C-29.34 32.65 -28.68 34.3 -28 36 C-24.20834926 36.0289337 -20.41672673 36.04677601 -16.625 36.0625 C-15.00464844 36.07506836 -15.00464844 36.07506836 -13.3515625 36.08789062 C-12.3203125 36.09111328 -11.2890625 36.09433594 -10.2265625 36.09765625 C-8.79691162 36.10551147 -8.79691162 36.10551147 -7.33837891 36.11352539 C-4.97675594 36.15642599 -4.97675594 36.15642599 -3 35 C-2.98018066 34.01080566 -2.96036133 33.02161133 -2.93994141 32.00244141 C-2.86396544 28.33827923 -2.77523648 24.67451836 -2.68261719 21.01074219 C-2.64429415 19.42390862 -2.60944712 17.83698719 -2.578125 16.25 C-2.53254569 13.97103434 -2.47454162 11.69267532 -2.4140625 9.4140625 C-2.40251129 8.70255035 -2.39096008 7.99103821 -2.37905884 7.25796509 C-2.22774341 2.22774341 -2.22774341 2.22774341 0 0 Z " fill="#949BA8" transform="translate(303,489)"/>
<path d="M0 0 C3.125 2.375 3.125 2.375 5 5 C5 5.66 5 6.32 5 7 C4.32453125 7.09796875 3.6490625 7.1959375 2.953125 7.296875 C-2.42696489 8.19873978 -5.26952539 8.83908601 -9 13 C-11.39788436 12.78842197 -12.85584361 12.07207819 -15 11 C-15.5982906 4.77777778 -15.5982906 4.77777778 -13.125 1.5625 C-8.71638431 -0.64180785 -4.8361423 -0.94344415 0 0 Z " fill="#767B83" transform="translate(312,183)"/>
<path d="M0 0 C2.475 0.495 2.475 0.495 5 1 C6.29776917 3.59553834 6.12950035 5.50705527 6.1328125 8.41015625 C6.13410156 9.48201172 6.13539063 10.55386719 6.13671875 11.65820312 C6.13285156 12.78162109 6.12898438 13.90503906 6.125 15.0625 C6.12886719 16.18978516 6.13273437 17.31707031 6.13671875 18.47851562 C6.13542969 19.54908203 6.13414062 20.61964844 6.1328125 21.72265625 C6.13168457 22.71015869 6.13055664 23.69766113 6.12939453 24.71508789 C6 27 6 27 5 28 C3.35 28 1.7 28 0 28 C0 18.76 0 9.52 0 0 Z " fill="#767C86" transform="translate(295,428)"/>
<path d="M0 0 C4.62336074 6.9350411 3.60201831 14.62842088 2.4921875 22.6875 C0.09250649 33.31133051 -5.68275523 38.77879958 -14.54296875 44.69921875 C-21.94093158 48.61578731 -31.35060061 48.33211742 -39.51953125 48.75390625 C-42.73846383 48.98150754 -45.82931505 49.41247645 -49 50 C-49 49.34 -49 48.68 -49 48 C-44.91100593 46.63700198 -40.90349791 46.62046091 -36.6171875 46.37890625 C-35.75351562 46.25386719 -34.88984375 46.12882812 -34 46 C-33.67 45.34 -33.34 44.68 -33 44 C-34.32 43.67 -35.64 43.34 -37 43 C-34.03 42.505 -34.03 42.505 -31 42 C-31.33 43.32 -31.66 44.64 -32 46 C-27.64358754 45.48748089 -24.04553973 44.64008368 -20 43 C-18.68 43 -17.36 43 -16 43 C-16 42.34 -16 41.68 -16 41 C-14.700625 40.505 -14.700625 40.505 -13.375 40 C-9.50355309 37.70580924 -7.7638303 35.3250694 -5.296875 31.64453125 C-4.86890625 31.10183594 -4.4409375 30.55914062 -4 30 C-3.34 30 -2.68 30 -2 30 C0.64341985 20.08717557 0.19255751 10.17592366 0 0 Z " fill="#7A808A" transform="translate(354,323)"/>
<path d="M0 0 C2.475 1.485 2.475 1.485 5 3 C3.60281757 6.24827183 2.01426895 8.11379455 -0.6875 10.375 C-1.39132812 10.98214844 -2.09515625 11.58929687 -2.8203125 12.21484375 C-4.21576736 13.35771628 -5.64668506 14.45936116 -7.1171875 15.50390625 C-9.02696775 16.91131459 -10.57365689 18.10126673 -12 20 C-12.35602552 23.0629497 -11.82728154 24.94939932 -11 28 C-10.67 28.33 -10.34 28.66 -10 29 C-9.13964837 33.12820347 -9.12290062 36.62041143 -11.42333984 40.23876953 C-13.41245429 42.47824773 -15.49282641 44.52445237 -17.6875 46.5625 C-18.40873047 47.28501953 -19.12996094 48.00753906 -19.87304688 48.75195312 C-25.25381998 53.94599621 -25.25381998 53.94599621 -28.74926758 54.19897461 C-29.49200928 54.13331299 -30.23475098 54.06765137 -31 54 C-33.21538462 48.58461538 -33.21538462 48.58461538 -32.125 45.625 C-31.75375 45.08875 -31.3825 44.5525 -31 44 C-30.02391783 46.92824652 -29.91773332 48.95613276 -30 52 C-24.9409214 50.49182185 -21.81863805 47.47057686 -18.125 43.875 C-17.51914062 43.33101562 -16.91328125 42.78703125 -16.2890625 42.2265625 C-13.0082367 39.08969032 -13.0082367 39.08969032 -11.80541992 34.86303711 C-12.22358798 31.18856733 -13.32290889 28.24237614 -15 25 C-15.39453125 22.703125 -15.39453125 22.703125 -15 20 C-12.6640625 17.46484375 -12.6640625 17.46484375 -9.625 14.9375 C-4.99422423 11.0851832 -4.99422423 11.0851832 -2 6 C-0.70529025 4.62913085 0.62150897 3.28659163 2 2 C1.34 2 0.68 2 0 2 C0 1.34 0 0.68 0 0 Z " fill="#848A95" transform="translate(437,511)"/>
<path d="M0 0 C1.32 0 2.64 0 4 0 C4 4.62 4 9.24 4 14 C7.63 14.33 11.26 14.66 15 15 C15 15.99 15 16.98 15 18 C14.41992188 18.06058594 13.83984375 18.12117188 13.2421875 18.18359375 C9.63252264 18.57076902 6.07602732 18.98642369 2.5 19.625 C1.675 19.74875 0.85 19.8725 0 20 C-1 19 -1 19 -1.02172852 17.14233398 C-0.95103149 15.95619507 -0.95103149 15.95619507 -0.87890625 14.74609375 C-0.83056641 13.89208984 -0.78222656 13.03808594 -0.73242188 12.15820312 C-0.67634766 11.26037109 -0.62027344 10.36253906 -0.5625 9.4375 C-0.51029297 8.53580078 -0.45808594 7.63410156 -0.40429688 6.70507812 C-0.27419751 4.4697345 -0.13922064 2.2347911 0 0 Z " fill="#87191A" transform="translate(304,318)"/>
<path d="M0 0 C1.32 0.66 2.64 1.32 4 2 C4.08121924 3.60332791 4.13929134 5.20784026 4.1875 6.8125 C4.23970703 8.15248047 4.23970703 8.15248047 4.29296875 9.51953125 C4 12 4 12 2.85546875 13.62304688 C0.23626313 15.56677315 -1.74104125 15.43270832 -4.98046875 15.51171875 C-6.14384766 15.54716797 -7.30722656 15.58261719 -8.50585938 15.61914062 C-9.72080078 15.64169922 -10.93574219 15.66425781 -12.1875 15.6875 C-13.41404297 15.72166016 -14.64058594 15.75582031 -15.90429688 15.79101562 C-18.93610678 15.8735941 -21.96762379 15.94271369 -25 16 C-25 15.34 -25 14.68 -25 14 C-25.66 14 -26.32 14 -27 14 C-27 11.69 -27 9.38 -27 7 C-26.01 7 -25.02 7 -24 7 C-24.33 8.32 -24.66 9.64 -25 11 C-21.9317362 11.89749822 -19.20730024 12.11711768 -16.015625 12.09765625 C-15.08105469 12.09443359 -14.14648438 12.09121094 -13.18359375 12.08789062 C-11.73146484 12.07532227 -11.73146484 12.07532227 -10.25 12.0625 C-9.26644531 12.05798828 -8.28289062 12.05347656 -7.26953125 12.04882812 C-4.84632806 12.037065 -2.42315623 12.01913018 0 12 C0 8.04 0 4.08 0 0 Z " fill="#8D939F" transform="translate(350,189)"/>
<path d="M0 0 C8.91 0 17.82 0 27 0 C26.67 1.32 26.34 2.64 26 4 C17.42 4 8.84 4 0 4 C0 2.68 0 1.36 0 0 Z " fill="#6D737C" transform="translate(332,520)"/>
<path d="M0 0 C0.99 0 1.98 0 3 0 C0.69056169 7.8905809 -3.43574958 15.87709182 -10.375 20.625 C-11.24125 21.07875 -12.1075 21.5325 -13 22 C-13.83917969 22.51046875 -13.83917969 22.51046875 -14.6953125 23.03125 C-18.10598273 25.09832287 -21.02587489 26.51828787 -25 27 C-24 24 -24 24 -22.06640625 22.9296875 C-21.24011719 22.58164062 -20.41382813 22.23359375 -19.5625 21.875 C-12.87675471 18.66661074 -6.11265793 14.27780425 -2.7421875 7.453125 C-2.03947942 5.31088871 -1.50450438 3.19434913 -1 1 C-0.67 0.67 -0.34 0.34 0 0 Z " fill="#9097A4" transform="translate(356,346)"/>
<path d="M0 0 C3.96 0 7.92 0 12 0 C12.33 1.98 12.66 3.96 13 6 C10.69 6.66 8.38 7.32 6 8 C5.67 18.89 5.34 29.78 5 41 C4.01 41 3.02 41 2 41 C2.06906922 36.67611417 2.15712654 32.35314852 2.26245117 28.0300293 C2.29561259 26.56073578 2.32367178 25.09131756 2.34643555 23.62182617 C2.38014519 21.50385632 2.43246433 19.38702005 2.48828125 17.26953125 C2.51446533 15.99698486 2.54064941 14.72443848 2.56762695 13.41333008 C3.02380275 9.81209135 3.80259008 7.86162624 6 5 C8.125 4.375 8.125 4.375 10 4 C10.33 3.01 10.66 2.02 11 1 C7.37 1 3.74 1 0 1 C0 0.67 0 0.34 0 0 Z " fill="#787E88" transform="translate(295,482)"/>
<path d="M0 0 C7.26 0 14.52 0 22 0 C22 0.66 22 1.32 22 2 C20.87980469 2.03738281 19.75960938 2.07476562 18.60546875 2.11328125 C17.1327791 2.17894257 15.66012434 2.24538986 14.1875 2.3125 C13.44951172 2.33505859 12.71152344 2.35761719 11.95117188 2.38085938 C9.07303621 2.524115 6.60263476 2.68439089 4.0234375 4.03515625 C2.36085079 7.22706891 2.50250926 10.60211743 2.4375 14.125 C2.37526894 16.7755823 2.23379464 19.35427327 2 22 C1.34 22.33 0.68 22.66 0 23 C0 15.41 0 7.82 0 0 Z " fill="#676C74" transform="translate(299,367)"/>
<path d="M0 0 C0.33 0 0.66 0 1 0 C0.8845363 2.6465496 0.757838 5.29180974 0.625 7.9375 C0.57859375 9.04061523 0.57859375 9.04061523 0.53125 10.16601562 C0.28715189 14.82422127 -0.42170854 19.11878046 -1.50537109 23.65014648 C-2.40222108 27.91084792 -2.73728509 32.23089817 -3.125 36.5625 C-3.21136719 37.47580078 -3.29773438 38.38910156 -3.38671875 39.33007812 C-3.59620555 41.55296584 -3.80054684 43.77619349 -4 46 C-4.66 46 -5.32 46 -6 46 C-6.33 49.96 -6.66 53.92 -7 58 C-7.33 58 -7.66 58 -8 58 C-8.08399176 52.61252881 -7.81453995 47.482195 -7.125 42.125 C-7.03549072 41.42810059 -6.94598145 40.73120117 -6.85375977 40.01318359 C-6.24181343 35.40087193 -5.42309633 30.87327276 -4.44140625 26.328125 C-3.66866939 22.25245095 -3.33403374 18.13146991 -3 14 C-2.34 14 -1.68 14 -1 14 C-1.01160156 13.40832031 -1.02320313 12.81664062 -1.03515625 12.20703125 C-1.08322386 7.99768215 -1.06006883 4.1077667 0 0 Z " fill="#924A53" transform="translate(418,240)"/>
<path d="M0 0 C6.2686895 0.55721684 12.35640913 2.16844057 18 5 C18.33 5.99 18.66 6.98 19 8 C12.93479648 9.41951572 8.6807969 8.49911026 3 6 C2.01 5.34 1.02 4.68 0 4 C0 2.68 0 1.36 0 0 Z " fill="#7D838C" transform="translate(383,453)"/>
<path d="M0 0 C0.33 0 0.66 0 1 0 C1 8.25 1 16.5 1 25 C3.64 25 6.28 25 9 25 C9.19335938 24.35546875 9.38671875 23.7109375 9.5859375 23.046875 C11 21 11 21 14.0390625 20.390625 C15.22242188 20.34421875 16.40578125 20.2978125 17.625 20.25 C18.81351562 20.19328125 20.00203125 20.1365625 21.2265625 20.078125 C22.14179688 20.05234375 23.05703125 20.0265625 24 20 C23 23 23 23 19.96484375 24.67578125 C15.80187388 26.3067122 11.97833017 26.34380849 7.5625 26.1875 C5.066875 26.125625 2.57125 26.06375 0 26 C0 17.42 0 8.84 0 0 Z " fill="#B8BCC5" transform="translate(297,317)"/>
<path d="M0 0 C7.50769231 0.61538462 7.50769231 0.61538462 10 2.5625 C10.33 3.036875 10.66 3.51125 11 4 C10.67 4.99 10.34 5.98 10 7 C7.03 7 4.06 7 1 7 C1 9.31 1 11.62 1 14 C3.97 14 6.94 14 10 14 C10 14.66 10 15.32 10 16 C2.25 16.125 2.25 16.125 0 15 C0 10.05 0 5.1 0 0 Z " fill="#8B7179" transform="translate(308,317)"/>
<path d="M0 0 C1.69531123 3.39062246 0.94130102 7.17071666 0.75 10.875 C0.72292969 11.69097656 0.69585937 12.50695312 0.66796875 13.34765625 C0.62800781 14.13785156 0.58804687 14.92804688 0.546875 15.7421875 C0.51432617 16.4626123 0.48177734 17.18303711 0.44824219 17.92529297 C-0.13902267 20.64347204 -1.03523806 22.0349659 -3 24 C-5.20483398 24.48583984 -5.20483398 24.48583984 -7.74609375 24.4609375 C-8.66583984 24.45707031 -9.58558594 24.45320313 -10.53320312 24.44921875 C-11.49162109 24.42472656 -12.45003906 24.40023438 -13.4375 24.375 C-14.86932617 24.37306641 -14.86932617 24.37306641 -16.33007812 24.37109375 C-24.06329398 24.27368445 -24.06329398 24.27368445 -28 22 C-28 20.68 -28 19.36 -28 18 C-27.34 18 -26.68 18 -26 18 C-26 18.99 -26 19.98 -26 21 C-22.56265937 21.08703823 -19.12560163 21.14040272 -15.6875 21.1875 C-14.22280273 21.22520508 -14.22280273 21.22520508 -12.72851562 21.26367188 C-11.32182617 21.27817383 -11.32182617 21.27817383 -9.88671875 21.29296875 C-9.02264404 21.3086792 -8.15856934 21.32438965 -7.26831055 21.34057617 C-4.95117051 21.16835026 -4.95117051 21.16835026 -3.22436523 19.73022461 C-1.76795383 17.67208151 -1.59532309 16.52657558 -1.5234375 14.0234375 C-1.4925 13.270625 -1.4615625 12.5178125 -1.4296875 11.7421875 C-1.41164063 10.96101563 -1.39359375 10.17984375 -1.375 9.375 C-1.10472973 1.10472973 -1.10472973 1.10472973 0 0 Z " fill="#818792" transform="translate(304,373)"/>
<path d="M0 0 C3.37462715 0.54723683 5.08235 1.0549 8 3 C10.64017635 3.81779841 13.30270591 4.3809489 16 5 C15.01 5.66 14.02 6.32 13 7 C15.85306797 9.32472205 18.54074837 10.7508258 22 12 C22 12.66 22 13.32 22 14 C19.03 13.67 16.06 13.34 13 13 C13 12.01 13 11.02 13 10 C12.01 9.67 11.02 9.34 10 9 C10 8.34 10 7.68 10 7 C9.0925 6.896875 8.185 6.79375 7.25 6.6875 C3.95723628 5.99095383 2.3594032 5.3594032 0 3 C0 2.01 0 1.02 0 0 Z " fill="#878D98" transform="translate(281,215)"/>
<path d="M0 0 C3 2 3 2 3.6875 4.1875 C4.0590033 7.53102974 4.25359285 10.63989472 4 14 C0.38536441 16.40975706 -2.3221926 16.33239432 -6.5 16.3125 C-7.17675781 16.32861328 -7.85351562 16.34472656 -8.55078125 16.36132812 C-10.53125 16.36328125 -10.53125 16.36328125 -14 16 C-14.99 15.01 -15.98 14.02 -17 13 C-11.06 13 -5.12 13 1 13 C0.505 6.565 0.505 6.565 0 0 Z " fill="#6D727C" transform="translate(345,183)"/>
<path d="M0 0 C1.485 0.99 1.485 0.99 3 2 C3 2.66 3 3.32 3 4 C3.99 4.33 4.98 4.66 6 5 C6.7734375 6.8203125 6.7734375 6.8203125 7.375 9.125 C8.37499122 12.4813535 9.47346084 14.92388504 11.625 17.6875 C13.96840811 20.69944796 14.71723621 23.13556157 15 27 C7.94687761 24.6489592 4.33341724 12.94546222 1.1015625 6.6640625 C0 4 0 4 0 0 Z " fill="#8A909B" transform="translate(345,492)"/>
<path d="M0 0 C0.59458008 0.22107422 1.18916016 0.44214844 1.80175781 0.66992188 C0.28582031 1.93835938 0.28582031 1.93835938 -1.26074219 3.23242188 C-5.73075425 7.13763097 -9.93451342 11.29314965 -14.13574219 15.48242188 C-14.81064697 16.15281494 -15.48555176 16.82320801 -16.1809082 17.51391602 C-16.81440186 18.14934326 -17.44789551 18.78477051 -18.10058594 19.43945312 C-18.67284912 20.01284424 -19.2451123 20.58623535 -19.8347168 21.17700195 C-21.29886795 22.64369566 -21.29886795 22.64369566 -22.19824219 24.66992188 C-22.85824219 24.66992188 -23.51824219 24.66992188 -24.19824219 24.66992188 C-24.19824219 20.66992188 -24.19824219 20.66992188 -22.94042969 19.24023438 C-22.32425781 18.76328125 -21.70808594 18.28632812 -21.07324219 17.79492188 C-18.09086215 15.36839761 -15.3483723 12.84043801 -12.69042969 10.06835938 C-12.07441895 9.42882324 -11.4584082 8.78928711 -10.82373047 8.13037109 C-9.58081021 6.83114567 -8.34723118 5.52291431 -7.12353516 4.20556641 C-6.54490723 3.60599121 -5.9662793 3.00641602 -5.37011719 2.38867188 C-4.85545898 1.84146484 -4.34080078 1.29425781 -3.81054688 0.73046875 C-2.19824219 -0.33007812 -2.19824219 -0.33007812 0 0 Z " fill="#898D95" transform="translate(434.1982421875,510.330078125)"/>
<path d="M0 0 C5.43449316 0.33965582 8.65139108 1.7231742 13.10546875 4.84375 C15.07439593 6.04540453 16.74807311 6.56059963 19 7 C18.67 8.32 18.34 9.64 18 11 C11.86236527 9.252479 5.95860109 7.14903356 1 3 C0.67 2.01 0.34 1.02 0 0 Z " fill="#757A84" transform="translate(421,470)"/>
<path d="M0 0 C1.25159912 0.00523682 2.50319824 0.01047363 3.79272461 0.01586914 C4.78942421 0.01799156 4.78942421 0.01799156 5.80625916 0.02015686 C7.93590735 0.02577021 10.06545175 0.03832485 12.19506836 0.05102539 C13.63582205 0.05603868 15.07657739 0.06060188 16.51733398 0.06469727 C20.05577938 0.07574394 23.59416375 0.09301747 27.13256836 0.11352539 C27.13256836 1.43352539 27.13256836 2.75352539 27.13256836 4.11352539 C26.47256836 4.11352539 25.81256836 4.11352539 25.13256836 4.11352539 C25.13256836 3.45352539 25.13256836 2.79352539 25.13256836 2.11352539 C21.18097578 2.18231153 17.23032213 2.27022967 13.27954102 2.37597656 C11.273745 2.42562498 9.26759149 2.46006703 7.26147461 2.49438477 C6.00463867 2.52983398 4.74780273 2.5652832 3.45288086 2.60180664 C2.29030762 2.62799072 1.12773437 2.6541748 -0.07006836 2.68115234 C-0.99319824 2.82383545 -1.91632813 2.96651855 -2.86743164 3.11352539 C-3.52743164 4.10352539 -4.18743164 5.09352539 -4.86743164 6.11352539 C-3.79711502 0.15033278 -3.79711502 0.15033278 0 0 Z " fill="#E1E4E8" transform="translate(326.867431640625,420.886474609375)"/>
<path d="M0 0 C5.94 2.475 5.94 2.475 12 5 C11.34 6.32 10.68 7.64 10 9 C9.34 9 8.68 9 8 9 C7.71125 9.639375 7.4225 10.27875 7.125 10.9375 C6 13 6 13 4 14 C4 11.36 4 8.72 4 6 C3.01 6 2.02 6 1 6 C0.67 4.02 0.34 2.04 0 0 Z " fill="#9EA4B0" transform="translate(402,493)"/>
<path d="M0 0 C0.66 0.33 1.32 0.66 2 1 C2 2.98 2 4.96 2 7 C1.07767578 7.16435547 1.07767578 7.16435547 0.13671875 7.33203125 C-1.07564453 7.56986328 -1.07564453 7.56986328 -2.3125 7.8125 C-3.51326172 8.03873047 -3.51326172 8.03873047 -4.73828125 8.26953125 C-7.07666562 8.83146323 -7.07666562 8.83146323 -8.5625 10.59375 C-9.036875 11.0578125 -9.51125 11.521875 -10 12 C-13.6875 11.6875 -13.6875 11.6875 -17 11 C-17 10.01 -17 9.02 -17 8 C-16.4225 8.2475 -15.845 8.495 -15.25 8.75 C-14.5075 8.8325 -13.765 8.915 -13 9 C-10.89586384 7.14589423 -10.89586384 7.14589423 -9 5 C-5.52674819 3.8422494 -2.63932552 3.93133348 1 4 C0.67 2.68 0.34 1.36 0 0 Z " fill="#8F95A0" transform="translate(316,186)"/>
<path d="M0 0 C15.8032491 -0.34521661 15.8032491 -0.34521661 20.25 0.9375 C25.44338749 2.40895979 30.62954572 2.65987123 36 3 C35.67 5.97 35.34 8.94 35 12 C34.67 12 34.34 12 34 12 C34 9.36 34 6.72 34 4 C33.28457031 4.01160156 32.56914062 4.02320313 31.83203125 4.03515625 C24.20204765 4.10425054 16.57982815 3.9518854 9 3 C8.67 2.67 8.34 2.34 8 2 C6.65252916 1.76924918 5.29622435 1.58846937 3.9375 1.4375 C2.638125 1.293125 1.33875 1.14875 0 1 C0 0.67 0 0.34 0 0 Z " fill="#A5585E" transform="translate(394,170)"/>
<path d="M0 0 C-0.33 0.66 -0.66 1.32 -1 2 C-4.79674088 2.509503 -8.56824347 2.84096666 -12.38671875 3.12304688 C-13.18464844 3.19458984 -13.98257812 3.26613281 -14.8046875 3.33984375 C-15.53671387 3.39519287 -16.26874023 3.45054199 -17.02294922 3.50756836 C-19.49910661 4.1243144 -20.44963267 4.99623742 -22 7 C-22.57947281 9.96243726 -22.57947281 9.96243726 -22.6875 13.1875 C-22.75324219 14.27417969 -22.81898438 15.36085938 -22.88671875 16.48046875 C-22.92410156 17.31191406 -22.96148437 18.14335937 -23 19 C-23.33 19 -23.66 19 -24 19 C-24.05382106 16.37472811 -24.09358313 13.75055287 -24.125 11.125 C-24.14175781 10.37863281 -24.15851563 9.63226563 -24.17578125 8.86328125 C-24.1933959 6.90805539 -24.10320189 4.95257979 -24 3 C-21.12473602 0.12473602 -18.82299895 0.5887877 -14.8125 0.375 C-13.51957031 0.30023438 -12.22664063 0.22546875 -10.89453125 0.1484375 C-7.25805215 0.00983549 -3.63863834 -0.02831625 0 0 Z " fill="#939AA7" transform="translate(330,372)"/>
<path d="M0 0 C0.33 0 0.66 0 1 0 C3.16192432 4.66975653 3.16192432 4.66975653 3 8 C0.53886211 11.86485221 -2.69840049 14.84891459 -6 18 C-6.8146875 18.84691406 -7.629375 19.69382812 -8.46875 20.56640625 C-14.87828826 27.22164347 -14.87828826 27.22164347 -19 29 C-22 27 -22 27 -22.6875 24.375 C-22.790625 23.59125 -22.89375 22.8075 -23 22 C-22.34 22.33 -21.68 22.66 -21 23 C-21 23.99 -21 24.98 -21 26 C-15.14158464 24.63213651 -11.8266849 21.63047312 -7.6875 17.5 C-7.05956543 16.87722168 -6.43163086 16.25444336 -5.78466797 15.61279297 C-2.3292385 11.98603528 -0.09189059 9.29785126 0.375 4.125 C0.32602159 1.80948884 0.32602159 1.80948884 0 0 Z " fill="#949BA8" transform="translate(427,539)"/>
<path d="M0 0 C3.35867712 0.75970078 6.52123658 1.87093255 9.75 3.0625 C11.22726562 3.60583984 11.22726562 3.60583984 12.734375 4.16015625 C13.48203125 4.43730469 14.2296875 4.71445312 15 5 C15 6.33333333 15 7.66666667 15 9 C7.64770241 9.36761488 7.64770241 9.36761488 4.6875 7.6875 C4.130625 7.130625 3.57375 6.57375 3 6 C2.4225 5.505 1.845 5.01 1.25 4.5 C0 3 0 3 0 0 Z " fill="#858A94" transform="translate(281,256)"/>
<path d="M0 0 C7.59 0 15.18 0 23 0 C23 0.33 23 0.66 23 1 C16.07 1 9.14 1 2 1 C2.66 2.65 3.32 4.3 4 6 C11.59 6.33 19.18 6.66 27 7 C27 7.33 27 7.66 27 8 C18.42 8 9.84 8 1 8 C0.67 5.36 0.34 2.72 0 0 Z " fill="#8C919C" transform="translate(271,519)"/>
<path d="M0 0 C0.33 0 0.66 0 1 0 C1.09765625 6.15234375 1.09765625 6.15234375 1 8 C-1.35955511 10.35955511 -7.26752826 9.18542405 -10.4375 9.1875 C-11.41783203 9.19974609 -12.39816406 9.21199219 -13.40820312 9.22460938 C-14.34470703 9.22654297 -15.28121094 9.22847656 -16.24609375 9.23046875 C-17.10904053 9.23457764 -17.9719873 9.23868652 -18.86108398 9.24291992 C-21 9 -21 9 -23 7 C-22.40985107 6.97494385 -21.81970215 6.9498877 -21.21166992 6.92407227 C-18.53673186 6.80799948 -15.8621362 6.68532428 -13.1875 6.5625 C-12.25873047 6.52318359 -11.32996094 6.48386719 -10.37304688 6.44335938 C-9.48037109 6.40146484 -8.58769531 6.35957031 -7.66796875 6.31640625 C-6.84578857 6.27974854 -6.0236084 6.24309082 -5.17651367 6.20532227 C-2.82094822 6.06572228 -2.82094822 6.06572228 0 5 C0 3.35 0 1.7 0 0 Z " fill="#7F8590" transform="translate(350,193)"/>
<path d="M0 0 C0.66 0.33 1.32 0.66 2 1 C1.67 2.32 1.34 3.64 1 5 C2.32 5.33 3.64 5.66 5 6 C5 6.66 5 7.32 5 8 C11.27 8 17.54 8 24 8 C24 8.33 24 8.66 24 9 C16.41 9.33 8.82 9.66 1 10 C1 9.34 1 8.68 1 8 C0.34 8 -0.32 8 -1 8 C-1.04241723 5.66705225 -1.04092937 3.33297433 -1 1 C-0.67 0.67 -0.34 0.34 0 0 Z " fill="#929AA6" transform="translate(324,195)"/>
<path d="M0 0 C0.33 0 0.66 0 1 0 C1 2.64 1 5.28 1 8 C4.96 8.33 8.92 8.66 13 9 C13.20483028 16.99976044 13.13480153 24.26134446 11 32 C10.10493183 29.03013448 9.96684831 26.74360212 10.33984375 23.671875 C10.4800293 22.47304687 10.4800293 22.47304687 10.62304688 21.25 C10.72681641 20.425 10.83058594 19.6 10.9375 18.75 C11.03740234 17.90953125 11.13730469 17.0690625 11.24023438 16.203125 C11.48704258 14.13463723 11.74266284 12.06720428 12 10 C7.71 10 3.42 10 -1 10 C-0.67 6.7 -0.34 3.4 0 0 Z " fill="#9498A7" transform="translate(428,182)"/>
<path d="M0 0 C2.58077166 1.6365869 3.61511721 2.33794753 5 5 C5.3324533 11.12147707 5.22885694 17.6275036 2 23 C1.93941406 21.92621094 1.87882812 20.85242188 1.81640625 19.74609375 C1.73192349 18.30988685 1.64727946 16.87368942 1.5625 15.4375 C1.52318359 14.73302734 1.48386719 14.02855469 1.44335938 13.30273438 C1.17481721 8.8201459 0.69383803 4.43706503 0 0 Z " fill="#9297A0" transform="translate(345,217)"/>
<path d="M0 0 C0.33 0 0.66 0 1 0 C1 7.92 1 15.84 1 24 C1.66 24 2.32 24 3 24 C3 23.01 3 22.02 3 21 C5.31 21 7.62 21 10 21 C9.34 22.32 8.68 23.64 8 25 C5.36 25 2.72 25 0 25 C0 16.75 0 8.5 0 0 Z " fill="#898890" transform="translate(298,317)"/>
<path d="M0 0 C0.33 0 0.66 0 1 0 C1 2.31 1 4.62 1 7 C4.63 7.33 8.26 7.66 12 8 C12 8.99 12 9.98 12 11 C10.18818595 11.19401633 8.37551468 11.38004375 6.5625 11.5625 C5.04849609 11.71912109 5.04849609 11.71912109 3.50390625 11.87890625 C2.67761719 11.91886719 1.85132813 11.95882813 1 12 C0 11 0 11 -0.09765625 8.49609375 C-0.08605469 7.48675781 -0.07445312 6.47742188 -0.0625 5.4375 C-0.05347656 4.42558594 -0.04445313 3.41367187 -0.03515625 2.37109375 C-0.02355469 1.58863281 -0.01195312 0.80617188 0 0 Z " fill="#A51A1B" transform="translate(307,325)"/>
<path d="M0 0 C1.65 0.99 3.3 1.98 5 3 C3.57904457 6.3326532 1.8834126 8.23606522 -0.875 10.5625 C-1.55304688 11.14128906 -2.23109375 11.72007812 -2.9296875 12.31640625 C-4.91651825 13.93211201 -6.93937141 15.4799399 -9 17 C-7.46401812 13.54404076 -5.41603323 10.89923988 -3 8 C-2.54753906 7.45472656 -2.09507812 6.90945313 -1.62890625 6.34765625 C-0.42277725 4.89551794 0.78820911 3.4474169 2 2 C1.34 2 0.68 2 0 2 C0 1.34 0 0.68 0 0 Z " fill="#89909B" transform="translate(437,511)"/>
<path d="M0 0 C2.89916094 3.27731236 3.52863126 5.67911985 4 10 C4.12632812 10.88816406 4.25265625 11.77632813 4.3828125 12.69140625 C4.50398438 13.65949219 4.62515625 14.62757813 4.75 15.625 C4.86859375 16.54539062 4.9871875 17.46578125 5.109375 18.4140625 C4.97731055 21.53644352 4.07095947 22.72621461 2 25 C1.90912109 23.17275391 1.90912109 23.17275391 1.81640625 21.30859375 C1.73193597 19.68488723 1.64729128 18.06118978 1.5625 16.4375 C1.50352539 15.23770508 1.50352539 15.23770508 1.44335938 14.01367188 C1.19251844 9.28628494 0.74678186 4.67523099 0 0 Z " fill="#9097A4" transform="translate(356,320)"/>
<path d="M0 0 C0.66 0.33 1.32 0.66 2 1 C2.40729228 3.32156597 2.74438677 5.6568787 3 8 C1.02 7.34 -0.96 6.68 -3 6 C-3 5.34 -3 4.68 -3 4 C-4.32 4.33 -5.64 4.66 -7 5 C-7 4.34 -7 3.68 -7 3 C-7.61875 3.20625 -8.2375 3.4125 -8.875 3.625 C-9.57625 3.74875 -10.2775 3.8725 -11 4 C-11.66 3.34 -12.32 2.68 -13 2 C-8.71 2 -4.42 2 0 2 C0 1.34 0 0.68 0 0 Z " fill="#8C929E" transform="translate(316,227)"/>
<path d="M0 0 C2.97 0 5.94 0 9 0 C7.68 0.33 6.36 0.66 5 1 C4.9175 1.7425 4.835 2.485 4.75 3.25 C3.8603054 6.51221354 2.51496251 7.80954878 0 10 C0 6.7 0 3.4 0 0 Z " fill="#656972" transform="translate(299,317)"/>
<path d="M0 0 C2.375 0.25 2.375 0.25 5 1 C6.3125 3.0625 6.3125 3.0625 7 5 C6 6 6 6 3.93359375 6.09765625 C3.10988281 6.08605469 2.28617187 6.07445312 1.4375 6.0625 C0.61121094 6.05347656 -0.21507812 6.04445313 -1.06640625 6.03515625 C-1.70449219 6.02355469 -2.34257812 6.01195312 -3 6 C-3 5.01 -3 4.02 -3 3 C-1.35 2.67 0.3 2.34 2 2 C1.34 1.34 0.68 0.68 0 0 Z " fill="#818691" transform="translate(312,318)"/>
<path d="M0 0 C2.53125 0.20703125 2.53125 0.20703125 5.5 0.8125 C6.96953125 1.10060547 6.96953125 1.10060547 8.46875 1.39453125 C11 2 11 2 13 3 C13 3.66 13 4.32 13 5 C7.1977825 5.36263859 3.36000789 4.25684543 -2 2 C-1.34 1.34 -0.68 0.68 0 0 Z " fill="#70767F" transform="translate(301,223)"/>
<path d="M0 0 C0.70125 0.144375 1.4025 0.28875 2.125 0.4375 C5.07556141 1.01478375 8.03270151 1.51695141 11 2 C11 2.66 11 3.32 11 4 C13.31 4.66 15.62 5.32 18 6 C18 6.66 18 7.32 18 8 C6.35294118 4.19852941 6.35294118 4.19852941 1 2 C0.67 1.34 0.34 0.68 0 0 Z " fill="#858B97" transform="translate(431,473)"/>
<path d="M0 0 C3 2 3 2 3.75 4.75 C4.40753434 10.79673737 3.54367825 16.96935359 3 23 C2.67 23 2.34 23 2 23 C1.93941406 22.01 1.87882812 21.02 1.81640625 20 C1.39539534 13.30533362 0.94925871 6.64481097 0 0 Z " fill="#7F848D" transform="translate(349,312)"/>
<path d="M0 0 C0.66 0.33 1.32 0.66 2 1 C1.278125 1.65226563 0.55625 2.30453125 -0.1875 2.9765625 C-1.115625 3.85054687 -2.04375 4.72453125 -3 5.625 C-3.928125 6.48351562 -4.85625 7.34203125 -5.8125 8.2265625 C-8.36728517 11.46566512 -8.47161454 12.97948601 -8 17 C-10.17672381 13.73491429 -10.63428711 12.78873284 -10 9 C-7.8125 6.54296875 -7.8125 6.54296875 -5 4.1875 C-4.071875 3.39730469 -3.14375 2.60710938 -2.1875 1.79296875 C-1.1046875 0.90544922 -1.1046875 0.90544922 0 0 Z " fill="#969DAA" transform="translate(434,522)"/>
<path d="M0 0 C3 0.25 3 0.25 5 2.25 C7.31648799 3.28842565 9.64903024 4.2921975 12 5.25 C8.8568669 6.82156655 6.634536 5.36705576 3.375 4.3125 C1.59222656 3.74208984 1.59222656 3.74208984 -0.2265625 3.16015625 C-1.14179688 2.85980469 -2.05703125 2.55945313 -3 2.25 C-3.33 3.57 -3.66 4.89 -4 6.25 C-4.625 4.375 -4.625 4.375 -5 2.25 C-3 0.25 -3 0.25 0 0 Z " fill="#949BA7" transform="translate(386,450.75)"/>
<path d="M0 0 C14.45394185 1.02663512 14.45394185 1.02663512 20 3 C20.33 3.66 20.66 4.32 21 5 C20.13117188 4.855625 19.26234375 4.71125 18.3671875 4.5625 C17.21476562 4.376875 16.06234375 4.19125 14.875 4 C13.73804688 3.814375 12.60109375 3.62875 11.4296875 3.4375 C8.02909006 2.90847482 8.02909006 2.90847482 4.6953125 3.125 C3.80585938 3.08375 2.91640625 3.0425 2 3 C1.34 2.01 0.68 1.02 0 0 Z " fill="#858991" transform="translate(293,221)"/>
<path d="M0 0 C2.375 0.625 2.375 0.625 5 2 C6.3125 5.125 6.3125 5.125 7 8 C6.34 7.67 5.68 7.34 5 7 C5 8.98 5 10.96 5 13 C3.09610151 10.14415227 2.30537823 8.0688238 1.375 4.8125 C0.98441406 3.46091797 0.98441406 3.46091797 0.5859375 2.08203125 C0.39257812 1.39496094 0.19921875 0.70789063 0 0 Z " fill="#959BA5" transform="translate(345,306)"/>
<path d="M0 0 C0.71484375 1.546875 0.71484375 1.546875 1 4 C-0.05391226 6.53857885 -1.13965574 8.84495527 -2.4375 11.25 C-2.77587891 11.8996875 -3.11425781 12.549375 -3.46289062 13.21875 C-4.29786887 14.81814494 -5.14753114 16.40985859 -6 18 C-6.33 17.34 -6.66 16.68 -7 16 C-6.07421875 13.57421875 -6.07421875 13.57421875 -4.6875 10.6875 C-3.00771667 7.15947369 -1.41369226 3.64374203 0 0 Z " fill="#868C98" transform="translate(352,447)"/>
<path d="M0 0 C2.9375 0.8125 2.9375 0.8125 6 2 C6.33 2.99 6.66 3.98 7 5 C8.49985609 6.66710346 8.49985609 6.66710346 10 8 C8.35 7.67 6.7 7.34 5 7 C5 6.34 5 5.68 5 5 C3.35 4.67 1.7 4.34 0 4 C0 2.68 0 1.36 0 0 Z " fill="#7D828B" transform="translate(449,482)"/>
<path d="M0 0 C0.33 0.66 0.66 1.32 1 2 C-0.16369126 5.49107379 -0.88973538 5.85222763 -3.9375 7.6875 C-4.64777344 8.12449219 -5.35804688 8.56148437 -6.08984375 9.01171875 C-8 10 -8 10 -10 10 C-10 9.34 -10 8.68 -10 8 C-8.33333333 7 -6.66666667 6 -5 5 C-3.2958946 3.37163262 -1.61974559 1.71230248 0 0 Z " fill="#BEC3CB" transform="translate(404,557)"/>
<path d="M0 0 C2.86724686 0.57344937 3.8614515 0.8614515 6 3 C6.625 5.125 6.625 5.125 7 7 C3.76509224 6.44225728 2.02144994 5.62788492 0 3 C0 2.01 0 1.02 0 0 Z " fill="#9298A2" transform="translate(281,256)"/>
<path d="M0 0 C3.21029714 1.10699901 4.00968977 2.01603825 5.8125 5 C6.204375 5.99 6.59625 6.98 7 8 C6.67 8.66 6.34 9.32 6 10 C0.42857143 3.71428571 0.42857143 3.71428571 0 0 Z " fill="#8E94A0" transform="translate(341,175)"/>
<path d="M0 0 C1.44010481 0.25662245 2.8770687 0.53090821 4.3125 0.8125 C5.11300781 0.96332031 5.91351563 1.11414063 6.73828125 1.26953125 C9.23445587 2.07572236 10.32422106 3.02052002 12 5 C7.6822542 4.49202991 3.96697886 3.80317221 0 2 C0 1.34 0 0.68 0 0 Z " fill="#808792" transform="translate(465,488)"/>
<path d="M0 0 C0.93423645 3.01031744 1.04449911 3.86650268 0 7 C-0.66 7 -1.32 7 -2 7 C-2.28875 7.969375 -2.5775 8.93875 -2.875 9.9375 C-4 13 -4 13 -6 14 C-4.45941767 8.98491285 -2.97068161 4.3852919 0 0 Z " fill="#AEB1B6" transform="translate(341,453)"/>
<path d="M0 0 C4.75 0.75 4.75 0.75 7 3 C6.01 3.495 6.01 3.495 5 4 C4.67 4.66 4.34 5.32 4 6 C2 4.6875 2 4.6875 0 3 C0 2.01 0 1.02 0 0 Z " fill="#9298A2" transform="translate(281,215)"/>
<path d="M0 0 C0.66 0.33 1.32 0.66 2 1 C-3.0940919 7.70459519 -3.0940919 7.70459519 -6.875 8.9375 C-7.57625 8.958125 -8.2775 8.97875 -9 9 C-6 6 -3 3 0 0 Z " fill="#898F9B" transform="translate(348,359)"/>
<path d="M0 0 C0 0.99 0 1.98 0 3 C-2.97 3 -5.94 3 -9 3 C-6.40821726 0.40821726 -3.54324677 -1.77162338 0 0 Z " fill="#717680" transform="translate(316,186)"/>
<path d="M0 0 C0 3 0 3 -1.0625 5 C-2.34011157 7.12797292 -2.34011157 7.12797292 -1 10 C-2.32 9.67 -3.64 9.34 -5 9 C-3.90931332 5.22454612 -3.0916909 2.52956528 0 0 Z " fill="#9BA0A9" transform="translate(456,505)"/>
<path d="M0 0 C1.65 1.65 3.3 3.3 5 5 C4.01 5.66 3.02 6.32 2 7 C0.4375 5.1875 0.4375 5.1875 -1 3 C-0.67 2.01 -0.34 1.02 0 0 Z " fill="#9297A1" transform="translate(351,504)"/>
<path d="M0 0 C0.99 0.33 1.98 0.66 3 1 C3 3.31 3 5.62 3 8 C1.5 6.8125 1.5 6.8125 0 5 C-0.1875 2.3125 -0.1875 2.3125 0 0 Z " fill="#8A909C" transform="translate(341,483)"/>
<path d="M0 0 C-2.06756277 2.7972908 -3.14440371 3.02692273 -6.6875 3.6875 C-7.780625 3.790625 -8.87375 3.89375 -10 4 C-6.66064924 0.50886057 -4.84725717 -0.1275594 0 0 Z " fill="#9299A5" transform="translate(336,268)"/>
<path d="M0 0 C2.16874252 0.50603992 3.99967627 0.99983813 6 2 C6 2.66 6 3.32 6 4 C4.02 4 2.04 4 0 4 C0 2.68 0 1.36 0 0 Z " fill="#797F89" transform="translate(325,196)"/>
<path d="M0 0 C0.33 0.66 0.66 1.32 1 2 C0.22265625 3.9453125 0.22265625 3.9453125 -0.9375 6.125 C-1.31777344 6.84945313 -1.69804687 7.57390625 -2.08984375 8.3203125 C-2.39019531 8.87460937 -2.69054687 9.42890625 -3 10 C-3.62109375 8.203125 -3.62109375 8.203125 -4 6 C-2.0625 2.75 -2.0625 2.75 0 0 Z " fill="#878D99" transform="translate(344,467)"/>
</svg>
