<?xml version="1.0" encoding="UTF-8"?>
<svg version="1.1" xmlns="http://www.w3.org/2000/svg" width="720" height="720">
<path d="M0 0 C3.5071744 0.01073575 7.01383685 0.0000171 10.52099609 -0.01269531 C25.28666211 -0.02146843 40.38180663 -0.01984412 55.00927734 2.26074219 C55.33927734 2.59074219 55.66927734 2.92074219 56.00927734 3.26074219 C59.34221218 3.70889953 62.6739481 4.08090853 66.01904297 4.42285156 C69.80938197 4.84939474 72.66367746 5.48993983 76.00927734 7.26074219 C78.37318699 7.79192659 80.7504642 8.26504411 83.13427734 8.69824219 C91.68667145 10.31743489 99.78090785 12.79122793 108.00146484 15.61230469 C109.98842491 16.25400774 111.97841179 16.77807011 114.00927734 17.26074219 C114.00927734 17.92074219 114.00927734 18.58074219 114.00927734 19.26074219 C114.87423828 19.38707031 115.73919922 19.51339844 116.63037109 19.64355469 C119.90826038 20.24229053 122.91286632 21.08413052 126.07177734 22.13574219 C127.07337891 22.46316406 128.07498047 22.79058594 129.10693359 23.12792969 C131.98808793 24.25247176 134.38130976 25.64194711 137.00927734 27.26074219 C138.93433735 28.1830044 140.87214509 29.07912902 142.82177734 29.94824219 C144.28550781 30.60373047 144.28550781 30.60373047 145.77880859 31.27246094 C146.51486328 31.59859375 147.25091797 31.92472656 148.00927734 32.26074219 C148.00927734 32.92074219 148.00927734 33.58074219 148.00927734 34.26074219 C149.21583984 34.35355469 149.21583984 34.35355469 150.44677734 34.44824219 C154.44057911 35.35910926 157.30747117 36.93418021 160.81787109 38.98339844 C163.4868003 40.53908445 166.23290395 41.90815002 169.00927734 43.26074219 C169.00927734 43.92074219 169.00927734 44.58074219 169.00927734 45.26074219 C170.98927734 45.92074219 172.96927734 46.58074219 175.00927734 47.26074219 C175.00927734 47.92074219 175.00927734 48.58074219 175.00927734 49.26074219 C175.79302734 49.40511719 176.57677734 49.54949219 177.38427734 49.69824219 C180.00927734 50.26074219 180.00927734 50.26074219 182.00927734 51.26074219 C182.00927734 51.92074219 182.00927734 52.58074219 182.00927734 53.26074219 C182.62802734 53.40511719 183.24677734 53.54949219 183.88427734 53.69824219 C186.00927734 54.26074219 186.00927734 54.26074219 188.00927734 55.26074219 C188.00927734 55.92074219 188.00927734 56.58074219 188.00927734 57.26074219 C188.60740234 57.36386719 189.20552734 57.46699219 189.82177734 57.57324219 C192.31796751 58.3577591 193.266596 59.35963526 195.00927734 61.26074219 C195.66927734 61.59074219 196.32927734 61.92074219 197.00927734 62.26074219 C197.00927734 62.92074219 197.00927734 63.58074219 197.00927734 64.26074219 C197.59193359 64.37546875 198.17458984 64.49019531 198.77490234 64.60839844 C201.17450869 65.30898281 202.73788667 66.24266813 204.75927734 67.69824219 C205.37287109 68.13007812 205.98646484 68.56191406 206.61865234 69.00683594 C207.07755859 69.420625 207.53646484 69.83441406 208.00927734 70.26074219 C208.00927734 70.92074219 208.00927734 71.58074219 208.00927734 72.26074219 C208.99927734 72.59074219 209.98927734 72.92074219 211.00927734 73.26074219 C212.02947308 74.24013009 213.0307754 75.23969668 214.00927734 76.26074219 C214.66927734 76.59074219 215.32927734 76.92074219 216.00927734 77.26074219 C216.00927734 77.92074219 216.00927734 78.58074219 216.00927734 79.26074219 C216.79302734 79.50824219 217.57677734 79.75574219 218.38427734 80.01074219 C221.33244842 81.41463318 221.91175505 82.26749956 223.00927734 85.26074219 C223.66927734 85.26074219 224.32927734 85.26074219 225.00927734 85.26074219 C225.25677734 86.06511719 225.50427734 86.86949219 225.75927734 87.69824219 C226.17177734 88.54386719 226.58427734 89.38949219 227.00927734 90.26074219 C228.33076561 90.63831026 229.66763656 90.96259979 231.00927734 91.26074219 C236.77449474 95.55639436 236.77449474 95.55639436 238.00927734 99.26074219 C239.73386452 100.8458407 241.55877807 102.23628066 243.41552734 103.66308594 C245.00927734 105.26074219 245.00927734 105.26074219 245.54052734 107.38964844 C245.69521484 108.00710937 245.84990234 108.62457031 246.00927734 109.26074219 C246.99927734 109.59074219 247.98927734 109.92074219 249.00927734 110.26074219 C253.00927734 114.71788504 253.00927734 114.71788504 253.00927734 117.26074219 C253.99927734 117.59074219 254.98927734 117.92074219 256.00927734 118.26074219 C259.94534451 122.69080968 262.99552575 127.7489001 266.20458984 132.71386719 C267.7594247 135.33216051 267.7594247 135.33216051 270.00927734 136.26074219 C270.73621638 138.23963179 271.40743986 140.24028776 272.00927734 142.26074219 C272.66927734 142.26074219 273.32927734 142.26074219 274.00927734 142.26074219 C274.29802734 143.06511719 274.58677734 143.86949219 274.88427734 144.69824219 C275.74190302 147.39338898 275.74190302 147.39338898 278.00927734 148.26074219 C278.60433733 150.3059854 278.96394516 152.35408176 279.34912109 154.44824219 C279.56697266 155.04636719 279.78482422 155.64449219 280.00927734 156.26074219 C280.99927734 156.59074219 281.98927734 156.92074219 283.00927734 157.26074219 C283.00927734 158.25074219 283.00927734 159.24074219 283.00927734 160.26074219 C283.66927734 160.26074219 284.32927734 160.26074219 285.00927734 160.26074219 C285.66927734 162.57074219 286.32927734 164.88074219 287.00927734 167.26074219 C287.66927734 167.26074219 288.32927734 167.26074219 289.00927734 167.26074219 C290.26592712 170.1667448 291.00927734 172.05678803 291.00927734 175.26074219 C291.66927734 175.26074219 292.32927734 175.26074219 293.00927734 175.26074219 C293.66927734 177.57074219 294.32927734 179.88074219 295.00927734 182.26074219 C295.66927734 182.26074219 296.32927734 182.26074219 297.00927734 182.26074219 C297.33927734 184.57074219 297.66927734 186.88074219 298.00927734 189.26074219 C298.66927734 189.26074219 299.32927734 189.26074219 300.00927734 189.26074219 C301.01704764 192.00811596 302.01569181 194.75824171 303.00927734 197.51074219 C303.29544922 198.28804687 303.58162109 199.06535156 303.87646484 199.86621094 C304.14716797 200.6203125 304.41787109 201.37441406 304.69677734 202.15136719 C304.94814453 202.84262695 305.19951172 203.53388672 305.45849609 204.24609375 C306.00927734 206.26074219 306.00927734 206.26074219 306.00927734 210.26074219 C306.99927734 210.59074219 307.98927734 210.92074219 309.00927734 211.26074219 C309.66943359 213.15136719 309.66943359 213.15136719 310.07177734 215.51074219 C310.58128716 218.21671029 311.08626866 220.44894319 312.13427734 223.01074219 C313.12713793 225.56381225 313.16445825 227.54507638 313.00927734 230.26074219 C313.66927734 230.26074219 314.32927734 230.26074219 315.00927734 230.26074219 C315.20263672 231.19015625 315.39599609 232.11957031 315.59521484 233.07714844 C316.88695065 239.20969614 318.2720558 245.23837417 320.00927734 251.26074219 C320.55020658 253.90970448 321.0583221 256.56212754 321.54443359 259.22167969 C321.81519507 261.24407748 321.81519507 261.24407748 323.00927734 262.26074219 C323.42071113 265.17981985 323.77089169 268.07975864 324.07177734 271.01074219 C324.16120605 271.86514893 324.25063477 272.71955566 324.34277344 273.59985352 C325.02397018 280.51497362 325.23386553 287.31098554 325.00927734 294.26074219 C325.66927734 294.26074219 326.32927734 294.26074219 327.00927734 294.26074219 C327.0324065 301.54495767 327.05019536 308.82916529 327.06108952 316.11341 C327.06631709 319.49546031 327.07341245 322.87748558 327.0847168 326.25952148 C327.09762001 330.14403996 327.10250658 334.02854815 327.10693359 337.91308594 C327.11209488 339.13285629 327.11725616 340.35262665 327.12257385 341.60935974 C327.12264938 342.73044632 327.12272491 343.8515329 327.12280273 345.0065918 C327.12502335 345.99920517 327.12724396 346.99181854 327.12953186 348.01451111 C327.00927734 350.26074219 327.00927734 350.26074219 326.00927734 351.26074219 C325.73259725 353.56269033 325.5166185 355.87197637 325.32568359 358.18261719 C325.20150279 359.61492344 325.07714823 361.04721464 324.95263672 362.47949219 C324.76126547 364.74164245 324.57233368 367.00395149 324.38696289 369.26660156 C324.20656953 371.44756921 324.01663897 373.62755249 323.82568359 375.80761719 C323.71683838 377.11569336 323.60799316 378.42376953 323.49584961 379.77148438 C323.05025048 382.96691977 322.30648496 385.33601799 321.00927734 388.26074219 C320.58354629 390.35523387 320.2092724 392.4607743 319.88427734 394.57324219 C319.71669922 395.641875 319.54912109 396.71050781 319.37646484 397.81152344 C319.25529297 398.61976563 319.13412109 399.42800781 319.00927734 400.26074219 C318.34927734 400.26074219 317.68927734 400.26074219 317.00927734 400.26074219 C317.07115234 401.74574219 317.07115234 401.74574219 317.13427734 403.26074219 C317.15161214 407.49910085 316.15118897 411.19268203 315.00927734 415.26074219 C314.34927734 415.26074219 313.68927734 415.26074219 313.00927734 415.26074219 C312.67927734 418.56074219 312.34927734 421.86074219 312.00927734 425.26074219 C311.34927734 425.26074219 310.68927734 425.26074219 310.00927734 425.26074219 C309.90615234 426.45699219 309.80302734 427.65324219 309.69677734 428.88574219 C309.20792932 432.86636184 307.86689279 435.69412054 306.00927734 439.26074219 C305.21897807 441.91113611 304.61480685 444.55914899 304.00927734 447.26074219 C303.34927734 447.26074219 302.68927734 447.26074219 302.00927734 447.26074219 C301.34927734 450.23074219 300.68927734 453.20074219 300.00927734 456.26074219 C299.34927734 456.26074219 298.68927734 456.26074219 298.00927734 456.26074219 C297.67927734 458.24074219 297.34927734 460.22074219 297.00927734 462.26074219 C296.34927734 462.26074219 295.68927734 462.26074219 295.00927734 462.26074219 C294.86490234 463.02386719 294.72052734 463.78699219 294.57177734 464.57324219 C294.00927734 467.26074219 294.00927734 467.26074219 293.00927734 470.26074219 C292.34927734 470.26074219 291.68927734 470.26074219 291.00927734 470.26074219 C290.86490234 471.02386719 290.72052734 471.78699219 290.57177734 472.57324219 C290.00927734 475.26074219 290.00927734 475.26074219 289.00927734 478.26074219 C288.34927734 478.26074219 287.68927734 478.26074219 287.00927734 478.26074219 C286.86490234 479.04449219 286.72052734 479.82824219 286.57177734 480.63574219 C286.00927734 483.26074219 286.00927734 483.26074219 285.00927734 485.26074219 C284.34927734 485.26074219 283.68927734 485.26074219 283.00927734 485.26074219 C282.67927734 486.58074219 282.34927734 487.90074219 282.00927734 489.26074219 C281.34927734 489.26074219 280.68927734 489.26074219 280.00927734 489.26074219 C279.89712891 489.98648437 279.78498047 490.71222656 279.66943359 491.45996094 C278.97966347 494.38638212 277.9541692 496.48362028 276.44677734 499.07324219 C275.99173828 499.8634375 275.53669922 500.65363281 275.06787109 501.46777344 C274.71853516 502.05945313 274.36919922 502.65113281 274.00927734 503.26074219 C273.34927734 503.26074219 272.68927734 503.26074219 272.00927734 503.26074219 C271.34927734 504.91074219 270.68927734 506.56074219 270.00927734 508.26074219 C269.34927734 508.26074219 268.68927734 508.26074219 268.00927734 508.26074219 C267.86490234 508.87949219 267.72052734 509.49824219 267.57177734 510.13574219 C267.00927734 512.26074219 267.00927734 512.26074219 266.00927734 514.26074219 C265.34927734 514.26074219 264.68927734 514.26074219 264.00927734 514.26074219 C263.67927734 515.58074219 263.34927734 516.90074219 263.00927734 518.26074219 C262.34927734 518.26074219 261.68927734 518.26074219 261.00927734 518.26074219 C260.34927734 519.91074219 259.68927734 521.56074219 259.00927734 523.26074219 C258.34927734 523.26074219 257.68927734 523.26074219 257.00927734 523.26074219 C256.91130859 523.84082031 256.81333984 524.42089844 256.71240234 525.01855469 C255.86815949 527.71075136 254.66773346 529.069631 252.75927734 531.13574219 C250.58103945 533.5269239 248.45687684 535.91433826 246.44677734 538.44824219 C244.00927734 541.26074219 244.00927734 541.26074219 240.94677734 543.76074219 C237.90478357 546.10645909 237.90478357 546.10645909 236.07177734 549.26074219 C233.8883177 552.43668349 231.95639125 553.82156151 228.81396484 555.90527344 C226.25885975 557.82436753 224.36495823 560.13374514 222.36865234 562.61230469 C219.96542317 565.52656536 218.64241303 567.06692514 214.94677734 568.19824219 C211.92517538 568.94568082 211.92517538 568.94568082 210.82177734 571.19824219 C210.55365234 571.87886719 210.28552734 572.55949219 210.00927734 573.26074219 C208.57177734 575.01074219 208.57177734 575.01074219 207.00927734 576.26074219 C206.01927734 576.26074219 205.02927734 576.26074219 204.00927734 576.26074219 C204.00927734 576.92074219 204.00927734 577.58074219 204.00927734 578.26074219 C203.41115234 578.52886719 202.81302734 578.79699219 202.19677734 579.07324219 C199.97930605 580.13370947 199.97930605 580.13370947 198.50927734 581.82324219 C197.00927734 583.26074219 197.00927734 583.26074219 194.88427734 583.76074219 C194.26552734 583.92574219 193.64677734 584.09074219 193.00927734 584.26074219 C192.67927734 585.25074219 192.34927734 586.24074219 192.00927734 587.26074219 C191.34927734 587.26074219 190.68927734 587.26074219 190.00927734 587.26074219 C190.00927734 587.92074219 190.00927734 588.58074219 190.00927734 589.26074219 C188.02927734 589.92074219 186.04927734 590.58074219 184.00927734 591.26074219 C184.00927734 591.92074219 184.00927734 592.58074219 184.00927734 593.26074219 C181.69927734 593.92074219 179.38927734 594.58074219 177.00927734 595.26074219 C177.00927734 595.92074219 177.00927734 596.58074219 177.00927734 597.26074219 C175.02927734 597.92074219 173.04927734 598.58074219 171.00927734 599.26074219 C171.00927734 599.92074219 171.00927734 600.58074219 171.00927734 601.26074219 C169.35927734 601.59074219 167.70927734 601.92074219 166.00927734 602.26074219 C166.00927734 602.92074219 166.00927734 603.58074219 166.00927734 604.26074219 C163.10327473 605.51739197 161.2132315 606.26074219 158.00927734 606.26074219 C158.00927734 606.92074219 158.00927734 607.58074219 158.00927734 608.26074219 C157.03990234 608.54949219 156.07052734 608.83824219 155.07177734 609.13574219 C151.90263531 609.902889 151.90263531 609.902889 151.00927734 612.26074219 C149.16162109 612.89355469 149.16162109 612.89355469 146.94677734 613.38574219 C146.21330078 613.55332031 145.47982422 613.72089844 144.72412109 613.89355469 C144.15822266 614.01472656 143.59232422 614.13589844 143.00927734 614.26074219 C143.00927734 614.92074219 143.00927734 615.58074219 143.00927734 616.26074219 C140.92927723 617.10236073 138.84513588 617.93374982 136.75927734 618.76074219 C135.59912109 619.22480469 134.43896484 619.68886719 133.24365234 620.16699219 C130.00927734 621.26074219 130.00927734 621.26074219 126.00927734 621.26074219 C126.00927734 621.92074219 126.00927734 622.58074219 126.00927734 623.26074219 C122.63830351 624.75895278 120.80485615 625.26074219 117.00927734 625.26074219 C117.00927734 625.92074219 117.00927734 626.58074219 117.00927734 627.26074219 C116.27322266 627.45410156 115.53716797 627.64746094 114.77880859 627.84667969 C113.80298828 628.10707031 112.82716797 628.36746094 111.82177734 628.63574219 C110.37738281 629.01859375 110.37738281 629.01859375 108.90380859 629.40917969 C106.06571919 630.19059556 106.06571919 630.19059556 103.64208984 631.22949219 C100.19202215 632.58085401 96.65911536 633.48640954 93.07177734 634.38574219 C92.03633789 634.65837891 92.03633789 634.65837891 90.97998047 634.93652344 C86.9003962 635.96512004 83.21257492 636.4580801 79.00927734 636.26074219 C79.00927734 636.92074219 79.00927734 637.58074219 79.00927734 638.26074219 C72.88947202 639.66528767 67.2918844 640.49343134 61.00927734 640.26074219 C61.00927734 640.92074219 61.00927734 641.58074219 61.00927734 642.26074219 C60.07543213 642.34638428 59.14158691 642.43202637 58.17944336 642.52026367 C54.72580527 642.83912397 51.27258826 643.16196537 47.81958008 643.48754883 C46.32298518 643.6278292 44.82623905 643.76650541 43.3293457 643.90356445 C41.18187657 644.1004691 39.03501154 644.30307407 36.88818359 644.50683594 C35.59468994 644.62728271 34.30119629 644.74772949 32.96850586 644.87182617 C30.12733207 644.9397078 30.12733207 644.9397078 29.00927734 646.26074219 C27.41864425 646.35928641 25.82366257 646.38872912 24.22998047 646.39013672 C22.70334778 646.39486496 22.70334778 646.39486496 21.14587402 646.39968872 C20.03860962 646.39766449 18.93134521 646.39564026 17.79052734 646.39355469 C16.66231567 646.39451141 15.534104 646.39546814 14.3717041 646.39645386 C11.98087509 646.39713586 9.59004423 646.39528016 7.19921875 646.39111328 C3.52518583 646.38576534 -0.14872482 646.39105762 -3.82275391 646.39746094 C-6.13916043 646.39680016 -8.45556687 646.395519 -10.77197266 646.39355469 C-12.43286926 646.39659103 -12.43286926 646.39659103 -14.12731934 646.39968872 C-15.14507446 646.39653656 -16.16282959 646.3933844 -17.21142578 646.39013672 C-18.11219849 646.38934113 -19.01297119 646.38854553 -19.94104004 646.38772583 C-21.99072266 646.26074219 -21.99072266 646.26074219 -22.99072266 645.26074219 C-24.44270146 645.04563422 -25.903589 644.88988964 -27.36572266 644.76074219 C-28.26935547 644.67824219 -29.17298828 644.59574219 -30.10400391 644.51074219 C-31.53292969 644.38699219 -31.53292969 644.38699219 -32.99072266 644.26074219 C-52.76030791 642.49115693 -52.76030791 642.49115693 -53.99072266 641.26074219 C-56.84299285 640.69729475 -59.68703874 640.17939274 -62.55322266 639.69824219 C-63.76268555 639.49038086 -63.76268555 639.49038086 -64.99658203 639.27832031 C-66.99402077 638.93556455 -68.99229738 638.59769831 -70.99072266 638.26074219 C-70.99072266 637.60074219 -70.99072266 636.94074219 -70.99072266 636.26074219 C-72.41384766 636.32261719 -72.41384766 636.32261719 -73.86572266 636.38574219 C-80.79441458 636.38574219 -87.50424947 634.57733975 -93.99072266 632.26074219 C-95.31983948 631.9109746 -96.65155005 631.56978202 -97.99072266 631.26074219 C-97.99072266 630.60074219 -97.99072266 629.94074219 -97.99072266 629.26074219 C-99.06322266 629.11636719 -100.13572266 628.97199219 -101.24072266 628.82324219 C-103.90735215 628.42324776 -106.40471995 627.98482295 -108.99072266 627.26074219 C-108.99072266 626.60074219 -108.99072266 625.94074219 -108.99072266 625.26074219 C-109.89822266 625.11636719 -110.80572266 624.97199219 -111.74072266 624.82324219 C-114.20549221 624.39664746 -116.57919373 623.90999998 -118.99072266 623.26074219 C-118.99072266 622.60074219 -118.99072266 621.94074219 -118.99072266 621.26074219 C-119.96009766 621.17824219 -120.92947266 621.09574219 -121.92822266 621.01074219 C-126.66191367 620.36082969 -130.73056673 618.33768895 -134.99072266 616.26074219 C-134.99072266 615.60074219 -134.99072266 614.94074219 -134.99072266 614.26074219 C-135.62880859 614.13957031 -136.26689453 614.01839844 -136.92431641 613.89355469 C-137.75060547 613.72597656 -138.57689453 613.55839844 -139.42822266 613.38574219 C-140.25193359 613.22332031 -141.07564453 613.06089844 -141.92431641 612.89355469 C-142.60623047 612.68472656 -143.28814453 612.47589844 -143.99072266 612.26074219 C-144.32072266 611.60074219 -144.65072266 610.94074219 -144.99072266 610.26074219 C-147.49428001 608.92492183 -149.99484349 607.66980548 -152.55322266 606.44824219 C-158.24134291 603.66600945 -163.80932003 600.93090238 -168.99072266 597.26074219 C-168.99072266 596.60074219 -168.99072266 595.94074219 -168.99072266 595.26074219 C-169.77447266 595.11636719 -170.55822266 594.97199219 -171.36572266 594.82324219 C-173.99072266 594.26074219 -173.99072266 594.26074219 -175.99072266 593.26074219 C-175.99072266 592.60074219 -175.99072266 591.94074219 -175.99072266 591.26074219 C-176.87759766 591.03386719 -177.76447266 590.80699219 -178.67822266 590.57324219 C-182.45514765 589.07672474 -184.21927535 587.17805514 -186.99072266 584.26074219 C-189.1569281 582.96554223 -189.1569281 582.96554223 -190.99072266 582.26074219 C-190.99072266 581.60074219 -190.99072266 580.94074219 -190.99072266 580.26074219 C-192.97072266 579.60074219 -194.95072266 578.94074219 -196.99072266 578.26074219 C-196.99072266 577.60074219 -196.99072266 576.94074219 -196.99072266 576.26074219 C-198.64072266 575.60074219 -200.29072266 574.94074219 -201.99072266 574.26074219 C-201.99072266 573.60074219 -201.99072266 572.94074219 -201.99072266 572.26074219 C-202.98072266 571.93074219 -203.97072266 571.60074219 -204.99072266 571.26074219 C-204.99072266 570.60074219 -204.99072266 569.94074219 -204.99072266 569.26074219 C-206.64072266 568.60074219 -208.29072266 567.94074219 -209.99072266 567.26074219 C-209.99072266 566.60074219 -209.99072266 565.94074219 -209.99072266 565.26074219 C-211.31072266 564.60074219 -212.63072266 563.94074219 -213.99072266 563.26074219 C-213.99072266 562.60074219 -213.99072266 561.94074219 -213.99072266 561.26074219 C-214.56822266 560.99261719 -215.14572266 560.72449219 -215.74072266 560.44824219 C-218.04622308 559.2314503 -220.01128458 557.9574034 -221.99072266 556.26074219 C-221.99072266 555.60074219 -221.99072266 554.94074219 -221.99072266 554.26074219 C-222.58884766 554.01324219 -223.18697266 553.76574219 -223.80322266 553.51074219 C-226.30699185 552.08001694 -227.47144653 550.69158398 -228.99072266 548.26074219 C-228.99072266 547.60074219 -228.99072266 546.94074219 -228.99072266 546.26074219 C-229.98072266 546.26074219 -230.97072266 546.26074219 -231.99072266 546.26074219 C-231.99072266 545.60074219 -231.99072266 544.94074219 -231.99072266 544.26074219 C-232.65072266 544.26074219 -233.31072266 544.26074219 -233.99072266 544.26074219 C-234.23822266 543.47699219 -234.48572266 542.69324219 -234.74072266 541.88574219 C-236.14461365 538.93757111 -236.99748003 538.35826449 -239.99072266 537.26074219 C-239.99072266 536.60074219 -239.99072266 535.94074219 -239.99072266 535.26074219 C-240.98072266 534.93074219 -241.97072266 534.60074219 -242.99072266 534.26074219 C-243.48572266 532.77574219 -243.48572266 532.77574219 -243.99072266 531.26074219 C-244.98072266 530.60074219 -245.97072266 529.94074219 -246.99072266 529.26074219 C-246.99072266 528.60074219 -246.99072266 527.94074219 -246.99072266 527.26074219 C-247.65072266 527.26074219 -248.31072266 527.26074219 -248.99072266 527.26074219 C-249.25884766 526.66261719 -249.52697266 526.06449219 -249.80322266 525.44824219 C-250.86368994 523.23077089 -250.86368994 523.23077089 -252.55322266 521.76074219 C-254.25388277 519.98614033 -254.57866448 518.65067962 -254.99072266 516.26074219 C-255.65072266 516.26074219 -256.31072266 516.26074219 -256.99072266 516.26074219 C-257.98072266 513.78574219 -257.98072266 513.78574219 -258.99072266 511.26074219 C-259.65072266 511.26074219 -260.31072266 511.26074219 -260.99072266 511.26074219 C-261.48572266 509.77574219 -261.48572266 509.77574219 -261.99072266 508.26074219 C-262.65072266 507.93074219 -263.31072266 507.60074219 -263.99072266 507.26074219 C-264.7176617 505.28185258 -265.38888517 503.28119661 -265.99072266 501.26074219 C-266.65072266 501.26074219 -267.31072266 501.26074219 -267.99072266 501.26074219 C-268.99581067 499.47192483 -269.99465002 497.67959523 -270.99072266 495.88574219 C-271.82603516 494.38914062 -271.82603516 494.38914062 -272.67822266 492.86230469 C-273.99072266 490.26074219 -273.99072266 490.26074219 -273.99072266 488.26074219 C-274.65072266 488.26074219 -275.31072266 488.26074219 -275.99072266 488.26074219 C-276.99072266 486.26074219 -277.99072266 484.26074219 -278.99072266 482.26074219 C-279.57853516 481.17792969 -279.57853516 481.17792969 -280.17822266 480.07324219 C-280.99072266 478.26074219 -280.99072266 478.26074219 -280.99072266 475.26074219 C-281.65072266 475.26074219 -282.31072266 475.26074219 -282.99072266 475.26074219 C-288.54653131 464.88716588 -288.54653131 464.88716588 -288.99072266 459.26074219 C-289.65072266 459.26074219 -290.31072266 459.26074219 -290.99072266 459.26074219 C-291.32072266 456.95074219 -291.65072266 454.64074219 -291.99072266 452.26074219 C-292.65072266 452.26074219 -293.31072266 452.26074219 -293.99072266 452.26074219 C-299.99072266 439.15394607 -299.99072266 439.15394607 -299.99072266 433.26074219 C-300.65072266 433.26074219 -301.31072266 433.26074219 -301.99072266 433.26074219 C-302.16087891 432.43832031 -302.33103516 431.61589844 -302.50634766 430.76855469 C-303.63617772 425.56412471 -304.73150749 420.52882087 -306.86572266 415.63574219 C-311.75788581 404.06389473 -314.29190076 391.51279765 -315.63134766 379.06933594 C-315.82697623 376.31317205 -315.82697623 376.31317205 -316.99072266 374.26074219 C-319.4398646 358.50321889 -319.30654255 342.33442745 -319.25146484 326.43603516 C-319.24073263 322.76415506 -319.2514395 319.09276398 -319.26416016 315.42089844 C-319.28141242 285.11171286 -319.28141242 285.11171286 -316.99072266 271.26074219 C-316.66072266 270.93074219 -316.33072266 270.60074219 -315.99072266 270.26074219 C-315.69401317 268.20085257 -315.403099 266.13997068 -315.140625 264.07543945 C-313.72285245 253.03589499 -310.99791644 242.79866792 -307.58740234 232.22607422 C-306.88991543 229.9287053 -306.38303156 227.62894838 -305.99072266 225.26074219 C-305.33072266 225.26074219 -304.67072266 225.26074219 -303.99072266 225.26074219 C-303.92884766 224.06449219 -303.86697266 222.86824219 -303.80322266 221.63574219 C-302.70769622 211.71340271 -298.16794715 202.23403925 -293.99072266 193.26074219 C-293.33072266 193.26074219 -292.67072266 193.26074219 -291.99072266 193.26074219 C-291.90822266 192.29136719 -291.82572266 191.32199219 -291.74072266 190.32324219 C-291.09081016 185.58955117 -289.06766942 181.52089811 -286.99072266 177.26074219 C-286.33072266 177.26074219 -285.67072266 177.26074219 -284.99072266 177.26074219 C-284.89597656 176.28621094 -284.89597656 176.28621094 -284.79931641 175.29199219 C-283.64827995 170.97699562 -281.38213399 167.54318162 -279.05322266 163.76074219 C-275.02921897 157.25923161 -275.02921897 157.25923161 -271.99072266 150.26074219 C-271.33072266 150.26074219 -270.67072266 150.26074219 -269.99072266 150.26074219 C-269.00072266 147.29074219 -269.00072266 147.29074219 -267.99072266 144.26074219 C-267.33072266 144.26074219 -266.67072266 144.26074219 -265.99072266 144.26074219 C-265.33072266 142.61074219 -264.67072266 140.96074219 -263.99072266 139.26074219 C-263.33072266 139.26074219 -262.67072266 139.26074219 -261.99072266 139.26074219 C-261.66072266 137.94074219 -261.33072266 136.62074219 -260.99072266 135.26074219 C-260.33072266 135.26074219 -259.67072266 135.26074219 -258.99072266 135.26074219 C-258.84634766 134.64199219 -258.70197266 134.02324219 -258.55322266 133.38574219 C-257.99072266 131.26074219 -257.99072266 131.26074219 -256.99072266 129.26074219 C-256.33072266 129.26074219 -255.67072266 129.26074219 -254.99072266 129.26074219 C-254.74322266 128.55949219 -254.49572266 127.85824219 -254.24072266 127.13574219 C-252.81892027 123.86559671 -251.11825977 121.11962019 -248.99072266 118.26074219 C-248.33072266 118.26074219 -247.67072266 118.26074219 -246.99072266 118.26074219 C-246.49572266 116.28074219 -246.49572266 116.28074219 -245.99072266 114.26074219 C-245.00072266 114.26074219 -244.01072266 114.26074219 -242.99072266 114.26074219 C-242.92884766 113.70386719 -242.86697266 113.14699219 -242.80322266 112.57324219 C-241.64264575 109.27006177 -239.5885882 107.54179486 -236.99072266 105.26074219 C-236.33072266 105.26074219 -235.67072266 105.26074219 -234.99072266 105.26074219 C-234.68134766 104.64199219 -234.37197266 104.02324219 -234.05322266 103.38574219 C-233.36572266 102.01074219 -232.67822266 100.63574219 -231.99072266 99.26074219 C-231.00072266 99.26074219 -230.01072266 99.26074219 -228.99072266 99.26074219 C-228.88759766 98.62136719 -228.78447266 97.98199219 -228.67822266 97.32324219 C-228.45134766 96.64261719 -228.22447266 95.96199219 -227.99072266 95.26074219 C-227.00072266 94.93074219 -226.01072266 94.60074219 -224.99072266 94.26074219 C-224.49572266 92.77574219 -224.49572266 92.77574219 -223.99072266 91.26074219 C-222.65738932 90.92740885 -221.32405599 90.59407552 -219.99072266 90.26074219 C-219.49572266 88.77574219 -219.49572266 88.77574219 -218.99072266 87.26074219 C-218.33072266 87.26074219 -217.67072266 87.26074219 -216.99072266 87.26074219 C-216.76384766 86.68324219 -216.53697266 86.10574219 -216.30322266 85.51074219 C-214.65020827 82.67700324 -212.59430052 81.22930106 -209.99072266 79.26074219 C-209.49572266 78.76574219 -209.00072266 78.27074219 -208.49072266 77.76074219 C-206.99072266 76.26074219 -206.99072266 76.26074219 -204.55322266 74.32324219 C-202.0111554 72.3528295 -202.0111554 72.3528295 -199.99072266 70.26074219 C-197.7734379 68.04345743 -195.53903583 66.09030037 -192.99072266 64.26074219 C-192.00072266 64.26074219 -191.01072266 64.26074219 -189.99072266 64.26074219 C-189.99072266 63.60074219 -189.99072266 62.94074219 -189.99072266 62.26074219 C-189.02134766 61.99261719 -188.05197266 61.72449219 -187.05322266 61.44824219 C-185.53728516 60.86042969 -185.53728516 60.86042969 -183.99072266 60.26074219 C-183.66072266 59.27074219 -183.33072266 58.28074219 -182.99072266 57.26074219 C-177.61929408 53.26074219 -177.61929408 53.26074219 -174.99072266 53.26074219 C-174.99072266 52.60074219 -174.99072266 51.94074219 -174.99072266 51.26074219 C-172.34333349 49.80011368 -171.09623931 49.26074219 -167.99072266 49.26074219 C-167.99072266 48.60074219 -167.99072266 47.94074219 -167.99072266 47.26074219 C-165.34333349 45.80011368 -164.09623931 45.26074219 -160.99072266 45.26074219 C-160.99072266 44.60074219 -160.99072266 43.94074219 -160.99072266 43.26074219 C-158.54150391 41.60449219 -158.54150391 41.60449219 -155.30322266 39.76074219 C-154.24748047 39.15230469 -153.19173828 38.54386719 -152.10400391 37.91699219 C-145.23128869 34.26074219 -145.23128869 34.26074219 -140.99072266 34.26074219 C-140.99072266 33.60074219 -140.99072266 32.94074219 -140.99072266 32.26074219 C-137.9026257 30.49611536 -136.7576013 30.26074219 -132.99072266 30.26074219 C-132.99072266 29.60074219 -132.99072266 28.94074219 -132.99072266 28.26074219 C-130.09956511 27.04864177 -127.20666796 25.84102801 -124.31103516 24.63964844 C-122.2403104 23.77968863 -120.1721241 22.91355879 -118.10791016 22.03808594 C-116.81240234 21.49861328 -116.81240234 21.49861328 -115.49072266 20.94824219 C-114.33056641 20.45904297 -114.33056641 20.45904297 -113.14697266 19.95996094 C-110.99072266 19.26074219 -110.99072266 19.26074219 -106.99072266 19.26074219 C-106.99072266 18.60074219 -106.99072266 17.94074219 -106.99072266 17.26074219 C-106.16830078 17.09058594 -105.34587891 16.92042969 -104.49853516 16.74511719 C-98.15134465 15.36720516 -92.30662309 13.70667009 -86.33056641 11.17871094 C-80.29429758 8.81055873 -74.43637918 7.98645893 -67.99072266 8.26074219 C-67.99072266 7.60074219 -67.99072266 6.94074219 -67.99072266 6.26074219 C-67.42039307 6.1751001 -66.85006348 6.08945801 -66.26245117 6.0012207 C-63.6920445 5.61281418 -61.12264371 5.2181139 -58.55322266 4.82324219 C-57.65539062 4.68853516 -56.75755859 4.55382813 -55.83251953 4.41503906 C-54.97851562 4.28291016 -54.12451172 4.15078125 -53.24462891 4.01464844 C-52.45386963 3.89420166 -51.66311035 3.77375488 -50.84838867 3.6496582 C-48.98369649 3.43611777 -48.98369649 3.43611777 -47.99072266 2.26074219 C-32.20889683 -0.199821 -15.9261919 -0.05772773 0 0 Z " fill="#1B2A49" transform="translate(356.99072265625,37.7392578125)"/>
<path d="M0 0 C9.24 0 18.48 0 28 0 C28.33 10.89 28.66 21.78 29 33 C39.97285578 34.03795627 39.97285578 34.03795627 44.5 30.875 C47.82746285 26.76918327 48.78473072 21.58839251 50.0625 16.5625 C53.14285714 4.85714286 53.14285714 4.85714286 57 1 C59.79736328 0.77294922 59.79736328 0.77294922 63.3203125 0.8046875 C65.20556641 0.81435547 65.20556641 0.81435547 67.12890625 0.82421875 C69.10697266 0.84935547 69.10697266 0.84935547 71.125 0.875 C72.46483721 0.88503017 73.80468152 0.89415596 75.14453125 0.90234375 C78.42986573 0.92597925 81.71484465 0.95892766 85 1 C84.69802708 2.59972177 84.39107447 4.19850406 84.08203125 5.796875 C83.82643433 7.13250488 83.82643433 7.13250488 83.56567383 8.49511719 C82.97404534 11.11493085 82.06051434 13.4504103 80.92578125 15.8828125 C79.6002523 18.91419093 78.49746955 22.01313917 77.375 25.125 C76.94960938 26.30320312 76.52421875 27.48140625 76.0859375 28.6953125 C75.17294275 31.47370658 74.48865423 34.12236955 74 37 C72.68 37.33 71.36 37.66 70 38 C69.896875 38.9075 69.79375 39.815 69.6875 40.75 C68.97982855 44.09535596 68.02287287 45.36147017 66 48 C65.53968284 51.83457352 65.53968284 51.83457352 67.3125 53.375 C67.869375 53.91125 68.42625 54.4475 69 55 C70.04622875 56.97620986 71.05439935 58.9737129 72 61 C72.99 61 73.98 61 75 61 C75.268125 60.195625 75.53625 59.39125 75.8125 58.5625 C76.204375 57.716875 76.59625 56.87125 77 56 C77.99 55.67 78.98 55.34 80 55 C80.33 54.01 80.66 53.02 81 52 C82.48828125 50.4296875 82.48828125 50.4296875 84.3125 48.875 C84.90675781 48.35679687 85.50101562 47.83859375 86.11328125 47.3046875 C88.1732587 45.88018963 89.51486957 45.28142552 92 45 C94.140625 45.55859375 94.140625 45.55859375 96.25 46.4375 C97.30960938 46.86869141 97.30960938 46.86869141 98.390625 47.30859375 C99.18726563 47.65083984 99.18726563 47.65083984 100 48 C100 48.66 100 49.32 100 50 C100.69996094 50.10828125 101.39992188 50.2165625 102.12109375 50.328125 C105.37353608 51.08717531 108.05309469 52.30309881 111.0625 53.75 C115.34000391 55.77086799 119.62126668 57.70896433 124 59.5 C128.30655867 61.26591692 132.53381042 63.15291132 136.75 65.125 C140.11394344 66.69749427 143.42999845 68.21847494 146.9375 69.4375 C150.69649225 70.77490987 154.20183222 72.56562519 157.75 74.375 C166.205093 78.6773904 174.76447903 82.69111976 184 85 C184 88 184 88 182.56640625 89.5078125 C181.90511719 90.04148437 181.24382812 90.57515625 180.5625 91.125 C176.39003856 94.59833243 172.63705008 98.35959408 168.8828125 102.27734375 C167 104 167 104 165 104 C165 104.99 165 105.98 165 107 C162.69 106.67 160.38 106.34 158 106 C158 105.34 158 104.68 158 104 C152.32183945 102.76757878 152.32183945 102.76757878 146.9375 104.4375 C143.91847956 107.07111358 141.42786747 109.84259299 138.87890625 112.921875 C136.92626144 115.081557 134.85175377 116.76985684 132.5625 118.5625 C129.54919901 121.11624351 129.07197504 121.53616083 128.4375 125.625 C129.11731242 129.83313784 129.11731242 129.83313784 130 134 C130.66 134 131.32 134 132 134 C132.3984375 136.07421875 132.3984375 136.07421875 132 139 C130.14584507 141.54927227 127.90981038 143.65060663 125.625 145.8125 C125.02171875 146.40998047 124.4184375 147.00746094 123.796875 147.62304688 C119.29486607 152 119.29486607 152 117 152 C116.62875 152.9590625 116.62875 152.9590625 116.25 153.9375 C115 156 115 156 112.921875 156.62890625 C111.97054687 156.81259766 111.97054687 156.81259766 111 157 C107.8602107 151.16718983 105.35511574 145.54746691 103.67578125 139.12890625 C103.02468315 136.73698192 103.02468315 136.73698192 101 134 C101 133.01 101 132.02 101 131 C100.34 131 99.68 131 99 131 C98.67386719 130.20335937 98.34773438 129.40671875 98.01171875 128.5859375 C95.33475296 122.04265609 95.33475296 122.04265609 92.25 115.6875 C90.75375226 112.47056735 90.35131677 109.51316772 90 106 C89.34 106 88.68 106 88 106 C86.68 103.03 85.36 100.06 84 97 C82.88927124 97.08809937 82.88927124 97.08809937 81.75610352 97.17797852 C61.46747564 98.48155731 61.46747564 98.48155731 56.03027344 94.59033203 C52.91170301 90.76012028 51.35571508 86.19918951 49.83789062 81.54785156 C48.66268036 77.97428096 47.28162855 74.51323438 45.79125977 71.06005859 C45.0711766 69.38989888 44.40191803 67.69663026 43.79272461 65.98291016 C42.78507526 63.27779114 42.78507526 63.27779114 40 60 C36.04 59.67 32.08 59.34 28 59 C28 71.21 28 83.42 28 96 C18.76 96 9.52 96 0 96 C0 64.32 0 32.64 0 0 Z " fill="#FBFBFC" transform="translate(273,388)"/>
<path d="M0 0 C12.28467153 0 12.28467153 0 17.4375 0.9375 C22.80358194 1.84787471 28.10953662 2.39727519 33.5390625 2.75390625 C36 3 36 3 39 4 C41.83168318 4.30294382 44.66402835 4.50755058 47.50390625 4.71875 C50 5 50 5 52 6 C52.44075315 18.34108807 50.09911453 30.54136575 48.11279297 42.6784668 C46.71644635 51.41410396 45.83801297 60.19593431 45 69 C44.34 69 43.68 69 43 69 C42.90912109 70.37285156 42.90912109 70.37285156 42.81640625 71.7734375 C42.73261719 72.96195312 42.64882813 74.15046875 42.5625 75.375 C42.48128906 76.55835938 42.40007812 77.74171875 42.31640625 78.9609375 C42 82 42 82 41 84 C40.50110251 86.89420653 40.04669234 89.78183239 39.625 92.6875 C39.49633545 93.55858398 39.3676709 94.42966797 39.23510742 95.32714844 C37.69724625 105.86769176 36.34172854 116.43298894 35 127 C34.34 127 33.68 127 33 127 C33.05220703 128.01707031 33.05220703 128.01707031 33.10546875 129.0546875 C33.14607422 130.45074219 33.14607422 130.45074219 33.1875 131.875 C33.22230469 132.77992188 33.25710938 133.68484375 33.29296875 134.6171875 C33 138 33 138 30 148 C20.1 148 10.2 148 0 148 C0 99.16 0 50.32 0 0 Z " fill="#EAA700" transform="translate(381,173)"/>
<path d="M0 0 C7.940625 -0.020625 15.88125 -0.04125 24.0625 -0.0625 C26.5569165 -0.071604 29.05133301 -0.08070801 31.62133789 -0.09008789 C33.61344346 -0.09301037 35.60554964 -0.09555815 37.59765625 -0.09765625 C39.13093567 -0.1053302 39.13093567 -0.1053302 40.69519043 -0.11315918 C54.98592027 -0.11489665 54.98592027 -0.11489665 61 4 C62.16982422 4.68835938 62.16982422 4.68835938 63.36328125 5.390625 C71.4175751 10.30672732 76.05082492 15.12624168 78.41796875 24.421875 C79.87735442 33.39366876 79.83212378 42.32662092 77 51 C76.34 51 75.68 51 75 51 C74.62875 52.3303125 74.62875 52.3303125 74.25 53.6875 C72.95035375 57.13156256 71.51270773 59.33024803 69 62 C68.34 62 67.68 62 67 62 C66.7215625 62.8971875 66.7215625 62.8971875 66.4375 63.8125 C64.33853807 67.0065725 61.54911194 67.98976589 58 69 C55.00635898 69.49418836 52.02678836 69.8009595 49 70 C49 70.66 49 71.32 49 72 C41.41 72 33.82 72 26 72 C26 79.59 26 87.18 26 95 C17.42 95 8.84 95 0 95 C0 63.65 0 32.3 0 0 Z " fill="#FCFCFC" transform="translate(279,276)"/>
<path d="M0 0 C6.54987916 4.47433303 11.44277298 9.44455652 14 17 C14 20.3 14 23.6 14 27 C5.75 27 -2.5 27 -11 27 C-11.99 25.02 -12.98 23.04 -14 21 C-18.18991181 17.40864702 -21.7257461 17.66512674 -27 18 C-29.33308448 18.26499604 -29.33308448 18.26499604 -31 19 C-32.39431504 21.78863007 -32.25660094 23.92078868 -32 27 C-31.01 27.66 -30.02 28.32 -29 29 C-29 29.66 -29 30.32 -29 31 C-27.97261719 31.24234375 -26.94523437 31.4846875 -25.88671875 31.734375 C5.38579302 39.2344774 5.38579302 39.2344774 13 49 C13.73046875 51.26171875 13.73046875 51.26171875 14.1875 53.6875 C14.34605469 54.49574219 14.50460937 55.30398437 14.66796875 56.13671875 C14.83232422 57.05904297 14.83232422 57.05904297 15 58 C15.66 58 16.32 58 17 58 C17.02707139 60.24993359 17.04642829 62.49996095 17.0625 64.75 C17.07410156 66.00296875 17.08570313 67.2559375 17.09765625 68.546875 C17.02021027 71.28536501 16.82780815 73.41880293 16 76 C15.34 76 14.68 76 14 76 C14 76.99 14 77.98 14 79 C13.34 79 12.68 79 12 79 C11.7525 79.7425 11.505 80.485 11.25 81.25 C9.89534961 84.23023087 8.4898459 85.89919252 6 88 C5.34 88 4.68 88 4 88 C4 88.66 4 89.32 4 90 C2.65144038 90.65746104 1.29575969 91.30031975 -0.0625 91.9375 C-0.81660156 92.29714844 -1.57070313 92.65679687 -2.34765625 93.02734375 C-8.73560884 95.36990663 -15.47180931 95.18256562 -22.1875 95.1875 C-23.07630859 95.19974609 -23.96511719 95.21199219 -24.88085938 95.22460938 C-26.16766602 95.22750977 -26.16766602 95.22750977 -27.48046875 95.23046875 C-28.25285889 95.23457764 -29.02524902 95.23868652 -29.82104492 95.24291992 C-32.27241041 94.96963044 -33.85113718 94.17660343 -36 93 C-37.4918285 92.66906621 -38.99297786 92.3778907 -40.5 92.125 C-44.50746879 91.29858254 -46.31987743 90.17644156 -49 87 C-49.99 86.5359375 -49.99 86.5359375 -51 86.0625 C-53.78781519 84.58147318 -55.20810658 82.55984774 -57 80 C-57 79.34 -57 78.68 -57 78 C-57.66 78 -58.32 78 -59 78 C-60.6957905 72.06473326 -61 68.56353916 -61 62 C-52.09 62 -43.18 62 -34 62 C-33.67 64.31 -33.34 66.62 -33 69 C-29.91961849 72.18306089 -26.73538841 72.23229823 -22.5 72.375 C-16.64877779 72.23291349 -16.64877779 72.23291349 -12 69 C-11.29337877 66.265214 -11.14024404 63.85162874 -11 61 C-12.2065625 60.62875 -12.2065625 60.62875 -13.4375 60.25 C-16.11980219 59.30884134 -18.41370415 58.31005817 -20.9375 57.0625 C-26.23206003 54.62232012 -31.73789679 53.80772553 -37.44921875 52.90625 C-41.3500582 51.91065621 -43.78097738 50.37747813 -47 48 C-48.010625 47.401875 -49.02125 46.80375 -50.0625 46.1875 C-53.71139771 43.47023575 -55.57967783 40.84404109 -58 37 C-58 36.34 -58 35.68 -58 35 C-58.66 35 -59.32 35 -60 35 C-61.15835838 31.3226718 -61.13312878 27.83678577 -61.125 24 C-61.12886719 22.1746875 -61.12886719 22.1746875 -61.1328125 20.3125 C-61.02616155 17.65249989 -60.79307874 15.51771029 -60 13 C-59.34 13 -58.68 13 -58 13 C-57.7525 11.7315625 -57.7525 11.7315625 -57.5 10.4375 C-54.40809923 3.35189406 -48.66836319 -0.0471777 -41.6875 -2.9375 C-27.9909323 -7.35149023 -12.8806328 -6.51608483 0 0 Z " fill="#F9FAFA" transform="translate(331,172)"/>
<path d="M0 0 C4.3841205 2.96224358 6.47953941 5.9992503 8 11 C8.28008381 13.76788705 8.42244916 16.24794858 8.375 19 C8.38660156 19.67289063 8.39820313 20.34578125 8.41015625 21.0390625 C8.36422599 28.96968708 5.16797826 34.51855881 -0.02734375 40.19921875 C-3.79444163 43.63809424 -7.85202999 46 -13 46 C-13 46.66 -13 47.32 -13 48 C-15.475 48.495 -15.475 48.495 -18 49 C-16.35 49.66 -14.7 50.32 -13 51 C-16.07609689 51.90735251 -18.751623 52.09596751 -21.95214844 52.02172852 C-23.44367432 51.99109314 -23.44367432 51.99109314 -24.96533203 51.95983887 C-26.00286621 51.9331311 -27.04040039 51.90642334 -28.109375 51.87890625 C-29.06859863 51.85824097 -30.02782227 51.83757568 -31.01611328 51.81628418 C-34.59421058 51.73760898 -38.17209519 51.64948995 -41.75 51.5625 C-49.7525 51.376875 -57.755 51.19125 -66 51 C-66 82.35 -66 113.7 -66 146 C-57.42 146 -48.84 146 -40 146 C-40 138.41 -40 130.82 -40 123 C-32.41 123 -24.82 123 -17 123 C-17 122.34 -17 121.68 -17 121 C-16.01 120.81566406 -15.02 120.63132812 -14 120.44140625 C-5.95570067 118.74904859 -0.63031851 117.0708537 4.546875 110.26171875 C6.28510193 107.55625265 7.77911524 104.9759066 9 102 C9.66 102 10.32 102 11 102 C12.88871244 90.43163633 12.88878071 79.13394952 9 68 C13.8 70.46153846 13.8 70.46153846 14.8125 73.1875 C14.874375 73.785625 14.93625 74.38375 15 75 C15.66 75 16.32 75 17 75 C20.57888577 85.73665732 19.91604808 98.16896426 17 109 C15.515 109.495 15.515 109.495 14 110 C12.75938703 112.0328042 12.75938703 112.0328042 11.6875 114.4375 C9.8554754 117.95632773 9.40926024 118.80695272 5.6875 120.5625 C4.3571875 120.7790625 4.3571875 120.7790625 3 121 C3 121.66 3 122.32 3 123 C-3.24273068 125.4793824 -8.28299653 126.31985731 -15 126 C-15 126.66 -15 127.32 -15 128 C-21.27 128 -27.54 128 -34 128 C-34 135.59 -34 143.18 -34 151 C-42.91 151 -51.82 151 -61 151 C-61 149.68 -61 148.36 -61 147 C-63.31 147 -65.62 147 -68 147 C-68.02312132 134.37004515 -68.04091401 121.7400953 -68.05181217 109.11012363 C-68.05704146 103.24617836 -68.06413994 97.38224751 -68.07543945 91.51831055 C-68.0862667 85.86438288 -68.09227649 80.21046913 -68.09487724 74.55653191 C-68.09673179 72.3942639 -68.10035295 70.23199669 -68.10573006 68.06973457 C-68.11293833 65.05241343 -68.11399103 62.03515057 -68.11352539 59.01782227 C-68.11712067 58.1143959 -68.12071594 57.21096954 -68.12442017 56.28016663 C-68.11405216 50.11405216 -68.11405216 50.11405216 -67 49 C-65.51361008 48.84344973 -64.02050873 48.74933057 -62.52734375 48.68359375 C-61.62822266 48.64169922 -60.72910156 48.59980469 -59.80273438 48.55664062 C-58.85720703 48.51732422 -57.91167969 48.47800781 -56.9375 48.4375 C-55.98810547 48.39431641 -55.03871094 48.35113281 -54.06054688 48.30664062 C-51.70718647 48.20020724 -49.35371646 48.09818992 -47 48 C-47.79664063 47.5875 -48.59328125 47.175 -49.4140625 46.75 C-56.21221216 43.04492574 -61.02466142 39.71274278 -65 33 C-62.79812777 34.07544075 -60.74729817 35.1639147 -58.6875 36.5 C-55.54230621 38.255457 -52.47808527 39.09827419 -49 40 C-47.515 40.495 -47.515 40.495 -46 41 C-42.79584551 41.22886818 -39.58649282 41.18516945 -36.375 41.1875 C-35.51003906 41.19974609 -34.64507812 41.21199219 -33.75390625 41.22460938 C-27.33204823 41.23905133 -20.73742189 40.93222154 -14.93115234 37.93041992 C-13 37 -13 37 -10 37 C-10 36.34 -10 35.68 -10 35 C-8.49802644 33.75923923 -6.99387685 32.52078183 -5.46875 31.30859375 C-3.71339865 29.74465039 -2.81385136 28.19739866 -2 26 C-1.34 26 -0.68 26 0 26 C0 25.01 0 24.02 0 23 C0.66 23 1.32 23 2 23 C2.33 17.06 2.66 11.12 3 5 C2.34 5 1.68 5 1 5 C0.505 2.525 0.505 2.525 0 0 Z " fill="#8991A1" transform="translate(345,225)"/>
<path d="M0 0 C4.16743017 0.08149361 8.33346255 0.19428454 12.5 0.3125 C14.25957031 0.34633789 14.25957031 0.34633789 16.0546875 0.38085938 C22.61872717 0.58368083 28.13858278 0.89145713 34 4 C34.70117188 6.10668945 34.70117188 6.10668945 35 8 C35.66 8 36.32 8 37 8 C37.02725341 9.7290774 37.04650987 11.45828176 37.0625 13.1875 C37.07410156 14.15042969 37.08570313 15.11335937 37.09765625 16.10546875 C37.00426391 18.87361757 36.5520241 21.29343408 36 24 C35.74122269 27.47500963 35.55863845 30.94976614 35.37890625 34.4296875 C35 38 35 38 34.03881836 41.21948242 C32.95592527 45.16039885 32.40773266 49.00787978 32 53.05859375 C31.91878906 53.8065773 31.83757812 54.55456085 31.75390625 55.32521057 C31.49681304 57.69539674 31.24748913 60.06629307 31 62.4375 C30.67316165 65.56193416 30.33865951 68.68542146 30 71.80859375 C29.92910156 72.51092636 29.85820312 73.21325897 29.78515625 73.93687439 C29.26133162 78.76706731 28.26142449 83.30677819 27 88 C26.34 88 25.68 88 25 88 C24.90912109 89.49853516 24.90912109 89.49853516 24.81640625 91.02734375 C24.73261719 92.31769531 24.64882813 93.60804688 24.5625 94.9375 C24.48128906 96.22527344 24.40007812 97.51304687 24.31640625 98.83984375 C24 102 24 102 23 103 C22.65048584 105.62392195 22.35679454 108.2339445 22.09765625 110.8671875 C21.92794517 112.49090746 21.75801648 114.11460469 21.58789062 115.73828125 C21.32376396 118.30780376 21.06224572 120.87753993 20.80493164 123.44775391 C20.55553978 125.92170217 20.29597092 128.39442118 20.03515625 130.8671875 C19.96112076 131.63602264 19.88708527 132.40485779 19.81080627 133.19699097 C19.42083358 136.84378483 19.07144462 138.89283307 17 142 C16.01 142 15.02 142 14 142 C14 143.98 14 145.96 14 148 C2.78 148 -8.44 148 -20 148 C-20 123.25 -20 98.5 -20 73 C-19.67 73 -19.34 73 -19 73 C-19 97.42 -19 121.84 -19 147 C-9.1 147 0.8 147 11 147 C12.65987209 138.91689586 12.65987209 138.91689586 13.625 130.875 C13.69976562 129.94429687 13.77453125 129.01359375 13.8515625 128.0546875 C13.90054688 127.37664062 13.94953125 126.69859375 14 126 C14.66 126 15.32 126 16 126 C16.05607422 124.45505859 16.05607422 124.45505859 16.11328125 122.87890625 C16.5152441 113.65997564 17.57939423 104.81414698 19.30859375 95.75390625 C19.85247077 92.80099203 20.28090004 89.92245961 20.5625 86.9375 C20.95108076 83.44027316 21.61422167 80.30871348 22.5234375 76.9296875 C23.25263268 73.97704474 23.62298994 71.01608044 24 68 C24.66 68 25.32 68 26 68 C25.97164063 66.7728125 25.94328125 65.545625 25.9140625 64.28125 C25.91640437 58.29543861 26.63605701 52.43285959 27.375 46.5 C27.50132812 45.42363281 27.62765625 44.34726563 27.7578125 43.23828125 C28.32738939 38.56205499 28.94465748 33.9652195 30.03125 29.37890625 C31.20127075 24.43969115 31.67311611 19.48600603 32.125 14.4375 C32.21136719 13.52419922 32.29773438 12.61089844 32.38671875 11.66992188 C32.59620555 9.44703416 32.80054684 7.22380651 33 5 C31.64455078 4.90912109 31.64455078 4.90912109 30.26171875 4.81640625 C29.08222656 4.73261719 27.90273438 4.64882812 26.6875 4.5625 C25.51574219 4.48128906 24.34398437 4.40007812 23.13671875 4.31640625 C20 4 20 4 17 3 C15.66709486 2.79168543 14.32886749 2.61603769 12.98828125 2.46484375 C12.23095703 2.37783203 11.47363281 2.29082031 10.69335938 2.20117188 C9.51483398 2.0706543 9.51483398 2.0706543 8.3125 1.9375 C7.51521484 1.84662109 6.71792969 1.75574219 5.89648438 1.66210938 C3.931315 1.43852723 1.9656983 1.21888316 0 1 C0 0.67 0 0.34 0 0 Z " fill="#6F6340" transform="translate(400,174)"/>
<path d="M0 0 C10.56 0 21.12 0 32 0 C32 13.5 32 13.5 31.5 20.25 C31.36078125 22.17585938 31.36078125 22.17585938 31.21875 24.140625 C31.1465625 25.08421875 31.074375 26.0278125 31 27 C19.87985348 26.41152509 8.98749553 24.74178643 -2 23 C-1.85865273 20.10388456 -1.7120847 17.2081919 -1.5625 14.3125 C-1.52318359 13.49587891 -1.48386719 12.67925781 -1.44335938 11.83789062 C-1.40146484 11.04189453 -1.35957031 10.24589844 -1.31640625 9.42578125 C-1.27974854 8.69786377 -1.24309082 7.96994629 -1.20532227 7.2199707 C-0.98061224 4.79037706 -0.47851613 2.39258065 0 0 Z " fill="#EAA701" transform="translate(380,345)"/>
<path d="M0 0 C4.8 2.46153846 4.8 2.46153846 5.8125 5.1875 C5.874375 5.785625 5.93625 6.38375 6 7 C6.66 7 7.32 7 8 7 C11.57888577 17.73665732 10.91604808 30.16896426 8 41 C6.515 41.495 6.515 41.495 5 42 C3.75938703 44.0328042 3.75938703 44.0328042 2.6875 46.4375 C0.8554754 49.95632773 0.40926024 50.80695272 -3.3125 52.5625 C-4.199375 52.706875 -5.08625 52.85125 -6 53 C-6 53.66 -6 54.32 -6 55 C-12.24273068 57.4793824 -17.28299653 58.31985731 -24 58 C-24 58.66 -24 59.32 -24 60 C-30.27 60 -36.54 60 -43 60 C-43 67.59 -43 75.18 -43 83 C-51.91 83 -60.82 83 -70 83 C-70 81.68 -70 80.36 -70 79 C-62.74 79 -55.48 79 -48 79 C-48 71.08 -48 63.16 -48 55 C-40.74 55 -33.48 55 -26 55 C-26 54.34 -26 53.68 -26 53 C-25.01 52.81566406 -24.02 52.63132812 -23 52.44140625 C-14.95570067 50.74904859 -9.63031851 49.0708537 -4.453125 42.26171875 C-2.71489807 39.55625265 -1.22088476 36.9759066 0 34 C0.66 34 1.32 34 2 34 C3.88871244 22.43163633 3.88878071 11.13394952 0 0 Z " fill="#767F91" transform="translate(354,293)"/>
<path d="M0 0 C4.2945786 2.89417254 6.27006284 4.66154295 7.375 9.8125 C7.60664718 11.20465411 7.82307336 12.59983914 8 14 C8.66 14 9.32 14 10 14 C10 17.3 10 20.6 10 24 C2.41 24 -5.18 24 -13 24 C-13 24.99 -13 25.98 -13 27 C-15.55055803 26.3129109 -18.09878639 25.61883533 -20.64453125 24.9140625 C-22.96890568 24.28088018 -25.30031389 23.67317567 -27.63671875 23.0859375 C-40.0896399 19.83044483 -40.0896399 19.83044483 -44 15 C-44.66397817 10.85013645 -44.35048538 9.52572807 -42 6 C-38.29164031 4.43107859 -33.95656124 4.55863062 -30 5 C-26.32311183 6.63417252 -24.05840515 8.53321238 -22 12 C-22 12.99 -22 13.98 -22 15 C-13.75 15 -5.5 15 3 15 C2.47614836 6.88478973 2.47614836 6.88478973 0 0 Z " fill="#273553" transform="translate(342,184)"/>
<path d="M0 0 C3.3 0 6.6 0 10 0 C10 0.66 10 1.32 10 2 C11.051875 2.103125 12.10375 2.20625 13.1875 2.3125 C17.03095251 3.0055816 18.74342368 3.9856229 22 6 C24.07060663 7.00579985 26.15497477 7.98360566 28.25 8.9375 C29.96896484 9.72060547 29.96896484 9.72060547 31.72265625 10.51953125 C32.80417969 11.00808594 33.88570313 11.49664062 35 12 C35.82371094 12.37511719 36.64742188 12.75023437 37.49609375 13.13671875 C42.12421041 15.22390862 46.80690159 17.13225163 51.52734375 19 C55.39765522 20.56524445 59.19468994 22.28427248 63 24 C65.25343644 24.99196123 67.50711607 25.98334848 69.76171875 26.97265625 C71.44255365 27.74413894 73.09641225 28.57483328 74.734375 29.43359375 C79.2934427 31.62041929 84.02004874 33.15177995 88.81054688 34.75 C92.80918258 36.11729841 96.59893694 37.41384512 100 40 C100 43 100 43 98.49609375 44.54296875 C97.81675781 45.08566406 97.13742187 45.62835938 96.4375 46.1875 C93.44478942 48.68760512 90.79345248 51.23025374 88.25 54.1875 C87.67636719 54.85007812 87.10273438 55.51265625 86.51171875 56.1953125 C85.32054347 57.6173357 84.18126967 59.08283688 83.0625 60.5625 C80.55763084 62.3083179 79.71121736 62.09746333 76.75 61.75 C75.5125 61.5025 74.275 61.255 73 61 C73 60.34 73 59.68 73 59 C74.43359375 57.58984375 74.43359375 57.58984375 76.4375 55.9375 C80.58961788 52.42929345 84.35807233 48.64549595 88.1171875 44.72265625 C90 43 90 43 92 43 C92 42.01 92 41.02 92 40 C91.41734375 39.92523438 90.8346875 39.85046875 90.234375 39.7734375 C83.82642527 38.74574745 78.72884732 36.59048224 73.00390625 33.578125 C65.49786272 29.63476793 57.65697124 26.40906817 49.82421875 23.1796875 C47.42544362 22.17770951 45.05425981 21.13708888 42.6875 20.0625 C39.3741196 18.56787732 36.0200545 17.21124024 32.63500977 15.88720703 C26.03515066 13.30418583 19.68645148 10.47614483 13.390625 7.19921875 C10.95178715 5.90464325 10.95178715 5.90464325 8 5 C8 4.34 8 3.68 8 3 C5.36 2.34 2.72 1.68 0 1 C0 0.67 0 0.34 0 0 Z " fill="#878F9F" transform="translate(365,433)"/>
<path d="M0 0 C2.371875 -0.04125 4.74375 -0.0825 7.1875 -0.125 C7.92508545 -0.14320801 8.6626709 -0.16141602 9.42260742 -0.18017578 C13.41367387 -0.21359187 16.46926211 0.10670577 20 2 C22.8477956 5.23263284 24.25984424 7.79068659 24.4375 12.0625 C23.83605865 17.47547214 22.58270921 19.71875921 18.375 23.125 C14.4559959 25.3022245 11.4636332 25.46688368 7.125 25.25 C4.77375 25.1675 2.4225 25.085 0 25 C0 16.75 0 8.5 0 0 Z " fill="#7F838A" transform="translate(306,299)"/>
<path d="M0 0 C9.9 0 19.8 0 30 0 C29.67 2.31 29.34 4.62 29 7 C31.31 7 33.62 7 36 7 C35.39642089 10.70770024 34.32966051 13.69174949 32.6875 17.0625 C30.29232503 22.15051619 28.51931626 27.28498704 26.89453125 32.6640625 C26 35 26 35 24 36 C23.31270746 38.11846285 23.31270746 38.11846285 22.875 40.5625 C22.70742188 41.38878906 22.53984375 42.21507812 22.3671875 43.06640625 C22.24601562 43.70449219 22.12484375 44.34257812 22 45 C21.34 45 20.68 45 20 45 C19.34 47.31 18.68 49.62 18 52 C17.34 52 16.68 52 16 52 C15.22573891 54.80764728 15.22573891 54.80764728 15 58 C16.31135412 60.36290685 16.31135412 60.36290685 18 62 C16.515 62.495 16.515 62.495 15 63 C11 56.25 11 56.25 11 54 C10.01 53.67 9.02 53.34 8 53 C8.51447387 48.57552471 9.58615605 45.72134275 12 42 C12.33 41.01 12.66 40.02 13 39 C15.0625 38.3125 15.0625 38.3125 17 38 C17.0825 36.906875 17.165 35.81375 17.25 34.6875 C18.09214804 27.90219293 20.83438328 21.65760613 23.5625 15.4375 C25.38237938 11.08561453 26.64455629 6.51814568 28 2 C18.43 2.33 8.86 2.66 -1 3 C-0.67 2.01 -0.34 1.02 0 0 Z " fill="#788192" transform="translate(330,387)"/>
<path d="M0 0 C3.96 0 7.92 0 12 0 C12.99 2.31 13.98 4.62 15 7 C12.03 7 9.06 7 6 7 C6 19.21 6 31.42 6 44 C-3.24 44 -12.48 44 -22 44 C-22.33 41.69 -22.66 39.38 -23 37 C-15.41 37 -7.82 37 0 37 C0 24.79 0 12.58 0 0 Z " fill="#778092" transform="translate(301,447)"/>
<path d="M0 0 C-0.57451904 0.25434814 -1.14903809 0.50869629 -1.7409668 0.77075195 C-6.04940607 3.11517989 -9.3240985 6.78537389 -12.8125 10.1875 C-13.61365234 10.93064453 -14.41480469 11.67378906 -15.24023438 12.43945312 C-19.94579449 16.82818529 -19.94579449 16.82818529 -21.078125 22.91796875 C-20.11262499 25.88702077 -20.11262499 25.88702077 -18.9375 28.125 C-17.59626703 30.80746595 -17.37679794 32.02247907 -18 35 C-19.59040805 36.90312873 -21.3130018 38.55367737 -23.1328125 40.23828125 C-24.78028519 41.79269586 -26.16564571 43.3492604 -27.5625 45.125 C-30.1948254 48.22979406 -32.75797569 50.55047052 -36 53 C-36.66 53 -37.32 53 -38 53 C-38 52.34 -38 51.68 -38 51 C-39.32 50.67 -40.64 50.34 -42 50 C-39.48339602 47.46529095 -36.95330986 44.95579631 -34.359375 42.5 C-33.49828125 41.675 -32.6371875 40.85 -31.75 40 C-30.87859375 39.175 -30.0071875 38.35 -29.109375 37.5 C-26.89349313 34.87376964 -26.31324544 33.37341241 -26 30 C-26.66 30 -27.32 30 -28 30 C-29.99584278 25.88357426 -30.42196743 22.55724828 -30 18 C-28.625 16.0625 -28.625 16.0625 -27 15 C-26.34 15 -25.68 15 -25 15 C-24.34 13.68 -23.68 12.36 -23 11 C-22.34 11 -21.68 11 -21 11 C-20.73960937 10.41476562 -20.47921875 9.82953125 -20.2109375 9.2265625 C-18.92349225 6.85932446 -17.53435473 5.26767914 -15.625 3.375 C-15.03976562 2.78460938 -14.45453125 2.19421875 -13.8515625 1.5859375 C-8.7757861 -2.76166845 -6.10616617 -1.83184985 0 0 Z " fill="#7D8597" transform="translate(431,492)"/>
<path d="M0 0 C2.18795822 1.05346137 4.19860792 2.13415667 6.21484375 3.49609375 C9.47832846 5.25828395 12.21304683 5.69873823 15.875 6.25 C24.3046115 7.6825589 31.45525759 11.09385677 39 15 C39.2890625 22.6875 39.2890625 22.6875 36.6875 25.5 C31.19191882 27.73549065 25.67571618 28.18775532 19.95703125 26.33984375 C18.3125 25.4375 18.3125 25.4375 16 23 C16 20.69 16 18.38 16 16 C7.09 16 -1.82 16 -11 16 C-11 15.67 -11 15.34 -11 15 C-1.76 15 7.48 15 17 15 C17 14.34 17 13.68 17 13 C16.01 13 15.02 13 14 13 C14 12.34 14 11.68 14 11 C13.113125 10.773125 12.22625 10.54625 11.3125 10.3125 C6.13412032 8.26068918 3.14934267 4.47538169 0 0 Z " fill="#32405B" transform="translate(281,218)"/>
<path d="M0 0 C4.16743017 0.08149361 8.33346255 0.19428454 12.5 0.3125 C14.25957031 0.34633789 14.25957031 0.34633789 16.0546875 0.38085938 C22.61872717 0.58368083 28.13858278 0.89145713 34 4 C34.70117188 6.10668945 34.70117188 6.10668945 35 8 C35.66 8 36.32 8 37 8 C37.02725341 9.7290774 37.04650987 11.45828176 37.0625 13.1875 C37.07410156 14.15042969 37.08570313 15.11335937 37.09765625 16.10546875 C37.00426391 18.87361757 36.5520241 21.29343408 36 24 C35.74122269 27.47500963 35.55863845 30.94976614 35.37890625 34.4296875 C35 38 35 38 34.03881836 41.21948242 C32.95592527 45.16039885 32.40773266 49.00787978 32 53.05859375 C31.91878906 53.8065773 31.83757812 54.55456085 31.75390625 55.32521057 C31.49681304 57.69539674 31.24748913 60.06629307 31 62.4375 C30.67316165 65.56193416 30.33865951 68.68542146 30 71.80859375 C29.92910156 72.51092636 29.85820312 73.21325897 29.78515625 73.93687439 C29.26133162 78.76706731 28.26142449 83.30677819 27 88 C26.67 88 26.34 88 26 88 C25.82633841 86.54248309 25.6616016 85.08390329 25.5 83.625 C25.36078125 82.40683594 25.36078125 82.40683594 25.21875 81.1640625 C24.56625094 71.72612974 25.46073304 62.57651097 26.59912109 53.21362305 C26.87475764 50.93949959 27.13918114 48.66426888 27.40234375 46.38867188 C28.17078936 39.87416866 28.99905642 33.4543471 30.55810547 27.07299805 C31.44506983 22.91210613 31.74621175 18.669372 32.125 14.4375 C32.21136719 13.52419922 32.29773438 12.61089844 32.38671875 11.66992188 C32.59620555 9.44703416 32.80054684 7.22380651 33 5 C31.64455078 4.90912109 31.64455078 4.90912109 30.26171875 4.81640625 C28.49248047 4.69072266 28.49248047 4.69072266 26.6875 4.5625 C25.51574219 4.48128906 24.34398437 4.40007812 23.13671875 4.31640625 C20 4 20 4 17 3 C15.66709486 2.79168543 14.32886749 2.61603769 12.98828125 2.46484375 C12.23095703 2.37783203 11.47363281 2.29082031 10.69335938 2.20117188 C9.90767578 2.11416016 9.12199219 2.02714844 8.3125 1.9375 C7.11657227 1.80118164 7.11657227 1.80118164 5.89648438 1.66210938 C3.931315 1.43852723 1.9656983 1.21888316 0 1 C0 0.67 0 0.34 0 0 Z " fill="#595C5E" transform="translate(400,174)"/>
<path d="M0 0 C2.31 0.66 4.62 1.32 7 2 C7 2.66 7 3.32 7 4 C8.299375 4.1546875 8.299375 4.1546875 9.625 4.3125 C13.19910948 5.04055934 15.76316915 6.34855569 19 8 C21.31701518 8.76765755 23.63548233 9.38522541 26 10 C25.625 12.4375 25.625 12.4375 25 15 C24.01 15.495 24.01 15.495 23 16 C22.731875 16.639375 22.46375 17.27875 22.1875 17.9375 C20.5957984 20.70203436 18.93828832 20.92501647 16 22 C14.98131338 22.98095748 13.97648017 23.97702078 13 25 C12.34 25 11.68 25 11 25 C10.11692674 23.23385348 9.23473088 21.46726571 8.35546875 19.69921875 C7.30754633 17.61243375 6.244729 15.53312464 5.17578125 13.45703125 C4.53382883 12.20053378 3.89190186 10.9440233 3.25 9.6875 C2.93216553 9.07696777 2.61433105 8.46643555 2.28686523 7.83740234 C0.85064461 5.0119092 0 3.21737074 0 0 Z " fill="#7B8495" transform="translate(378,467)"/>
<path d="M0 0 C9.9 0 19.8 0 30 0 C29.67 8.25 29.34 16.5 29 25 C27.35 25 25.7 25 24 25 C24.33 19.06 24.66 13.12 25 7 C16.75 7 8.5 7 0 7 C0 4.69 0 2.38 0 0 Z " fill="#465268" transform="translate(387,338)"/>
<path d="M0 0 C2.10353495 -0.0810206 4.20795952 -0.13919907 6.3125 -0.1875 C7.48425781 -0.22230469 8.65601563 -0.25710938 9.86328125 -0.29296875 C13 0 13 0 14.89453125 1.26953125 C16.82292697 4.28818604 16.48193845 7.5862693 16 11 C14.12843553 15.57493538 11.40830916 17.83592096 7 20 C3.63692604 20.31670203 0.36615957 20.23948961 -3 20 C-3 18.68 -3 17.36 -3 16 C0.21182149 14.09391902 2.53882603 13.77733753 6.25 13.875 C7.14203125 13.89304687 8.0340625 13.91109375 8.953125 13.9296875 C9.96632813 13.96449219 9.96632813 13.96449219 11 14 C11 12.68 11 11.36 11 10 C7.37 10 3.74 10 0 10 C0 6.7 0 3.4 0 0 Z " fill="#293448" transform="translate(314,304)"/>
<path d="M0 0 C4.7829292 3.29490678 6.78051216 5.90952343 8.5546875 11.42578125 C9.15603897 14.90201473 9 18.47213622 9 22 C0.75 22 -7.5 22 -16 22 C-16.66 20.35 -17.32 18.7 -18 17 C-20.54775306 16.10613836 -20.54775306 16.10613836 -23 16 C-22.67 14.68 -22.34 13.36 -22 12 C-22 12.99 -22 13.98 -22 15 C-13.75 15 -5.5 15 3 15 C2.47614836 6.88478973 2.47614836 6.88478973 0 0 Z " fill="#717B8D" transform="translate(342,184)"/>
<path d="M0 0 C6.84405889 2.16128176 13.61656621 4.7053245 20 8 C20 11 20 11 18.49609375 12.54296875 C17.81675781 13.08566406 17.13742187 13.62835938 16.4375 14.1875 C13.44478942 16.68760512 10.79345248 19.23025374 8.25 22.1875 C7.67636719 22.85007812 7.10273438 23.51265625 6.51171875 24.1953125 C5.32054347 25.6173357 4.18126967 27.08283688 3.0625 28.5625 C0.55763084 30.3083179 -0.28878264 30.09746333 -3.25 29.75 C-4.4875 29.5025 -5.725 29.255 -7 29 C-7 28.34 -7 27.68 -7 27 C-5.56640625 25.58984375 -5.56640625 25.58984375 -3.5625 23.9375 C0.58961788 20.42929345 4.35807233 16.64549595 8.1171875 12.72265625 C10 11 10 11 12 11 C12 10.01 12 9.02 12 8 C10.9171875 7.8453125 10.9171875 7.8453125 9.8125 7.6875 C6.72206579 6.93206053 4.58256159 5.84468685 2 4 C2 3.34 2 2.68 2 2 C1.01 1.67 0.02 1.34 -1 1 C-0.67 0.67 -0.34 0.34 0 0 Z " fill="#777F91" transform="translate(445,465)"/>
<path d="M0 0 C1.98 0 3.96 0 6 0 C6 8.91 6 17.82 6 27 C9.96 26.505 9.96 26.505 14 26 C13.67 26.66 13.34 27.32 13 28 C11.02090602 28.02686553 9.04171029 28.04633375 7.0625 28.0625 C5.96035156 28.07410156 4.85820312 28.08570313 3.72265625 28.09765625 C1 28 1 28 0 27 C-0.08758003 25.00035018 -0.10696576 22.9976389 -0.09765625 20.99609375 C-0.09443359 19.78115234 -0.09121094 18.56621094 -0.08789062 17.31445312 C-0.07951172 16.03505859 -0.07113281 14.75566406 -0.0625 13.4375 C-0.05798828 12.15423828 -0.05347656 10.87097656 -0.04882812 9.54882812 C-0.03699545 6.36583978 -0.02051068 3.18294238 0 0 Z " fill="#757E90" transform="translate(301,394)"/>
<path d="M0 0 C4.43846476 0.05170854 8.87495857 0.14674916 13.3125 0.25 C15.20645508 0.27126953 15.20645508 0.27126953 17.13867188 0.29296875 C18.95141602 0.34130859 18.95141602 0.34130859 20.80078125 0.390625 C22.47394409 0.4220459 22.47394409 0.4220459 24.1809082 0.45410156 C27 1 27 1 28.88745117 2.85058594 C30 5 30 5 30 8 C22.41 8 14.82 8 7 8 C6.67 6.68 6.34 5.36 6 4 C5.34 4 4.68 4 4 4 C4 3.34 4 2.68 4 2 C2.68 2 1.36 2 0 2 C0 1.34 0 0.68 0 0 Z " fill="#788192" transform="translate(330,483)"/>
<path d="M0 0 C2.18795822 1.05346137 4.19860792 2.13415667 6.21484375 3.49609375 C9.47832846 5.25828395 12.21304683 5.69873823 15.875 6.25 C24.3046115 7.6825589 31.45525759 11.09385677 39 15 C39 17.64 39 20.28 39 23 C38.67 23 38.34 23 38 23 C38 21.35 38 19.7 38 18 C36.98486328 17.80857422 36.98486328 17.80857422 35.94921875 17.61328125 C8.35685553 11.87553155 8.35685553 11.87553155 0 0 Z " fill="#868E9E" transform="translate(281,218)"/>
<path d="M0 0 C0.33 0 0.66 0 1 0 C4.3654847 28.2460323 4.3654847 28.2460323 -1.44921875 35.91015625 C-3 37 -3 37 -5 37 C-5.33 42.61 -5.66 48.22 -6 54 C-6.66 54 -7.32 54 -8 54 C-7.04541462 44.07231209 -5.96366244 34.1794272 -4.5 24.3125 C-4.38164795 23.50071289 -4.2632959 22.68892578 -4.14135742 21.85253906 C-3.37252981 16.80486004 -2.27404629 11.9435102 -1 7 C-0.60267479 4.66982417 -0.29330296 2.3464237 0 0 Z " fill="#676457" transform="translate(424,242)"/>
<path d="M0 0 C2.21741854 1.82610938 2.94903235 3.18617863 4.125 5.75 C3.00351562 5.69779297 3.00351562 5.69779297 1.859375 5.64453125 C0.38210938 5.60392578 0.38210938 5.60392578 -1.125 5.5625 C-2.09953125 5.52769531 -3.0740625 5.49289063 -4.078125 5.45703125 C-7.29218064 5.79369909 -8.55234083 6.55403133 -10.875 8.75 C-12.1266467 10.83334635 -12.1266467 10.83334635 -12.875 12.75 C-15.71454427 10.44287028 -16.79660277 9.39024405 -17.25 5.6875 C-16.875 2.75 -16.875 2.75 -14.875 -0.25 C-10.18649918 -2.2335965 -4.57941342 -1.99104931 0 0 Z " fill="#798193" transform="translate(314.875,190.25)"/>
<path d="M0 0 C-6.73693908 4.49129272 -13.0399726 4.25043763 -20.875 4.125 C-21.94492187 4.11597656 -23.01484375 4.10695313 -24.1171875 4.09765625 C-26.74502439 4.07419342 -29.37239406 4.04136459 -32 4 C-31.99476318 4.69150146 -31.98952637 5.38300293 -31.98413086 6.09545898 C-31.963425 9.20946352 -31.95036037 12.32345361 -31.9375 15.4375 C-31.92912109 16.52611328 -31.92074219 17.61472656 -31.91210938 18.73632812 C-31.90888672 19.77080078 -31.90566406 20.80527344 -31.90234375 21.87109375 C-31.89710693 22.82943115 -31.89187012 23.78776855 -31.88647461 24.77514648 C-32 27 -32 27 -33 28 C-34.99964982 28.08758003 -37.0023611 28.10696576 -39.00390625 28.09765625 C-40.21884766 28.09443359 -41.43378906 28.09121094 -42.68554688 28.08789062 C-43.96494141 28.07951172 -45.24433594 28.07113281 -46.5625 28.0625 C-47.84576172 28.05798828 -49.12902344 28.05347656 -50.45117188 28.04882812 C-53.63416022 28.03699545 -56.81705762 28.02051068 -60 28 C-60.33 26.35 -60.66 24.7 -61 23 C-62.65 23 -64.3 23 -66 23 C-66 22.67 -66 22.34 -66 22 C-64.02 22 -62.04 22 -60 22 C-60 23.32 -60 24.64 -60 26 C-51.09 26 -42.18 26 -33 26 C-33 18.41 -33 10.82 -33 3 C-26.73 3 -20.46 3 -14 3 C-14 2.34 -14 1.68 -14 1 C-12.04310963 0.63794536 -10.08442332 0.28558579 -8.125 -0.0625 C-6.48917969 -0.35833984 -6.48917969 -0.35833984 -4.8203125 -0.66015625 C-2 -1 -2 -1 0 0 Z " fill="#48546C" transform="translate(344,350)"/>
<path d="M0 0 C1.32 0 2.64 0 4 0 C4 4.62 4 9.24 4 14 C7.63 14 11.26 14 15 14 C15 15.32 15 16.64 15 18 C9.72 18.33 4.44 18.66 -1 19 C-1.33 17.35 -1.66 15.7 -2 14 C-1.34 14 -0.68 14 0 14 C0 9.38 0 4.76 0 0 Z " fill="#D89E0B" transform="translate(310,300)"/>
<path d="M0 0 C-0.11853752 1.43804732 -0.24537135 2.87541 -0.375 4.3125 C-0.44460938 5.11300781 -0.51421875 5.91351563 -0.5859375 6.73828125 C-0.94032345 9.52990644 -1.41526549 12.23845509 -1.9453125 15 C-3.37450181 22.6930885 -4.07613334 30.45582022 -4.85546875 38.23632812 C-5.49490709 44.33161941 -6.31333871 50.10395559 -8 56 C-8.33 56 -8.66 56 -9 56 C-9.05506505 54.47959282 -9.09326375 52.95857296 -9.125 51.4375 C-9.14820313 50.59058594 -9.17140625 49.74367187 -9.1953125 48.87109375 C-9 46 -9 46 -8.03125 42.70703125 C-6.85663337 38.4846404 -6.55365785 34.60693123 -6.375 30.25 C-6.31590454 29.06410278 -6.31590454 29.06410278 -6.25561523 27.85424805 C-6.05315556 23.49936269 -5.98388393 19.17266804 -6.0625 14.8125 C-6.1095352 9.70918095 -5.75800836 5.17993037 -2.4375 1.0625 C-1 0 -1 0 0 0 Z " fill="#445067" transform="translate(435,206)"/>
<path d="M0 0 C0.61875 0.268125 1.2375 0.53625 1.875 0.8125 C6.17994393 2.4483787 10.58031552 3.71271326 15 5 C14.625 7.42578125 14.625 7.42578125 14 10 C12 11.1875 12 11.1875 10 12 C9.67 12.66 9.34 13.32 9 14 C6.64453125 13.8046875 6.64453125 13.8046875 4 13 C2.63671875 10.8203125 2.63671875 10.8203125 1.6875 8.125 C1.19830078 6.79855469 1.19830078 6.79855469 0.69921875 5.4453125 C0 3 0 3 0 0 Z " fill="#2F3D59" transform="translate(389,472)"/>
<path d="M0 0 C3.3 0 6.6 0 10 0 C10 0.66 10 1.32 10 2 C11.051875 2.103125 12.10375 2.20625 13.1875 2.3125 C17.07014507 3.01264911 18.74983666 3.88361457 22 6 C25.31106191 7.71173725 28.65459914 9.35653123 32 11 C32 11.33 32 11.66 32 12 C23.44273 11.20766019 15.56774815 9.18217661 8 5 C8 4.34 8 3.68 8 3 C5.36 2.34 2.72 1.68 0 1 C0 0.67 0 0.34 0 0 Z " fill="#767F91" transform="translate(365,433)"/>
<path d="M0 0 C10.56 0 21.12 0 32 0 C32 13.5 32 13.5 31.5 20.25 C31.36078125 22.17585938 31.36078125 22.17585938 31.21875 24.140625 C31.1465625 25.08421875 31.074375 26.0278125 31 27 C28.95809019 26.85761163 26.91647955 26.71092972 24.875 26.5625 C23.73804688 26.48128906 22.60109375 26.40007812 21.4296875 26.31640625 C18.2459522 26.02269035 15.14489093 25.56875687 12 25 C12 24.67 12 24.34 12 24 C17.61 24.33 23.22 24.66 29 25 C29.66 17.08 30.32 9.16 31 1 C21.1 1 11.2 1 1 1 C0.67 3.64 0.34 6.28 0 9 C-1.22596039 5.32211882 -0.84310077 4.21550387 0 0 Z " fill="#A27E21" transform="translate(380,345)"/>
<path d="M0 0 C0.33 0 0.66 0 1 0 C1.45047923 8.85942492 1.45047923 8.85942492 -2 13 C-6.58116176 17.13421915 -10.12287451 17.38430607 -16.0234375 17.140625 C-16.67570312 17.09421875 -17.32796875 17.0478125 -18 17 C-18 15.68 -18 14.36 -18 13 C-14.46813168 10.84940691 -11.33712007 10.6202272 -7.25 10.375 C-6.07953125 10.30023438 -4.9090625 10.22546875 -3.703125 10.1484375 C-2.81109375 10.09945313 -1.9190625 10.05046875 -1 10 C-0.67 6.7 -0.34 3.4 0 0 Z " fill="#2D3A54" transform="translate(329,307)"/>
<path d="M0 0 C4.16743017 0.08149361 8.33346255 0.19428454 12.5 0.3125 C14.25957031 0.34633789 14.25957031 0.34633789 16.0546875 0.38085938 C22.69984477 0.58618727 27.94524923 1.20492322 34 4 C34.44133265 14.46121827 33.22066559 23.82194937 31 34 C29.86125816 30.52192588 30.09841704 27.74841044 30.55859375 24.140625 C30.69716797 23.02558594 30.83574219 21.91054687 30.97851562 20.76171875 C31.12998047 19.60285156 31.28144531 18.44398438 31.4375 17.25 C31.58509766 16.07566406 31.73269531 14.90132812 31.88476562 13.69140625 C32.24996477 10.79337432 32.62194968 7.8963788 33 5 C31.64455078 4.90912109 31.64455078 4.90912109 30.26171875 4.81640625 C28.49248047 4.69072266 28.49248047 4.69072266 26.6875 4.5625 C25.51574219 4.48128906 24.34398437 4.40007812 23.13671875 4.31640625 C20 4 20 4 17 3 C15.66709486 2.79168543 14.32886749 2.61603769 12.98828125 2.46484375 C12.23095703 2.37783203 11.47363281 2.29082031 10.69335938 2.20117188 C9.90767578 2.11416016 9.12199219 2.02714844 8.3125 1.9375 C7.11657227 1.80118164 7.11657227 1.80118164 5.89648438 1.66210938 C3.931315 1.43852723 1.9656983 1.21888316 0 1 C0 0.67 0 0.34 0 0 Z " fill="#7C6831" transform="translate(400,174)"/>
<path d="M0 0 C12.7992949 0.90461182 12.7992949 0.90461182 17 1.625 C20.08459465 2.01057433 21.98534691 1.6309739 25 1 C28.33495585 0.90736234 31.66456775 0.94171089 35 1 C35 1.33 35 1.66 35 2 C23.82316431 4.60206122 12.65180061 4.22673324 1.25 4.125 C-0.71874544 4.11494876 -2.68749586 4.10582671 -4.65625 4.09765625 C-9.43762471 4.07581575 -14.21875632 4.04140432 -19 4 C-19 3.67 -19 3.34 -19 3 C-9.1 2.505 -9.1 2.505 1 2 C0.67 1.34 0.34 0.68 0 0 Z " fill="#566178" transform="translate(297,271)"/>
<path d="M0 0 C21.00657895 3.36513158 21.00657895 3.36513158 25.75 9.125 C26.1625 9.74375 26.575 10.3625 27 11 C29.08334635 12.2516467 29.08334635 12.2516467 31 13 C30.01 13.495 30.01 13.495 29 14 C26.48828125 12.99609375 26.48828125 12.99609375 23.3125 11.4375 C17.55342605 8.67700534 11.7431456 6.24589642 5.76293945 4.00561523 C1.10653841 2.21307681 1.10653841 2.21307681 0 0 Z " fill="#9EA5B1" transform="translate(387,443)"/>
<path d="M0 0 C0.33 0 0.66 0 1 0 C1 3.3 1 6.6 1 10 C-6.59 10 -14.18 10 -22 10 C-22 10.99 -22 11.98 -22 13 C-25.63 12.01 -29.26 11.02 -33 10 C-29.29847322 9.07461831 -28.36541838 8.91825838 -25 10 C-25 9.34 -25 8.68 -25 8 C-16.75 8 -8.5 8 0 8 C0 5.36 0 2.72 0 0 Z " fill="#3E4B65" transform="translate(351,198)"/>
<path d="M0 0 C2 1.1875 2 1.1875 4 3 C4.25 5.6875 4.25 5.6875 4 8 C4.66 8 5.32 8 6 8 C5.67 10.97 5.34 13.94 5 17 C1.6457783 17.02712309 -1.70822111 17.0468987 -5.0625 17.0625 C-6.00544922 17.07087891 -6.94839844 17.07925781 -7.91992188 17.08789062 C-13.0630768 17.10581103 -17.93258427 16.89259611 -23 16 C-22.67 14.68 -22.34 13.36 -22 12 C-22 12.99 -22 13.98 -22 15 C-13.75 15 -5.5 15 3 15 C2.47614836 6.88478973 2.47614836 6.88478973 0 0 Z " fill="#9CA3B0" transform="translate(342,184)"/>
<path d="M0 0 C0.99 0 1.98 0 3 0 C2.88519969 2.85490236 2.75847036 5.7084588 2.625 8.5625 C2.5940625 9.36236328 2.563125 10.16222656 2.53125 10.98632812 C2.28743436 15.96423083 1.56368612 20.26444649 0 25 C-0.66 25 -1.32 25 -2 25 C-2.36011137 16.49737031 -1.2527717 8.38909618 0 0 Z " fill="#4B5569" transform="translate(427,227)"/>
<path d="M0 0 C9.9 0 19.8 0 30 0 C29.67 1.32 29.34 2.64 29 4 C28.67 3.34 28.34 2.68 28 2 C18.43 2.33 8.86 2.66 -1 3 C-0.67 2.01 -0.34 1.02 0 0 Z " fill="#B7BCC6" transform="translate(330,387)"/>
<path d="M0 0 C0.66 0 1.32 0 2 0 C4.49310643 3.73965964 4.0603261 5.29070641 3.625 9.6875 C3.51414062 10.86699219 3.40328125 12.04648437 3.2890625 13.26171875 C3.19367188 14.16535156 3.09828125 15.06898438 3 16 C2.01 16 1.02 16 0 16 C0 17.98 0 19.96 0 22 C-0.66 22 -1.32 22 -2 22 C-1.34 14.74 -0.68 7.48 0 0 Z " fill="#615E54" transform="translate(414,300)"/>
<path d="M0 0 C11.10364498 -0.38808856 11.10364498 -0.38808856 15 2 C15.33 2.99 15.66 3.98 16 5 C11.71 5 7.42 5 3 5 C3 3.68 3 2.36 3 1 C2.01 0.67 1.02 0.34 0 0 Z " fill="#868C97" transform="translate(311,299)"/>
<path d="M0 0 C0.66 0.33 1.32 0.66 2 1 C0.35 2.32 -1.3 3.64 -3 5 C-1.125 1.125 -1.125 1.125 0 0 Z M-5 5 C-4.34 5.33 -3.68 5.66 -3 6 C-3.99 6.66 -4.98 7.32 -6 8 C-5.67 7.01 -5.34 6.02 -5 5 Z M-8 8 C-7.34 8.33 -6.68 8.66 -6 9 C-8.64 11.64 -11.28 14.28 -14 17 C-14.33 16.01 -14.66 15.02 -15 14 C-14.360625 13.731875 -13.72125 13.46375 -13.0625 13.1875 C-10.66868314 12.11332248 -10.66868314 12.11332248 -10 9 C-9.34 8.67 -8.68 8.34 -8 8 Z M-18 17 C-17.01 17.33 -16.02 17.66 -15 18 C-17.97 20.475 -17.97 20.475 -21 23 C-20 21 -19 19 -18 17 Z M-23 23 C-22.34 23.33 -21.68 23.66 -21 24 C-22.32 24.99 -23.64 25.98 -25 27 C-24.34 25.68 -23.68 24.36 -23 23 Z " fill="#0F1E3E" transform="translate(143,120)"/>
<path d="M0 0 C3.38646288 4.51528384 3.38646288 4.51528384 3.25 8.5 C3.23453125 9.2528125 3.2190625 10.005625 3.203125 10.78125 C3.00487199 12.94678285 2.58899863 14.91000485 2 17 C1.01 17 0.02 17 -1 17 C-0.67 11.39 -0.34 5.78 0 0 Z " fill="#525966" transform="translate(412,345)"/>
<path d="M0 0 C0.84529996 2.8573295 1.06103961 5.09093616 0.73046875 8.046875 C0.64603516 8.81 0.56160156 9.573125 0.47460938 10.359375 C0.37986328 11.14828125 0.28511719 11.9371875 0.1875 12.75 C0.10435547 13.5234375 0.02121094 14.296875 -0.06445312 15.09375 C-0.65170735 20.2032904 -1.65683534 25.03539139 -3 30 C-3.33 30 -3.66 30 -4 30 C-4.22321637 23.83674804 -3.74330503 18.94774658 -2 13 C-1.66813354 9.82703287 -1.43967626 6.6607972 -1.24609375 3.4765625 C-1 1 -1 1 0 0 Z " fill="#313E5A" transform="translate(430,232)"/>
<path d="M0 0 C1.32 0 2.64 0 4 0 C4 1.32 4 2.64 4 4 C3.01 4 2.02 4 1 4 C1 8.95 1 13.9 1 19 C0.01 18.67 -0.98 18.34 -2 18 C-2 16.68 -2 15.36 -2 14 C-1.34 14 -0.68 14 0 14 C0 9.38 0 4.76 0 0 Z " fill="#DCBA66" transform="translate(310,300)"/>
<path d="M0 0 C0.33 0 0.66 0 1 0 C1.58051881 8.94428987 -0.18625975 17.29836524 -2 26 C-2.33 26 -2.66 26 -3 26 C-3.02687279 24.18757948 -3.04633715 22.37504767 -3.0625 20.5625 C-3.07410156 19.55316406 -3.08570313 18.54382813 -3.09765625 17.50390625 C-3 15 -3 15 -2 14 C-1.602507 11.65276034 -1.25631277 9.29671452 -0.9375 6.9375 C-0.67259766 5.00197266 -0.67259766 5.00197266 -0.40234375 3.02734375 C-0.26957031 2.02832031 -0.13679688 1.02929688 0 0 Z " fill="#2F3D59" transform="translate(425,262)"/>
<path d="M0 0 C2.6875 -0.3125 2.6875 -0.3125 6 0 C8.625 2.375 8.625 2.375 11 5 C13.16620544 6.29519995 13.16620544 6.29519995 15 7 C14.01 7.495 14.01 7.495 13 8 C10.75689987 7.10333658 8.55245679 6.10853317 6.375 5.0625 C5.18648438 4.49660156 3.99796875 3.93070312 2.7734375 3.34765625 C1.85820312 2.90292969 0.94296875 2.45820313 0 2 C0 1.34 0 0.68 0 0 Z " fill="#9AA1AE" transform="translate(437,464)"/>
<path d="M0 0 C2.77575064 1.35675704 5.47187285 2.79119406 8.125 4.375 C8.80820312 4.77460938 9.49140625 5.17421875 10.1953125 5.5859375 C12.2467659 7.19335337 13.01503383 8.61374175 14 11 C7.32264932 9.29184052 3.87680487 5.50914377 0 0 Z " fill="#7F8798" transform="translate(281,218)"/>
<path d="M0 0 C3.3 0 6.6 0 10 0 C10 0.66 10 1.32 10 2 C11.0725 2.12375 12.145 2.2475 13.25 2.375 C16.37863615 2.89643936 18.33480424 3.40088254 21 5 C20.01 5.495 20.01 5.495 19 6 C17 5.33333333 15 4.66666667 13 4 C10.13626079 3.4708747 7.26928511 3.00295073 4.390625 2.5625 C2 2 2 2 0 0 Z " fill="#586379" transform="translate(365,433)"/>
<path d="M0 0 C5.44876003 1.72066106 10.71169451 3.84705349 16 6 C13.18515955 7.40742022 11.43063887 6.66652164 8.375 6.0625 C7.37210937 5.86785156 6.36921875 5.67320312 5.3359375 5.47265625 C4.56507813 5.31667969 3.79421875 5.16070312 3 5 C2.67 4.01 2.34 3.02 2 2 C1.01 1.67 0.02 1.34 -1 1 C-0.67 0.67 -0.34 0.34 0 0 Z " fill="#5F697F" transform="translate(445,465)"/>
<path d="M0 0 C4.05281712 1.22527029 7.44360764 2.69880494 11 5 C7.23375329 6.25541557 5.62811066 5.37061958 2 4 C2 3.34 2 2.68 2 2 C1.01 1.67 0.02 1.34 -1 1 C-0.67 0.67 -0.34 0.34 0 0 Z " fill="#697286" transform="translate(411,450)"/>
<path d="M0 0 C2.64 0.33 5.28 0.66 8 1 C8 1.99 8 2.98 8 4 C8.99 4.33 9.98 4.66 11 5 C10.01 5.495 10.01 5.495 9 6 C6.8359375 5.22265625 6.8359375 5.22265625 4.375 4.0625 C3.55773437 3.68222656 2.74046875 3.30195313 1.8984375 2.91015625 C1.27195312 2.60980469 0.64546875 2.30945313 0 2 C0 1.34 0 0.68 0 0 Z " fill="#979EAC" transform="translate(373,436)"/>
<path d="M0 0 C2.475 0.99 2.475 0.99 5 2 C4.01 2.33 3.02 2.66 2 3 C2.99 6.3 3.98 9.6 5 13 C3 12 3 12 2.1484375 10.0390625 C1.89320313 9.24242187 1.63796875 8.44578125 1.375 7.625 C1.11460937 6.83351563 0.85421875 6.04203125 0.5859375 5.2265625 C0 3 0 3 0 0 Z " fill="#3E4B65" transform="translate(389,472)"/>
<path d="M0 0 C0.33 0.66 0.66 1.32 1 2 C0.34 2 -0.32 2 -1 2 C-1.226875 2.5775 -1.45375 3.155 -1.6875 3.75 C-3.33038023 6.5663661 -5.39533227 8.08077114 -8 10 C-8 7 -8 7 -6.25 5.17578125 C-5.5075 4.56089844 -4.765 3.94601563 -4 3.3125 C-3.2575 2.68988281 -2.515 2.06726563 -1.75 1.42578125 C-1.1725 0.95527344 -0.595 0.48476562 0 0 Z " fill="#BFC3CC" transform="translate(283,172)"/>
<path d="M0 0 C5.53846154 0.61538462 5.53846154 0.61538462 7.875 2.5625 C8.431875 3.2740625 8.431875 3.2740625 9 4 C5.87709365 3.51421457 3.00419641 3.0013988 0 2 C0 1.34 0 0.68 0 0 Z " fill="#6D778A" transform="translate(397,445)"/>
<path d="M0 0 C2.35171131 0.59861742 4.6859378 1.26924352 7 2 C7.33 2.66 7.66 3.32 8 4 C5.69 3.67 3.38 3.34 1 3 C0.67 2.01 0.34 1.02 0 0 Z " fill="#6E788B" transform="translate(432,460)"/>
</svg>
